<svg height="197.4767" viewBox="0 0 493.25561 197.4767" width="493.25562" xmlns="http://www.w3.org/2000/svg" xmlns:xlink="http://www.w3.org/1999/xlink"><linearGradient id="a" gradientTransform="matrix(-8.7796153 42.985832 -42.985832 -8.7796153 810.33577 828.59028)" gradientUnits="userSpaceOnUse" x1=".152358" x2=".968809" y1="-.044912" y2="-.049471"><stop offset="0" stop-color="#ec706a"/><stop offset="1" stop-color="#ecd980"/></linearGradient><text transform="translate(-312.52749 -472.07353)"/><text fill="#51a9cf" font-family="'Noto Serif CJK SC'" font-size="35.1025" letter-spacing="0" transform="matrix(3.7983969 0 0 3.7983969 -330.7653 961.00598)" word-spacing="0"><tspan x="91.011719" y="-209.05206"><tspan x="91.011719" y="-209.05206">智能写<tspan fill="#51a9cf"/></tspan></tspan><tspan x="91.011719" y="-165.17393"/></text><g transform="translate(-377.88503 -692.52836)"><path d="m793.12811 845.45734c-1.09438 20.55837 6.93804 24.54772 6.93804 24.54772s.98325-13.16026 6.76656-11.6325c4.96369 1.30552 2.67983 10.4134 2.67983 10.4134s26.21535-34.03672 1.372-40.63137-5.51534-1.89773-10.40994.92679c-3.58074 2.06734-6.82887 6.66097-7.34649 16.37596" fill="url(#a)"/><path d="m826.30436 831.16428-10.99206-16.95952 1.75995-6.49966 10.01483 2.71233z" fill="#126d95"/><path d="m828.56081 804.89512-.91739 3.38458-9.99361-2.70665.91739-3.38458z" fill="#126d95"/><g fill="#51a9cf"><path d="m834.01973 741.0381c-1.68105.0185-3.22054 1.13771-3.68367 2.84981-.56186 2.07405.665 4.21099 2.73743 4.77241l-13.96475 51.52944-9.99361-2.70665c8.36013-31.46487 4.99411-51.98144 4.99411-51.98144 14.99782-11.92097 23.67-25.56577 27.63101-32.97331z"/><path d="m818.56767 802.18881-.9174 3.38458-10.03996-2.72957.91314-3.37522z"/><path d="m817.07405 807.70594-1.75995 6.49966-18.03534 9.08805 9.78412-18.31044z"/></g><path d="m836.1981 741.64919 7.72577-28.52932c-.3195 8.40427.28451 24.55036 7.21678 42.41047 0 0-11.89603 16.50235-21.99788 47.3763l-10.03442-2.71758 13.96533-51.5284c2.08221.56405 4.21039-.66603 4.77182-2.73844.45427-1.67248-.26571-3.38317-1.64739-4.27302" fill="#126d95"/></g></svg>