<svg width="300" height="71.784" viewBox="0 0 79.375 18.993" xmlns:xlink="http://www.w3.org/1999/xlink" xmlns="http://www.w3.org/2000/svg"><defs><linearGradient xlink:href="#a" id="b" x1=".152" x2=".969" y1="-.045" y2="-.049" gradientTransform="rotate(101.544 290.55 422.146) scale(26.05808)" gradientUnits="userSpaceOnUse"/><linearGradient id="a" x1=".152" x2=".969" y1="-.045" y2="-.049" gradientTransform="rotate(101.544 290.55 422.146) scale(26.05808)" gradientUnits="userSpaceOnUse"><stop offset="0" stop-color="#ec706a"/><stop offset="1" stop-color="#ecd980"/></linearGradient></defs><path style="fill:#51a9cf;fill-opacity:1" d="M76.697 4.286c-.936 0-1.79.24-2.565.718-.768.473-1.376 1.143-1.823 2.01-.452.854-.678 1.816-.678 2.887 0 .65.118 1.25.355 1.798.237.543.613.981 1.13 1.315.494.333 1.134.5 1.919.5l.001.001c.365 0 .739-.044 1.12-.13a6.09 6.09 0 0 0 1.114-.378c.36-.167.688-.363.984-.59.3-.225.55-.473.75-.742l-.726-1.355c-.145.193-.363.39-.653.589a4.83 4.83 0 0 1-.944.5 2.583 2.583 0 0 1-.952.202c-.387 0-.667-.083-.84-.25-.171-.167-.274-.423-.306-.767v-.226a14.49 14.49 0 0 0 1.88-.613 7.222 7.222 0 0 0 1.525-.847 3.661 3.661 0 0 0 1.016-1.113c.247-.425.37-.906.37-1.444 0-.403-.099-.758-.298-1.065-.193-.311-.49-.556-.887-.734-.393-.177-.89-.266-1.492-.266zm-.63 1.533c.22 0 .374.064.46.193.092.124.138.329.138.614 0 .29-.062.572-.186.847-.124.269-.29.513-.5.734-.205.22-.43.397-.678.532a1.78 1.78 0 0 1-.75.225c.01-.275.046-.619.105-1.032.059-.414.201-.8.428-1.16.172-.27.33-.496.475-.679.145-.182.315-.274.508-.274zM15.617 4.286c-.936 0-1.79.24-2.565.718-.768.473-1.376 1.143-1.823 2.01-.452.854-.678 1.816-.678 2.887 0 .65.118 1.25.355 1.798.237.544.613.982 1.13 1.316.494.333 1.134.5 1.919.5h.001c.365 0 .739-.044 1.12-.13a6.09 6.09 0 0 0 1.114-.378c.36-.167.688-.363.984-.59.3-.225.55-.473.75-.742l-.726-1.355c-.145.193-.363.39-.654.589-.29.199-.604.366-.943.5a2.583 2.583 0 0 1-.952.202c-.387 0-.667-.083-.84-.25-.171-.167-.273-.423-.306-.767v-.226a14.49 14.49 0 0 0 1.88-.613 7.197 7.197 0 0 0 1.524-.847 3.656 3.656 0 0 0 1.017-1.113c.247-.425.37-.906.37-1.444 0-.403-.099-.758-.298-1.065-.193-.311-.49-.556-.887-.734-.393-.177-.89-.266-1.492-.266zm-.63 1.533c.22 0 .374.064.46.193.092.124.138.329.138.614 0 .29-.062.572-.186.847-.123.269-.29.513-.5.734-.205.22-.43.397-.678.532-.247.135-.497.21-.75.226.01-.275.046-.62.105-1.033.059-.414.201-.8.428-1.16.172-.27.33-.496.475-.679.145-.182.315-.274.508-.274zM24.377 4.286c-.935 0-1.79.24-2.565.718-.769.473-1.377 1.143-1.823 2.01-.452.854-.678 1.816-.678 2.887 0 .65.118 1.25.355 1.798.236.544.613.982 1.129 1.316.495.333 1.135.5 1.92.5.366 0 .74-.044 1.122-.13a6.091 6.091 0 0 0 1.113-.378 5.22 5.22 0 0 0 .984-.59 3.6 3.6 0 0 0 .75-.742l-.726-1.355c-.145.193-.363.39-.653.589-.29.199-.605.366-.944.5a2.583 2.583 0 0 1-.951.202c-.388 0-.668-.083-.84-.25-.171-.167-.274-.423-.307-.767v-.226a14.49 14.49 0 0 0 1.88-.613 7.222 7.222 0 0 0 1.525-.847 3.673 3.673 0 0 0 1.017-1.113c.247-.425.37-.906.37-1.444 0-.403-.1-.758-.298-1.065-.194-.311-.49-.556-.888-.734-.392-.177-.89-.266-1.492-.266zm-.63 1.533c.22 0 .375.064.461.193.092.124.137.329.137.614 0 .29-.062.572-.186.847-.123.269-.29.513-.5.734-.204.22-.43.397-.678.532a1.79 1.79 0 0 1-.75.226c.011-.275.046-.62.105-1.033.06-.414.202-.8.428-1.16.172-.27.33-.496.476-.679.145-.182.314-.274.508-.274z"/><path d="M751.566 230.706c-2.527 12.283 1.949 15.415 1.949 15.415s1.787-7.837 5.132-6.391c2.871 1.237.668 6.515.668 6.515s18.882-18.12 4.517-24.348c0 0-3.15-1.644-6.354-.387-2.345.92-4.718 3.391-5.912 9.196" paint-order="stroke" style="fill:url(#b);fill-opacity:1;fill-rule:nonzero;stroke:none;stroke-width:.72817;stroke-linecap:butt;stroke-linejoin:miter;stroke-miterlimit:4;stroke-dasharray:none;stroke-dashoffset:0" transform="translate(-95.423 -31.173) scale(.20372)"/><path fill="#126d95" d="m771.784 223.478-6.529-10.073 1.046-3.86 5.948 1.61zm1.34-15.602-.545 2.01-5.935-1.607.545-2.01z" style="stroke-width:.59394" transform="translate(-95.423 -31.173) scale(.20372)"/><path d="M62.74 3.45a.467.467 0 0 0-.446.344.47.47 0 0 0 .332.578l-1.69 6.235-1.21-.328c1.012-3.807.605-6.29.605-6.29A13.105 13.105 0 0 0 63.674 0zm-1.87 7.399-.11.41-1.215-.33.11-.41zm-.18.667-.213.787-2.182 1.1 1.183-2.216z" fill="#51a9cf"/><path fill="#126d95" d="m777.66 170.312 4.589-16.945c-.19 4.992.169 14.581 4.286 25.19 0 0-7.065 9.8-13.065 28.138l-5.96-1.614 8.295-30.605a2.308 2.308 0 0 0 1.855-4.164" style="stroke-width:.59394" transform="translate(-95.423 -31.173) scale(.20372)"/><path style="fill:#51a9cf;fill-opacity:1" d="M52.691 13.385 53.917 4.4h2.71l-.129 1.872q.178-.525.516-.976.34-.452.799-.726.46-.283.992-.283.428 0 .549.097l-.5 2.856q-.057-.097-.299-.154-.242-.056-.476-.056-.347 0-.645.072-.29.065-.565.218-.266.154-.548.404l-.823 5.662zM40.107 13.385 38.639 1.334h2.823l.452 7.711.161 1.759.532-1.759 2.033-5.05-.29-2.661h2.726l.468 7.711.178 1.759.42-1.759 2.629-7.711h2.872l-4.68 12.051h-3.258l-.452-4.307-.145-1.323-.484 1.323-1.565 4.307ZM28.088 13.385 29.314 4.4h2.694l-.113 1.63q.549-.823 1.29-1.283.75-.46 1.63-.46 1.065 0 1.622.549.556.548.556 1.823 0 .177-.056.645-.049.46-.13 1.025-.072.556-.137 1.024l-.088.597q-.057.436-.137 1-.073.557-.154 1.097-.072.54-.129.912l-.056.427h-2.807q.12-.806.217-1.516.105-.718.186-1.34.08-.628.145-1.16.097-.816.153-1.356.065-.549.073-.839.016-.427-.145-.597-.161-.177-.5-.177-.218 0-.46.105-.234.104-.468.306-.234.194-.452.468-.21.274-.379.605l-.774 5.501zM0 13.385 1.726 1.334h2.71l-.774 5.275 4.243-5.275H11.1L6.324 6.642q.113.21.274.532.17.315.404.79.242.468.572 1.138.34.67.8 1.59.209.427.41.814.202.379.388.718.185.33.355.62l.33.541H6.582q-.032-.056-.12-.234-.09-.177-.227-.476-.137-.306-.33-.726l-.42-.968-1-2.307-1.29 1.356-.485 3.355zM67.21 13.547q-.854 0-1.355-.444-.5-.444-.5-1.25 0-.073.024-.347l.057-.613q.04-.347.08-.638l.565-4.146h-.661l.29-1.71h.823l.774-2.162h2.114L69.114 4.4h1.759l-.178 1.71h-1.79l-.307 2.227-.194 1.387q-.072.508-.104.774l-.049.388q-.008.12-.008.226 0 .242.113.379t.436.137q.169 0 .427-.089.258-.097.516-.242.259-.153.428-.315l.436 1.34q-.42.322-.944.605-.517.274-1.13.451-.613.17-1.314.17z"/></svg>