<svg xmlns="http://www.w3.org/2000/svg" xmlns:xlink="http://www.w3.org/1999/xlink" width="300" height="71.784" viewBox="0 0 79.375 18.993"><defs><linearGradient xlink:href="#a" id="b" x1=".152" x2=".969" y1="-.045" y2="-.049" gradientTransform="matrix(-5.21456 25.531 -25.531 -5.21456 762.3 221.95)" gradientUnits="userSpaceOnUse"/><linearGradient id="a" x1=".152" x2=".969" y1="-.045" y2="-.049" gradientTransform="matrix(-5.21456 25.531 -25.531 -5.21456 762.3 221.95)" gradientUnits="userSpaceOnUse"><stop offset="0" stop-color="#ec706a"/><stop offset="1" stop-color="#ecd980"/></linearGradient></defs><path d="M751.566 230.706c-2.527 12.283 1.949 15.415 1.949 15.415s1.787-7.837 5.132-6.391c2.871 1.237.668 6.515.668 6.515s18.882-18.12 4.517-24.348c0 0-3.15-1.644-6.354-.387-2.345.92-4.718 3.391-5.912 9.196" paint-order="stroke" style="fill:url(#b);fill-opacity:1;fill-rule:nonzero;stroke:none;stroke-width:.72817;stroke-linecap:butt;stroke-linejoin:miter;stroke-miterlimit:4;stroke-dasharray:none;stroke-dashoffset:0" transform="matrix(.20372 0 0 .20372 -95.423 -31.173)"/><path fill="#126d95" d="m771.784 223.478-6.529-10.073 1.046-3.86 5.948 1.61zM773.124 207.876l-.545 2.01-5.935-1.607.545-2.01z" style="stroke-width:.59394" transform="matrix(.20372 0 0 .20372 -95.423 -31.173)"/><g fill="#51a9cf"><path d="M62.74 3.45a.467.467 0 0 0-.446.344.47.47 0 0 0 .332.578l-1.69 6.235-1.21-.328c1.012-3.807.605-6.29.605-6.29A13.105 13.105 0 0 0 63.674 0zM60.87 10.849l-.11.41-1.215-.33.11-.41zM60.69 11.516l-.213.787-2.182 1.1 1.183-2.216z"/></g><path fill="#126d95" d="m777.66 170.312 4.589-16.945c-.19 4.992.169 14.581 4.286 25.19 0 0-7.065 9.8-13.065 28.138l-5.96-1.614 8.295-30.605a2.308 2.308 0 0 0 1.855-4.164" style="stroke-width:.59394" transform="matrix(.20372 0 0 .20372 -95.423 -31.173)"/><path d="M0 13.385 1.726 1.334h2.71l-.774 5.275 4.243-5.275H11.1L6.324 6.642q.113.21.274.532.17.315.404.79.242.468.572 1.138.34.67.8 1.59.209.427.41.814.202.379.388.718.185.33.355.62l.33.541H6.582q-.032-.056-.12-.234-.09-.177-.227-.476-.137-.306-.33-.726l-.42-.968-1-2.307-1.29 1.356-.485 3.355Zm13.955.13q-1.178 0-1.92-.5-.774-.5-1.129-1.316-.355-.822-.355-1.798 0-1.606.678-2.888.67-1.299 1.823-2.009 1.161-.718 2.565-.718.903 0 1.492.266.597.267.887.734.299.46.299 1.065 0 .807-.371 1.444-.363.63-1.017 1.113-.653.484-1.524.847-.871.355-1.88.613V10.594q.049.517.307.767t.839.25q.444 0 .952-.202t.943-.5q.436-.299.654-.589l.726 1.355q-.299.404-.75.742-.444.34-.984.59-.533.241-1.114.378-.572.13-1.12.13zm-.484-4.55q.38-.024.75-.226.371-.202.678-.532.315-.331.5-.734.186-.412.186-.847 0-.428-.138-.614-.129-.193-.46-.193-.29 0-.508.274-.217.274-.475.678-.34.54-.428 1.161-.089.621-.105 1.033zm9.244 4.55q-1.177 0-1.92-.5-.774-.5-1.129-1.316-.355-.822-.355-1.798 0-1.606.678-2.888.67-1.299 1.823-2.009 1.162-.718 2.565-.718.904 0 1.492.266.597.267.888.734.298.46.298 1.065 0 .807-.37 1.444-.364.63-1.017 1.113-.654.484-1.525.847-.871.355-1.88.613V10.594q.05.517.307.767.258.25.84.25.443 0 .951-.202t.944-.5q.435-.299.653-.589l.726 1.355q-.298.404-.75.742-.444.34-.984.59-.533.241-1.113.378-.573.13-1.122.13zm-.484-4.55q.38-.024.75-.226.372-.202.678-.532.315-.331.5-.734.186-.412.186-.847 0-.428-.137-.614-.13-.193-.46-.193-.29 0-.508.274-.218.274-.476.678-.339.54-.428 1.161-.088.621-.105 1.033zm5.857 4.42L29.314 4.4h2.694l-.113 1.63q.549-.823 1.29-1.283.75-.46 1.63-.46 1.065 0 1.622.549.556.548.556 1.823 0 .177-.056.645-.049.46-.13 1.025-.072.556-.137 1.024l-.088.597q-.057.436-.137 1-.073.557-.154 1.097-.072.54-.129.912l-.056.427h-2.807q.12-.806.217-1.516.105-.718.186-1.34.08-.628.145-1.16.097-.816.153-1.356.065-.549.073-.839.016-.427-.145-.597-.161-.177-.5-.177-.218 0-.46.105-.234.104-.468.306-.234.194-.452.468-.21.274-.379.605l-.774 5.501zm12.019 0L38.639 1.334h2.823l.452 7.711.161 1.759.532-1.759 2.033-5.05-.29-2.661h2.726l.468 7.711.178 1.759.42-1.759 2.629-7.711h2.872l-4.68 12.051h-3.258l-.452-4.307-.145-1.323-.484 1.323-1.565 4.307Zm12.584 0L53.917 4.4h2.71l-.129 1.872q.178-.525.516-.976.34-.452.799-.726.46-.283.992-.283.428 0 .549.097l-.5 2.856q-.057-.097-.299-.154-.242-.056-.476-.056-.347 0-.645.072-.29.065-.565.218-.266.154-.548.404l-.823 5.662z" aria-label="KeenWr" style="font-style:italic;font-weight:800;font-size:16.1331px;font-family:&quot;Merriweather Sans&quot;;letter-spacing:0;word-spacing:0;fill:#51a9cf;stroke-width:.120999"/><path d="M67.21 13.547q-.854 0-1.355-.444-.5-.444-.5-1.25 0-.073.024-.347l.057-.613q.04-.347.08-.638l.565-4.146h-.661l.29-1.71h.823l.774-2.162h2.114L69.114 4.4h1.759l-.178 1.71h-1.79l-.307 2.227-.194 1.387q-.072.508-.104.774l-.049.388q-.008.12-.008.226 0 .242.113.379t.436.137q.169 0 .427-.089.258-.097.516-.242.259-.153.428-.315l.436 1.34q-.42.322-.944.605-.517.274-1.13.451-.613.17-1.314.17zm7.825-.033q-1.178 0-1.92-.5-.774-.5-1.129-1.315-.355-.822-.355-1.798 0-1.606.678-2.888.67-1.299 1.823-2.009 1.161-.718 2.565-.718.903 0 1.492.266.597.267.887.734.299.46.299 1.065 0 .807-.371 1.444-.363.63-1.016 1.113-.654.484-1.525.847-.871.355-1.88.613V10.594q.049.517.307.767t.839.25q.444 0 .952-.202t.944-.5q.435-.299.653-.589l.726 1.355q-.299.404-.75.742-.444.34-.984.59-.533.241-1.114.378-.572.13-1.12.13zm-.484-4.55q.38-.023.75-.225.371-.202.678-.532.315-.331.5-.734.186-.412.186-.847 0-.428-.138-.614-.129-.193-.46-.193-.29 0-.508.274-.217.274-.475.678-.34.54-.428 1.161-.089.621-.105 1.033z" aria-label="te" style="font-style:italic;font-weight:800;font-size:16.1331px;font-family:&quot;Merriweather Sans&quot;;letter-spacing:0;word-spacing:0;fill:#51a9cf;stroke-width:.120999"/></svg>