<?xml version="1.0" encoding="UTF-8" standalone="no"?>
<!-- Created with Inkscape (http://www.inkscape.org/) -->

<svg
   xmlns:dc="http://purl.org/dc/elements/1.1/"
   xmlns:cc="http://creativecommons.org/ns#"
   xmlns:rdf="http://www.w3.org/1999/02/22-rdf-syntax-ns#"
   xmlns:svg="http://www.w3.org/2000/svg"
   xmlns="http://www.w3.org/2000/svg"
   xmlns:sodipodi="http://sodipodi.sourceforge.net/DTD/sodipodi-0.dtd"
   xmlns:inkscape="http://www.inkscape.org/namespaces/inkscape"
   id="svg2"
   version="1.1"
   inkscape:version="0.91 r13725"
   width="216.8434"
   height="175.75342"
   viewBox="0 0 216.8434 175.75342"
   sodipodi:docname="logo.svg">
  <metadata
     id="metadata8">
    <rdf:RDF>
      <cc:Work
         rdf:about="">
        <dc:format>image/svg+xml</dc:format>
        <dc:type
           rdf:resource="http://purl.org/dc/dcmitype/StillImage" />
        <dc:title></dc:title>
      </cc:Work>
    </rdf:RDF>
  </metadata>
  <defs
     id="defs6" />
  <sodipodi:namedview
     pagecolor="#ffffff"
     bordercolor="#666666"
     borderopacity="1"
     objecttolerance="10"
     gridtolerance="10"
     guidetolerance="10"
     inkscape:pageopacity="0"
     inkscape:pageshadow="2"
     inkscape:window-width="640"
     inkscape:window-height="480"
     id="namedview4"
     showgrid="false"
     fit-margin-top="0"
     fit-margin-left="0"
     fit-margin-right="0"
     fit-margin-bottom="0"
     inkscape:zoom="2.0536546"
     inkscape:cx="108.34758"
     inkscape:cy="22.757835"
     inkscape:current-layer="svg2" />
  <path
     style="fill:none;stroke:#ce6200;stroke-width:4;stroke-linecap:round;stroke-linejoin:round;stroke-miterlimit:4;stroke-dasharray:none;stroke-opacity:1"
     d="m 2,2 0,57 0,57 15.5,0 15.5,0 0,-29.09375 0,-29.091797 10.08594,12.091797 C 48.63273,76.55764 53.3186,82 53.5,82 53.68141,82 58.36922,76.55764 63.91602,69.90625 L 74,57.814453 74,86.90625 74.00005,116 89.5,116 105.00005,116 105,59 105,2 93.51367,2 82.02735,2 68.08985,20.558594 C 60.42489,30.765224 53.85924,39.115234 53.5,39.115234 c -0.35923,0 -6.92292,-8.35001 -14.58789,-18.55664 L 24.97461,2 13.48828,2 Z"
     id="path4748"
     inkscape:connector-curvature="0" />
  <path
     style="fill:none;stroke:#ce6200;stroke-width:4.54662943;stroke-linecap:round;stroke-linejoin:round;stroke-miterlimit:4;stroke-dasharray:none;stroke-opacity:1"
     d="m 74.11683,122.71467 0,8.64435 -19.21418,0 14.35129,17.8481 10.11965,12.13655 10.45288,12.13655 10.45092,-12.13655 10.12161,-12.13655 14.35129,-17.8481 -19.52377,0 0,-8.64435 -15.40005,0 z"
     id="path4142"
     inkscape:connector-curvature="0"
     sodipodi:nodetypes="ccccccccccccc" />
  <path
     style="fill:none;stroke:#ce6200;stroke-width:4;stroke-linecap:round;stroke-linejoin:round;stroke-miterlimit:4;stroke-dasharray:none;stroke-opacity:1"
     d="m 111.8434,59.000611 0,-56.9999998 15.48466,0 15.48467,0 0.26533,28.5734998 0.26534,28.5735 9.80795,-11.59671 c 5.39437,-6.37818 10.20191,-11.35321 10.68344,-11.05562 0.48152,0.2976 5.06794,5.52547 10.19205,11.6175 l 9.31656,11.07641 0.26534,-28.59429 0.26533,-28.5942898 15.48467,0 15.48466,0 0,56.9999998 0,56.999999 -11.51995,0 -11.51994,0 -13.56478,-18.249999 c -7.46063,-10.0375 -13.89825,-18.59909 -14.30582,-19.02576 -0.40756,-0.42667 -7.10725,7.78583 -14.88819,18.25 l -14.14716,19.025759 -11.52708,0 -11.52708,0 z"
     id="path4138"
     inkscape:connector-curvature="0" />
</svg>
