<?xml version="1.0" encoding="UTF-8" standalone="no"?>
<!-- Created with Inkscape (http://www.inkscape.org/) -->

<svg
   xmlns:dc="http://purl.org/dc/elements/1.1/"
   xmlns:cc="http://creativecommons.org/ns#"
   xmlns:rdf="http://www.w3.org/1999/02/22-rdf-syntax-ns#"
   xmlns:svg="http://www.w3.org/2000/svg"
   xmlns="http://www.w3.org/2000/svg"
   xmlns:sodipodi="http://sodipodi.sourceforge.net/DTD/sodipodi-0.dtd"
   xmlns:inkscape="http://www.inkscape.org/namespaces/inkscape"
   id="svg2"
   version="1.1"
   inkscape:version="0.91 r13725"
   width="512"
   height="512"
   viewBox="0 0 512 512"
   sodipodi:docname="logo.svg">
  <metadata
     id="metadata8">
    <rdf:RDF>
      <cc:Work
         rdf:about="">
        <dc:format>image/svg+xml</dc:format>
        <dc:type
           rdf:resource="http://purl.org/dc/dcmitype/StillImage" />
        <dc:title></dc:title>
      </cc:Work>
    </rdf:RDF>
  </metadata>
  <defs
     id="defs6" />
  <sodipodi:namedview
     pagecolor="#ffffff"
     bordercolor="#666666"
     borderopacity="1"
     objecttolerance="10"
     gridtolerance="10"
     guidetolerance="10"
     inkscape:pageopacity="0"
     inkscape:pageshadow="2"
     inkscape:window-width="640"
     inkscape:window-height="480"
     id="namedview4"
     showgrid="false"
     fit-margin-top="0"
     fit-margin-left="0"
     fit-margin-right="0"
     fit-margin-bottom="0"
     inkscape:zoom="1.2682274"
     inkscape:cx="15.646213"
     inkscape:cy="213.34955"
     inkscape:current-layer="svg2" />
  <path
     style="fill:#ce6200;fill-opacity:1"
     d="m 203.2244,511.85078 c -60.01827,-1.2968 -121.688643,-6.5314 -192.436493,-16.334 -5.8078027,-0.8047 -10.66110747,-1.561 -10.78511762,-1.6806 -0.12404567,-0.1196 3.90488112,-4.5812 8.95313512,-9.9147 32.9484785,-34.8102 70.4314485,-73.8923 104.1521555,-108.5956 l 11.87611,-12.2221 5.48905,-10.2177 c 35.82801,-66.6927 75.13064,-128.5665 105.90637,-166.7277 6.13805,-7.611 10.21451,-12.0689 17.28719,-18.9048 36.6818,-35.4537 108.27279,-83.724003 206.0323,-138.917303 22.10365,-12.47935 51.93386,-28.64995037 52.26391,-28.33165037 0.38883,0.37499 -2.35932,25.95575037 -4.86585,45.29275037 -7.28943,56.236403 -17.04619,103.128903 -28.07642,134.939803 -7.19617,20.7536 -14.81287,35.152 -22.9667,43.4155 -3.60444,3.6529 -6.58328,5.7941 -10.1313,7.2825 l -2.56414,1.0756 -53.43164,0.1713 -53.43166,0.1713 3.69973,1.8547 c 26.78565,13.4282 52.58051,27.5241 59.57122,32.5533 4.48397,3.2259 4.41278,2.9854 1.59124,5.3784 -26.99514,22.8955 -74.52961,44.0013 -140.23089,62.2641 -26.34995,7.3244 -57.85469,14.6842 -86.99871,20.3237 l -10.26943,1.9871 -52.01052,53.2733 -52.010524,53.2732 -29.459801,15.1165 c -26.4100885,13.5517 -29.3446639,15.1388 -28.347645,15.3311 0.6117029,0.118 4.0894221,0.2188 7.7282726,0.2239 3.6388854,0.01 16.1273694,0.2329 27.7522124,0.5059 51.576376,1.2116 146.083985,1.512 170.154295,0.5409 34.66996,-1.3988 52.7606,-2.9325 67.58258,-5.7293 2.68664,-0.507 4.82907,-0.9755 4.76094,-1.0412 -0.0681,-0.066 -3.24733,-0.8833 -7.0649,-1.8169 -8.04133,-1.9664 -25.10167,-5.3107 -41.1231,-8.0612 -47.6405,-8.1787 -65.48708,-12.0107 -74.13028,-15.9169 -3.90548,-1.7651 -7.13816,-4.7659 -8.12937,-7.5463 -1.01822,-2.8562 -0.92214,-6.5271 0.23315,-8.9083 1.86563,-3.8451 6.14837,-6.7199 12.26745,-8.2345 16.96993,-4.2004 57.27977,-6.1832 90.36228,-4.4448 54.7332,2.8761 117.0767,13.1228 178.50212,29.3385 18.03514,4.7611 51.66065,14.656 51.22677,15.0744 -0.0824,0.08 -5.72762,-0.854 -12.54488,-2.0745 -40.1043,-7.18 -60.50854,-10.2888 -101.40822,-15.4507 -24.4851,-3.0902 -55.12614,-5.9915 -77.58876,-7.3465 -26.58826,-1.6039 -61.15821,-1.7754 -80.99202,-0.4019 l -3.19705,0.2214 8.70308,1.4934 c 51.89698,8.9047 77.51746,14.9877 88.00479,20.8948 6.9134,3.894 10.30497,9.4381 9.33333,15.2569 -1.50397,9.0066 -10.51381,14.0257 -32.00273,17.8278 -16.31374,2.8863 -47.27575,4.3845 -77.23553,3.7371 z"
     id="path4138" />
  <path
     style="fill:#ffffff;fill-opacity:1;stroke:none;stroke-opacity:1"
     d="m 214.76931,324.51908 c 60.83777,-14.1145 111.89562,-31.6251 144.40025,-49.5229 3.12602,-1.7213 5.81747,-3.2537 5.98106,-3.4054 0.40534,-0.3759 -13.76388,-7.9415 -34.63489,-18.4929 -7.52161,-3.8026 -9.82337,-5.3787 -12.0735,-8.2668 -5.14485,-6.6036 -5.96081,-14.8404 -2.20331,-22.2417 1.80288,-3.5512 5.69484,-7.3007 9.36158,-9.019 5.20851,-2.4407 1.18148,-2.2865 59.71223,-2.2865 l 52.81361,0 2.13233,-2.1984 c 2.78673,-2.8731 5.23414,-6.4981 8.23035,-12.1905 14.14966,-26.8827 26.71842,-78.3816 36.24347,-148.503303 0.76704,-5.6468 1.36194,-10.2983 1.32201,-10.3369 -0.0399,-0.038 -5.47754,2.9629 -12.08361,6.6697 l -12.01104,6.7396 -133.83068,137.037303 c -73.60688,75.3705 -134.81732,138.0567 -136.0232,139.3026 l -2.19251,2.2653 8.254,-1.8067 c 4.53969,-0.9937 12.01053,-2.6783 16.60185,-3.7435 z"
     id="path4136" />
  <path
     style="fill:#ffffff;fill-opacity:1;stroke:none;stroke-opacity:1"
     d="m 202.72524,284.43588 c 69.93294,-70.1332 135.4799,-131.9279 213.46406,-201.244203 7.71421,-6.8568 14.50542,-12.9341 15.09155,-13.5052 0.9482,-0.9239 0.96778,-0.9811 0.17761,-0.5188 -77.96496,45.611803 -139.23519,88.710503 -166.72539,117.278203 -18.81811,19.5556 -50.35654,64.861 -80.96704,116.3104 -0.91787,1.5427 1.02249,-0.3323 18.95921,-18.3204 z"
     id="path4142" />
  <path
     style="fill:#000000"
     d=""
     id="path4140"
     inkscape:connector-curvature="0" />
</svg>
