<?xml version="1.0" encoding="UTF-8" standalone="no" ?>
<!DOCTYPE svg PUBLIC "-//W3C//DTD SVG 1.1//EN" "http://www.w3.org/Graphics/SVG/1.1/DTD/svg11.dtd">
<svg xmlns="http://www.w3.org/2000/svg" xmlns:xlink="http://www.w3.org/1999/xlink" version="1.1" width="1280" height="1024" viewBox="0 0 1280 1024" xml:space="preserve">
<desc>Created with Fabric.js 3.6.3</desc>
<defs>
</defs>
<g transform="matrix(1.9692780337941629 0 0 1.9692780337941629 640.0153846153846 512.012312418764)" id="background-logo"  >
<rect style="stroke: none; stroke-width: 1; stroke-dasharray: none; stroke-linecap: butt; stroke-dashoffset: 0; stroke-linejoin: miter; stroke-miterlimit: 4; fill: rgb(255,255,255); fill-rule: nonzero; opacity: 1;"  paint-order="stroke"  x="-325" y="-260" rx="0" ry="0" width="650" height="520" />
</g>
<g transform="matrix(1.9692780337941629 0 0 1.9692780337941629 640.0170725174504 420.4016715831266)" id="logo-logo"  >
<g style=""  paint-order="stroke"   >
		<g transform="matrix(2.537 0 0 -2.537 -86.35385711719567 85.244912)"  >
<linearGradient id="SVGID_1_302284" gradientUnits="userSpaceOnUse" gradientTransform="matrix(-24.348526 -27.478867 -27.478867 24.348526 138.479 129.67187)"  x1="0" y1="0" x2="1" y2="0">
<stop offset="0%" style="stop-color:rgb(245,132,41);stop-opacity: 1"/>
<stop offset="100%" style="stop-color:rgb(251,173,23);stop-opacity: 1"/>
</linearGradient>
<path style="stroke: none; stroke-width: 1; stroke-dasharray: none; stroke-linecap: butt; stroke-dashoffset: 0; stroke-linejoin: miter; stroke-miterlimit: 4; fill: url(#SVGID_1_302284); fill-rule: nonzero; opacity: 1;"  paint-order="stroke"  transform=" translate(-127.92674550729492, -117.16399999999999)" d="m 118.951 124.648 c -9.395 -14.441 -5.243 -20.693 -5.243 -20.693 v 0 c 0 0 6.219 9.126 9.771 5.599 v 0 c 3.051 -3.023 -2.415 -8.668 -2.415 -8.668 v 0 c 0 0 33.24 13.698 17.995 28.872 v 0 c 0 0 -3.203 3.683 -7.932 3.684 v 0 c -3.46 0 -7.736 -1.97 -12.176 -8.794" stroke-linecap="round" />
</g>
		<g transform="matrix(2.537 0 0 -2.537 -84.52085711719567 70.2729119999999)"  >
<path style="stroke: none; stroke-width: 1; stroke-dasharray: none; stroke-linecap: butt; stroke-dashoffset: 0; stroke-linejoin: miter; stroke-miterlimit: 4; fill: rgb(250,220,153); fill-rule: nonzero; opacity: 1;"  paint-order="stroke"  transform=" translate(11.9895, -1.2609990716440347)" d="m 0 0 c 0 0 -6.501 6.719 -11.093 5.443 c -5.584 -1.545 -12.886 -12.078 -12.886 -12.078 c 0 0 5.98 16.932 15.29 15.731 C -1.19 8.127 0 0 0 0" stroke-linecap="round" />
</g>
		<g transform="matrix(2.537 0 0 -2.537 -22.327857117195663 48.729911999999956)"  >
<path style="stroke: none; stroke-width: 1; stroke-dasharray: none; stroke-linecap: butt; stroke-dashoffset: 0; stroke-linejoin: miter; stroke-miterlimit: 4; fill: rgb(201,158,82); fill-rule: nonzero; opacity: 1;"  paint-order="stroke"  transform=" translate(-4.189, -10.432)" d="m 0 0 l -0.87 16.89 l 3.995 3.974 l 6.123 -6.156 z" stroke-linecap="round" />
</g>
		<g transform="matrix(2.537 0 0 -2.537 -11.3118571171957 24.124911999999966)"  >
<path style="stroke: none; stroke-width: 1; stroke-dasharray: none; stroke-linecap: butt; stroke-dashoffset: 0; stroke-linejoin: miter; stroke-miterlimit: 4; fill: rgb(201,158,82); fill-rule: nonzero; opacity: 1;"  paint-order="stroke"  transform=" translate(4.0955, -2.037)" d="m 0 0 l -2.081 -2.069 l -6.11 6.143 l 2.081 2.069 z" stroke-linecap="round" />
</g>
		<g transform="matrix(2.537 0 0 -2.537 46.27614288280432 -57.96708800000005)"  >
<path style="stroke: none; stroke-width: 1; stroke-dasharray: none; stroke-linecap: butt; stroke-dashoffset: 0; stroke-linejoin: miter; stroke-miterlimit: 4; fill: rgb(217,170,93); fill-rule: nonzero; opacity: 1;"  paint-order="stroke"  transform=" translate(12.070999999999998, 9.599000000000004)" d="m 0 0 c -1.226 0.69 -2.81 0.523 -3.862 -0.524 c -1.275 -1.268 -1.28 -3.33 -0.013 -4.604 l -31.681 -31.501 l -6.11 6.143 c 19.224 19.305 25.369 35.582 25.369 35.582 c 15.857 2.364 27.851 8.624 33.821 12.335 z" stroke-linecap="round" />
</g>
		<g transform="matrix(2.537 0 0 -2.537 -26.842857117195706 8.501911999999976)"  >
<path style="stroke: none; stroke-width: 1; stroke-dasharray: none; stroke-linecap: butt; stroke-dashoffset: 0; stroke-linejoin: miter; stroke-miterlimit: 4; fill: rgb(217,170,93); fill-rule: nonzero; opacity: 1;"  paint-order="stroke"  transform=" translate(4.1075, -2.0525)" d="M 0 0 L -2.081 -2.069 L -8.215 4.11 L -6.141 6.174 Z" stroke-linecap="round" />
</g>
		<g transform="matrix(2.537 0 0 -2.537 -51.495857117195726 19.491911999999985)"  >
<path style="stroke: none; stroke-width: 1; stroke-dasharray: none; stroke-linecap: butt; stroke-dashoffset: 0; stroke-linejoin: miter; stroke-miterlimit: 4; fill: rgb(217,170,93); fill-rule: nonzero; opacity: 1;"  paint-order="stroke"  transform=" translate(10.434000000000001, -1.0939999999999994)" d="m 0 0 l -3.995 -3.974 l -16.873 0.96 l 14.752 9.176 z" stroke-linecap="round" />
</g>
		<g transform="matrix(2.537 0 0 -2.537 55.72014288280434 -48.441088000000036)"  >
<path style="stroke: none; stroke-width: 1; stroke-dasharray: none; stroke-linecap: butt; stroke-dashoffset: 0; stroke-linejoin: miter; stroke-miterlimit: 4; fill: rgb(201,158,82); fill-rule: nonzero; opacity: 1;"  paint-order="stroke"  transform=" translate(9.671499999999998, 11.999499999999998)" d="M 0 0 L 17.536 17.443 C 13.788 11.486 7.47 -0.468 5.021 -16.312 c 0 0 -15.526 -6.982 -35.765 -25.13 l -6.135 6.168 l 31.681 31.5 c 1.273 -1.28 3.33 -1.279 4.604 -0.012 C 0.435 -2.764 0.629 -1.223 0 0" stroke-linecap="round" />
</g>
</g>
</g>
<g transform="matrix(1.9692780337941629 0 0 1.9692780337941629 643.7363123827618 766.1975713477327)" id="text-logo-path"  >
<path style="stroke: none; stroke-width: 1; stroke-dasharray: none; stroke-linecap: butt; stroke-dashoffset: 0; stroke-linejoin: miter; stroke-miterlimit: 4; fill: rgb(247,149,33); fill-rule: nonzero; opacity: 1;"  paint-order="stroke"  transform=" translate(-186.83999999999997, 27.08)" d="M 4.47 -6.1 L 4.47 -6.1 L 4.47 -47.5 Q 4.47 -50.27 6.43 -52.23 Q 8.39 -54.19 11.16 -54.19 L 11.16 -54.19 Q 14.01 -54.19 15.95 -52.23 Q 17.89 -50.27 17.89 -47.5 L 17.89 -47.5 L 17.89 -30.09 L 34.95 -51.97 Q 35.74 -52.97 36.94 -53.58 Q 38.13 -54.19 39.42 -54.19 L 39.42 -54.19 Q 41.77 -54.19 43.42 -52.5 Q 45.07 -50.82 45.07 -48.5 L 45.07 -48.5 Q 45.07 -46.46 43.82 -44.93 L 43.82 -44.93 L 32.93 -31.44 L 46.8 -9.81 Q 47.84 -8.11 47.84 -6.27 L 47.84 -6.27 Q 47.84 -3.33 45.9 -1.39 Q 43.96 0.55 41.19 0.55 L 41.19 0.55 Q 39.42 0.55 37.89 -0.29 Q 36.37 -1.14 35.43 -2.57 L 35.43 -2.57 L 23.78 -21.15 L 17.89 -13.9 L 17.89 -6.1 Q 17.89 -3.33 15.93 -1.39 Q 13.97 0.55 11.16 0.55 L 11.16 0.55 Q 8.39 0.55 6.43 -1.39 Q 4.47 -3.33 4.47 -6.1 Z M 50.27 -19.24 L 50.27 -19.24 Q 50.27 -25.13 52.71 -29.78 Q 55.16 -34.43 59.7 -37.06 Q 64.24 -39.69 70.27 -39.69 L 70.27 -39.69 Q 76.37 -39.69 80.78 -37.09 Q 85.18 -34.49 87.43 -30.32 Q 89.69 -26.14 89.69 -21.6 L 89.69 -21.6 Q 89.69 -18.69 88.33 -17.26 Q 86.98 -15.84 83.86 -15.84 L 83.86 -15.84 L 62.89 -15.84 Q 63.23 -12.38 65.38 -10.31 Q 67.53 -8.25 70.86 -8.25 L 70.86 -8.25 Q 72.84 -8.25 74.19 -8.91 Q 75.54 -9.57 76.62 -10.64 L 76.62 -10.64 Q 77.62 -11.58 78.42 -12.03 Q 79.22 -12.48 80.43 -12.48 L 80.43 -12.48 Q 82.61 -12.48 84.19 -10.89 Q 85.77 -9.29 85.77 -7.04 L 85.77 -7.04 Q 85.77 -4.54 83.62 -2.77 L 83.62 -2.77 Q 81.71 -1.14 78.16 -0.03 Q 74.61 1.07 70.58 1.07 L 70.58 1.07 Q 64.76 1.07 60.13 -1.42 Q 55.5 -3.92 52.89 -8.53 Q 50.27 -13.14 50.27 -19.24 Z M 62.96 -23.57 L 62.96 -23.57 L 76.96 -23.57 Q 76.82 -26.97 74.93 -28.97 Q 73.05 -30.96 70.06 -30.96 L 70.06 -30.96 Q 67.08 -30.96 65.21 -28.97 Q 63.34 -26.97 62.96 -23.57 Z M 91.63 -19.24 L 91.63 -19.24 Q 91.63 -25.13 94.07 -29.78 Q 96.52 -34.43 101.06 -37.06 Q 105.6 -39.69 111.63 -39.69 L 111.63 -39.69 Q 117.73 -39.69 122.14 -37.09 Q 126.54 -34.49 128.79 -30.32 Q 131.04 -26.14 131.04 -21.6 L 131.04 -21.6 Q 131.04 -18.69 129.69 -17.26 Q 128.34 -15.84 125.22 -15.84 L 125.22 -15.84 L 104.25 -15.84 Q 104.59 -12.38 106.74 -10.31 Q 108.89 -8.25 112.22 -8.25 L 112.22 -8.25 Q 114.2 -8.25 115.55 -8.91 Q 116.9 -9.57 117.98 -10.64 L 117.98 -10.64 Q 118.98 -11.58 119.78 -12.03 Q 120.58 -12.48 121.79 -12.48 L 121.79 -12.48 Q 123.97 -12.48 125.55 -10.89 Q 127.13 -9.29 127.13 -7.04 L 127.13 -7.04 Q 127.13 -4.54 124.98 -2.77 L 124.98 -2.77 Q 123.07 -1.14 119.52 -0.03 Q 115.96 1.07 111.94 1.07 L 111.94 1.07 Q 106.12 1.07 101.49 -1.42 Q 96.86 -3.92 94.24 -8.53 Q 91.63 -13.14 91.63 -19.24 Z M 104.32 -23.57 L 104.32 -23.57 L 118.32 -23.57 Q 118.18 -26.97 116.29 -28.97 Q 114.4 -30.96 111.42 -30.96 L 111.42 -30.96 Q 108.44 -30.96 106.57 -28.97 Q 104.7 -26.97 104.32 -23.57 Z M 135.03 -6.03 L 135.03 -6.03 L 135.03 -33.14 Q 135.03 -35.64 136.85 -37.46 Q 138.67 -39.28 141.13 -39.28 L 141.13 -39.28 Q 143.7 -39.28 145.52 -37.46 Q 147.34 -35.64 147.34 -33.14 L 147.34 -33.14 L 147.34 -32.17 Q 148.97 -35.36 152.09 -37.42 Q 155.21 -39.49 159.82 -39.49 L 159.82 -39.49 Q 166.93 -39.49 170.19 -35.47 Q 173.44 -31.44 173.44 -24.44 L 173.44 -24.44 L 173.44 -6.03 Q 173.44 -3.33 171.5 -1.39 Q 169.56 0.55 166.86 0.55 L 166.86 0.55 Q 164.15 0.55 162.19 -1.39 Q 160.24 -3.33 160.24 -6.03 L 160.24 -6.03 L 160.24 -22.36 Q 160.24 -26.35 158.54 -27.91 Q 156.84 -29.47 154.65 -29.47 L 154.65 -29.47 Q 152.02 -29.47 150.13 -27.58 Q 148.24 -25.69 148.24 -20.73 L 148.24 -20.73 L 148.24 -6.03 Q 148.24 -3.33 146.3 -1.39 Q 144.36 0.55 141.65 0.55 L 141.65 0.55 Q 138.95 0.55 136.99 -1.39 Q 135.03 -3.33 135.03 -6.03 Z M 177.71 -47.56 L 177.71 -47.56 Q 177.71 -50.34 179.63 -52.26 Q 181.56 -54.19 184.23 -54.19 L 184.23 -54.19 Q 186.58 -54.19 188.39 -52.73 Q 190.19 -51.27 190.71 -48.99 L 190.71 -48.99 L 197.88 -15.12 L 206.52 -48.64 Q 207.07 -51.07 209.12 -52.63 Q 211.16 -54.19 213.69 -54.19 L 213.69 -54.19 Q 216.26 -54.19 218.25 -52.57 Q 220.25 -50.96 220.8 -48.64 L 220.8 -48.64 L 229.4 -15.39 L 236.64 -49.33 Q 237.06 -51.38 238.76 -52.78 Q 240.46 -54.19 242.61 -54.19 L 242.61 -54.19 Q 245.17 -54.19 246.94 -52.4 Q 248.71 -50.62 248.71 -48.05 L 248.71 -48.05 Q 248.71 -47.56 248.57 -46.73 L 248.57 -46.73 L 239.69 -7.38 Q 238.9 -3.99 236.11 -1.72 Q 233.32 0.55 229.68 0.55 L 229.68 0.55 Q 226.14 0.55 223.37 -1.61 Q 220.59 -3.78 219.73 -7.11 L 219.73 -7.11 L 213.07 -33.45 L 206.38 -7.11 Q 205.51 -3.71 202.79 -1.58 Q 200.07 0.55 196.53 0.55 L 196.53 0.55 Q 192.89 0.55 190.17 -1.72 Q 187.45 -3.99 186.65 -7.38 L 186.65 -7.38 L 177.85 -46.14 Q 177.71 -47.15 177.71 -47.56 Z M 253.35 -6.03 L 253.35 -6.03 L 253.35 -33.14 Q 253.35 -35.64 255.17 -37.46 Q 256.99 -39.28 259.46 -39.28 L 259.46 -39.28 Q 262.02 -39.28 263.84 -37.46 Q 265.66 -35.64 265.66 -33.14 L 265.66 -33.14 L 265.66 -31.44 L 265.94 -31.44 Q 266.8 -33.56 268.1 -35.24 Q 269.4 -36.92 270.69 -37.61 L 270.69 -37.61 Q 271.9 -38.24 273.46 -38.27 L 273.46 -38.27 Q 276.65 -38.27 278.14 -36.45 Q 279.63 -34.63 279.63 -32.52 L 279.63 -32.52 Q 279.63 -30.33 278.11 -28.62 Q 276.58 -26.9 274.08 -26.9 L 274.08 -26.9 Q 272.59 -26.9 271.07 -26.26 Q 269.54 -25.62 268.47 -24.34 L 268.47 -24.34 Q 266.56 -21.98 266.56 -17.68 L 266.56 -17.68 L 266.56 -6.03 Q 266.56 -3.33 264.62 -1.39 Q 262.68 0.55 259.98 0.55 L 259.98 0.55 Q 257.27 0.55 255.31 -1.39 Q 253.35 -3.33 253.35 -6.03 Z M 282.41 -49.71 L 282.41 -49.71 Q 282.41 -52 284.03 -53.61 Q 285.66 -55.23 287.95 -55.23 L 287.95 -55.23 L 291.21 -55.23 Q 293.5 -55.23 295.13 -53.6 Q 296.76 -51.97 296.76 -49.71 L 296.76 -49.71 Q 296.76 -47.43 295.11 -45.8 Q 293.46 -44.17 291.21 -44.17 L 291.21 -44.17 L 287.95 -44.17 Q 285.66 -44.17 284.03 -45.8 Q 282.41 -47.43 282.41 -49.71 Z M 282.96 -6.03 L 282.96 -6.03 L 282.96 -32.66 Q 282.96 -35.36 284.92 -37.32 Q 286.88 -39.28 289.58 -39.28 L 289.58 -39.28 Q 292.29 -39.28 294.23 -37.32 Q 296.17 -35.36 296.17 -32.66 L 296.17 -32.66 L 296.17 -6.03 Q 296.17 -3.33 294.21 -1.39 Q 292.25 0.55 289.58 0.55 L 289.58 0.55 Q 286.88 0.55 284.92 -1.39 Q 282.96 -3.33 282.96 -6.03 Z M 299.43 -34.29 L 299.43 -34.29 Q 299.43 -36.12 300.71 -37.41 Q 301.99 -38.69 303.76 -38.69 L 303.76 -38.69 L 306.19 -38.69 L 306.46 -43.96 Q 306.6 -46.32 308.34 -47.98 Q 310.07 -49.64 312.5 -49.64 L 312.5 -49.64 Q 314.99 -49.64 316.76 -47.86 Q 318.53 -46.07 318.53 -43.58 L 318.53 -43.58 L 318.53 -38.69 L 322.72 -38.69 Q 324.49 -38.69 325.77 -37.41 Q 327.06 -36.12 327.06 -34.36 L 327.06 -34.36 Q 327.06 -32.52 325.77 -31.24 Q 324.49 -29.95 322.72 -29.95 L 322.72 -29.95 L 318.81 -29.95 L 318.81 -14.14 Q 318.81 -11.23 320.05 -10.02 Q 321.3 -8.81 323.83 -8.81 L 323.83 -8.81 Q 325.46 -8.46 326.61 -7.14 Q 327.75 -5.82 327.75 -4.06 L 327.75 -4.06 Q 327.75 -2.57 326.94 -1.39 Q 326.12 -0.21 324.84 0.35 L 324.84 0.35 Q 322 0.83 318.11 0.87 L 318.11 0.87 Q 311.28 0.9 308.44 -2.5 L 308.44 -2.5 Q 305.67 -5.79 305.67 -12.65 L 305.67 -12.65 Q 305.67 -12.83 305.67 -13 L 305.67 -13 L 305.74 -29.95 L 303.76 -29.95 Q 301.99 -29.95 300.71 -31.24 Q 299.43 -32.52 299.43 -34.29 Z M 329.8 -19.24 L 329.8 -19.24 Q 329.8 -25.13 332.24 -29.78 Q 334.68 -34.43 339.23 -37.06 Q 343.77 -39.69 349.8 -39.69 L 349.8 -39.69 Q 355.9 -39.69 360.3 -37.09 Q 364.71 -34.49 366.96 -30.32 Q 369.21 -26.14 369.21 -21.6 L 369.21 -21.6 Q 369.21 -18.69 367.86 -17.26 Q 366.51 -15.84 363.39 -15.84 L 363.39 -15.84 L 342.42 -15.84 Q 342.76 -12.38 344.91 -10.31 Q 347.06 -8.25 350.39 -8.25 L 350.39 -8.25 Q 352.37 -8.25 353.72 -8.91 Q 355.07 -9.57 356.14 -10.64 L 356.14 -10.64 Q 357.15 -11.58 357.95 -12.03 Q 358.74 -12.48 359.96 -12.48 L 359.96 -12.48 Q 362.14 -12.48 363.72 -10.89 Q 365.3 -9.29 365.3 -7.04 L 365.3 -7.04 Q 365.3 -4.54 363.15 -2.77 L 363.15 -2.77 Q 361.24 -1.14 357.69 -0.03 Q 354.13 1.07 350.11 1.07 L 350.11 1.07 Q 344.29 1.07 339.66 -1.42 Q 335.03 -3.92 332.41 -8.53 Q 329.8 -13.14 329.8 -19.24 Z M 342.48 -23.57 L 342.48 -23.57 L 356.49 -23.57 Q 356.35 -26.97 354.46 -28.97 Q 352.57 -30.96 349.59 -30.96 L 349.59 -30.96 Q 346.61 -30.96 344.74 -28.97 Q 342.87 -26.97 342.48 -23.57 Z" stroke-linecap="round" />
</g>
</svg>