<svg height="64" width="57" xmlns="http://www.w3.org/2000/svg"><path d="M56.633 44.984V63.27c0 .363-.367.73-.735.73H1.102c-.368 0-.735-.367-.735-.73V61.62c0-.363.367-.73.735-.73h2.39l28.5-28.344L2.391 3.109c-.184-.183-.184-.367-.184-.55V.73c0-.363.367-.73.734-.73h52.957c.368 0 .735.367.735.73v18.106c0 .363-.367.73-.735.73h-2.023c-.367 0-.734-.367-.734-.73 0-7.684-4.598-14.082-12.688-14.082H19.121l24.09 24.137c.367.367.367.73 0 1.097L19.676 53.395h20.777c5.516 0 10.297-3.473 12.133-8.594.184-.367.367-.551.738-.551h2.758c.367 0 .55.367.55.734zm0 0" fill="#999"/></svg>