<svg height="64" width="67" xmlns="http://www.w3.org/2000/svg"><path d="M66.824 40.465c-.176 1.59-2.097 2.824-5.945 3.707-3.852.879-8.75 1.41-14.52 1.41h-4.898v9.172c1.574.176 3.324.176 4.898.176 5.77 0 10.668-.528 14.52-1.586 3.848-1.059 5.945-2.293 6.121-3.707-.176-.352-.176-9.172-.176-9.172zm-20.64-6.7c-1.75 0-3.325 0-4.899-.18v9.352h4.899c5.773 0 10.671-.53 14.52-1.59s5.944-2.292 5.944-3.702v-8.997c-.171 1.586-2.097 2.825-6.12 3.704-3.673 1.058-8.571 1.59-14.344 1.414zm0-11.468c-1.75 0-3.325 0-4.899-.176v9.352c1.574.175 3.324.175 4.899.175 5.773 0 10.671-.53 14.695-1.59C64.727 29 66.824 27.767 67 26.356V17.36c-.176 1.59-2.098 2.825-6.121 3.704-4.024.707-8.922 1.234-14.695 1.234zm0-13.05c-1.75 0-3.325 0-4.899.175v10.406c1.574.176 3.324.176 4.899.176 5.773 0 10.671-.527 14.695-1.586 3.848-1.059 5.945-2.293 6.121-3.703-.176-1.59-2.098-2.824-6.121-3.883-4.024-1.055-8.922-1.41-14.695-1.586zM18.02 23.886c-.176.527-.528 2.293-1.227 5.293l-1.223 5.113h5.07l-1.222-5.113c-.7-3-1.227-4.766-1.227-5.293zM0 7.129v49.918l37.785 6.527V.426zm23.09 37.219-1.399-5.645-6.996-.176-1.398 5.29-4.375-.352 6.648-23.813 5.07-.351 7.348 25.222zm0 0" fill="#999"/></svg>