<svg height="64" width="66" xmlns="http://www.w3.org/2000/svg"><path d="M40.266 62.762 34.922 45.55h-19.98l-5.34 17.21h-7.32L21.468 5.59h7.32l19.39 57.172zM26.813 19.438c-.594-2.176-1.387-5.145-1.583-7.32h-.199c-.394 1.98-.988 4.945-1.781 7.32L16.523 41H33.54zm33.039-9.891c-2.375 0-4.356-1.781-4.356-4.156s1.98-4.153 4.356-4.153c2.37 0 4.351 1.778 4.351 4.153 0 2.375-1.98 4.156-4.351 4.156zm-3.563 53.215V18.05h7.32v44.71zm0 0" fill="#fea500" stroke="#fea500" stroke-miterlimit="10" stroke-width="2.47295"/></svg>