<svg height="64" width="53" xmlns="http://www.w3.org/2000/svg"><path d="M49.023.375H3.977C1.703.375 0 2.07 0 4.328 0 6.59 1.703 8.281 3.977 8.281h.187v3.953c0 8.286 5.11 15.625 12.684 18.637.379.188.757.563.757.942v.375c0 .378-.378.753-.757.94C9.086 36.142 3.977 43.48 4.164 51.767v3.953h-.187C1.703 55.719 0 57.41 0 59.672c0 2.258 1.703 3.953 3.977 3.953h45.046c2.274 0 3.977-1.695 3.977-3.953 0-2.262-1.703-3.953-3.977-3.953h-.187v-3.953c0-8.286-5.11-15.625-12.684-18.637-.379-.188-.757-.563-.757-.941v-.376c0-.378.378-.753.757-.94 7.762-3.013 12.871-10.352 12.684-18.638V8.281h.187C51.297 8.281 53 6.59 53 4.328 53 2.07 51.297.375 49.023.375zm-5.488 11.86c0 6.023-3.785 11.484-9.465 13.742-2.46.941-4.164 3.199-4.164 5.836v.375c0 2.636 1.703 4.894 4.164 5.835 5.68 2.258 9.465 7.72 9.465 13.743v3.953H9.465v-3.953c0-6.024 3.785-11.485 9.465-13.743 2.46-.941 4.164-3.199 4.164-5.836v-.374c0-2.637-1.703-4.895-4.164-5.836-5.68-2.258-9.465-7.72-9.465-13.743V8.281h34.07zm-28.77 6.777c-.378-.567-.19-1.317.38-1.696.187-.187.375-.187.753-.187H37.29c.566 0 1.137.566 1.137 1.129 0 .187 0 .566-.192.754-1.324 1.883-3.027 3.199-5.109 3.953-2.27.754-3.977 2.445-5.11 4.515-.378.754-1.328 1.133-2.081.567-.192-.188-.57-.375-.57-.567-1.134-2.07-2.84-3.761-5.11-4.515-2.274-.942-4.164-2.258-5.488-3.953zM29.907 42.73a6.64 6.64 0 0 0 4.164 1.504c2.84 0 5.301 1.883 5.868 4.707v.188c.19.566.19 1.129.19 1.883s-.565 1.316-1.323 1.316H14.008c-.758 0-1.324-.562-1.324-1.316 0-.567.187-1.317.187-1.883v-.188c.758-2.636 3.219-4.52 6.059-4.52a6.64 6.64 0 0 0 4.164-1.503c.758-.754 1.511-1.508 1.89-2.45.38-.562.95-.937 1.703-.75.57.188.95.376 1.137.75.57.755 1.137 1.509 2.082 2.262zm0 0" fill="#8ed200"/></svg>