<svg height="64" width="54" xmlns="http://www.w3.org/2000/svg"><path d="M10.867 48.152c0 1.551 1.04 2.582 2.602 2.582h2.773v9.305c0 2.066 1.91 3.961 3.992 3.961s3.989-1.895 3.989-3.96v-9.306h5.379v9.305c0 2.066 1.91 3.961 3.992 3.961s3.988-1.895 3.988-3.96v-9.306h2.602c1.562 0 2.605-1.03 2.605-2.757V21.449H10.867zM4.097 21.45C2.017 21.45.11 23.344.11 25.41v18.606c0 2.066 1.907 3.96 3.989 3.96s3.992-1.894 3.992-3.96V25.41c0-2.066-1.735-3.96-3.992-3.96zm45.805 0c-2.082 0-3.992 1.895-3.992 3.961v18.606c0 2.066 1.91 3.96 3.992 3.96s3.989-1.894 3.989-3.96V25.41c0-2.066-1.907-3.96-3.989-3.96zM36.367 5.945l3.473-3.449c.52-.516.52-1.375 0-1.894a1.373 1.373 0 0 0-1.91 0L33.94 4.566c-1.91-1.379-4.34-1.894-6.941-1.894-2.777 0-5.031.515-7.285 1.55L15.898.259c-.523-.344-1.562-.344-2.082 0-.347.515-.347 1.55 0 2.066l3.47 3.446c-3.817 2.93-6.419 7.41-6.419 12.75h32.266c0-5.168-2.602-9.82-6.766-12.575zm-14.746 7.407h-2.773v-2.586h2.773zm13.531 0H32.38v-2.586h2.773zm0 0" fill="#a4ca39"/></svg>