<svg height="64" width="64" xmlns="http://www.w3.org/2000/svg"><path d="M62.887 38.266c-2.684-.84-4.532-3.36-4.532-6.215 0-2.852 1.848-5.371 4.532-6.211.84-.336 1.343-1.172 1.008-2.012-.84-3.023-1.848-5.707-3.524-8.394-.504-.84-1.344-1.008-2.184-.672-1.007.504-2.015.84-3.19.84-3.692 0-6.548-3.024-6.548-6.547 0-1.176.336-2.184.84-3.188.504-.84.168-1.68-.672-2.183a40.47 40.47 0 0 0-8.39-3.528c-.84-.168-1.68.168-2.016 1.008C37.37 3.852 34.855 5.7 32 5.7s-5.371-1.847-6.21-4.535C25.452.324 24.612-.18 23.772.156c-3.02.84-5.707 1.848-8.39 3.528-.84.503-1.008 1.343-.672 2.183.504 1.004.84 2.012.84 3.188 0 3.691-3.024 6.547-6.547 6.547-1.176 0-2.184-.336-3.191-.84-.84-.504-1.68-.168-2.184.672a40.699 40.699 0 0 0-3.524 8.394c-.167.84.168 1.676 1.008 2.012 2.684.84 4.532 3.36 4.532 6.21 0 2.856-1.848 5.376-4.532 6.216-.84.332-1.343 1.172-1.008 2.011.84 3.024 1.848 5.707 3.524 8.395.504.84 1.344 1.008 2.184.672 1.007-.504 2.015-.84 3.19-.84 3.692 0 6.548 3.02 6.548 6.547 0 1.176-.336 2.183-.84 3.187-.504.84-.168 1.68.672 2.184a40.47 40.47 0 0 0 8.39 3.527h.336c.672 0 1.344-.504 1.512-1.176.84-2.687 3.356-4.535 6.211-4.535s5.371 1.848 6.211 4.535c.336.84 1.176 1.344 2.016 1.008 3.02-.84 5.707-1.847 8.39-3.527.84-.504 1.008-1.344.672-2.184-.504-1.004-.84-2.011-.84-3.187 0-3.692 3.024-6.547 6.547-6.547 1.176 0 2.184.336 3.192.84.84.504 1.68.168 2.183-.672a40.698 40.698 0 0 0 3.524-8.395c.503-.672 0-1.511-.84-1.843zm-30.719 3.691c-5.371 0-9.902-4.363-9.902-9.906 0-5.371 4.363-9.903 9.902-9.903 5.371 0 9.902 4.364 9.902 9.903 0 5.375-4.53 9.906-9.902 9.906zm0 0"/></svg>