<svg height="64" width="68" xmlns="http://www.w3.org/2000/svg"><g fill="#999"><path d="M51.6 33H28.3c-3.2 0-5.9 2.601-5.9 5.9v26.3h-5.9c0 3.2 2.599 5.9 5.9 5.9h23.4c3.2 0 5.9-2.601 5.9-5.9V41.7h5.9v-2.9a5.98 5.98 0 0 0-6-5.8zm-2.9 31.6c0 1.9-1.5 3.4-3.4 3.4H23.9c1.399-1 1.399-2.9 1.399-2.9V38.9c0-1.6 1.3-2.9 2.902-2.9 1.598 0 2.899 1.3 2.899 2.9v2.901h17.6zM34.1 38.9V36h17.6c2.7 0 2.9 1.7 2.9 2.9zm0 0" stroke="#999" stroke-miterlimit="10" stroke-width=".75" transform="matrix(1.62485 0 0 1.6469 -26.2 -53.722)"/><path d="M28.719 46.082c-.489-.332-.973-.824-1.461-1.32-.488-.492-.813-1.153-1.137-1.645-.812-1.316-1.625-2.637-1.953-4.117-.484-1.648-.813-3.293-.813-4.941 0-1.813.329-3.293 1.141-4.61.484-.988 1.297-1.976 2.438-2.472a5.777 5.777 0 0 1 3.246-.989c.328 0 .812 0 1.3.164.325.164.653.164 1.137.496.653.164.977.329 1.14.493.325.164.65.164.973.164.165 0 .489 0 .653-.164.16 0 .484-.164.972-.328s.813-.329 1.137-.329c.488-.168.813-.168 1.137-.332.488 0 .812-.164 1.3 0 .813 0 1.466.164 2.278.496 1.137.493 2.11 1.153 2.762 2.305-.324.164-.489.328-.813.66-.488.492-.976 1.153-1.465 1.645-.484.824-.812 1.812-.648 2.965 0 1.316.324 2.304.977 3.293.484.66.972 1.32 1.785 1.812l.976.496c-.164.492-.324.82-.488 1.317-.324.988-.813 1.812-1.461 2.632-.488.66-.812 1.32-1.14 1.649l-1.297 1.316a3.095 3.095 0 0 1-1.625.496c-.329 0-.813 0-1.141-.164-.324-.164-.649-.164-.973-.332-.324-.164-.648-.328-.976-.328-.485-.164-.813-.164-1.297-.164-.488 0-.977 0-1.301.164-.324.164-.652.164-.977.328-.488.168-.812.332-.972.332-.328.164-.813.164-1.14.164-1.298-.66-1.786-.824-2.274-1.152zm7.636-21.246c-.812.328-1.46.492-2.273.492-.164-.656 0-1.48.324-2.305.324-.656.649-1.316 1.137-1.976a5.093 5.093 0 0 1 1.789-1.48c.813-.329 1.461-.66 2.11-.66.163.823 0 1.484-.325 2.304-.324.66-.648 1.484-1.137 1.977-.324.824-.812 1.32-1.625 1.648zm0 0"/></g></svg>