<svg height="64" width="72" xmlns="http://www.w3.org/2000/svg"><filter id="a" height="100%" width="100%" x="0%" y="0%"><feColorMatrix in="SourceGraphic" values="0 0 0 0 1 0 0 0 0 1 0 0 0 0 1 0 0 0 1 0"/></filter><mask id="c"><g filter="url(#a)"><path d="M0 0h72v64H0z" fill-opacity=".65"/></g></mask><clipPath id="b"><path d="M0 0h72v64H0z"/></clipPath><g clip-path="url(#b)" mask="url(#c)"><path d="M25.281.082h4.356l.168.168c1.34.34 2.843.508 4.183 1.18 4.524 1.855 7.203 5.39 8.875 9.937 0 .168.168.508.336.676 1.004.336 2.008.504 3.016.84l.164-.168c2.68-5.39 7.035-8.422 12.894-9.43 1.508-.34 3.016-.172 4.524.336-.168.168-.168.336-.336.336-2.012 2.191-3.516 4.547-3.852 7.41-.168 1.012-.336 1.852-.504 2.863-.5 2.528-1.34 5.055-3.347 6.907C53.246 23.497 50.062 24 46.883 24c-.168 0-.504-.168-.504-.504-.332-.508-.5-1.012-.668-1.687-2.176.507-2.848 1.011-3.016 2.863.672 0 1.34.172 2.012.172 5.691.672 11.387 1.515 16.91 2.691 2.68.676 5.192 1.348 7.703 2.528 1.34.675 2.012 1.683 2.344 3.199 0 .34.168.675.336.843v2.02c-.168.168-.168.508-.336.676-.332 1.011-.836 1.851-1.672 2.527-1.008.84-2.18 1.176-3.52 1.348.337 1.683-.667 2.691-1.84 3.367-.835.504-1.675.84-2.51 1.012-1.34.168-2.513 0-3.852 0-1.004 1.851-2.68 2.187-4.52 2.355-1.844.168-3.52-.336-5.023-1.347-.672.843-1.34 1.347-2.512 1.347-2.012.336-3.684-.168-5.36-.84l-.167-.168.167.168c1.172 2.188 2.344 4.211 3.348 6.399.336.676.336 1.683.336 2.36 0 1.515-.836 2.523-2.008 2.862-.168 1.18-.84 2.188-1.676 2.864-1.171.84-2.511 1.007-4.02 1.007-.167 0-.667-.167-.667 0-.672 1.012-1.844 1.348-2.848 1.856h-1.507c-1.004-.168-1.84-1.18-3.016-.34-.164.172-.5.172-.668.172-1.172 0-3.348-.676-3.852-2.36s-1.34-3.538-2.007-5.222l-.168.168c-1.508 3.035-4.856 4.21-8.04 2.695a14.392 14.392 0 0 1-4.351-3.367C1.67 46.402-1.508 35.621.668 23.496 2.676 12.043 11.551 3.286 22.77.926 23.44.422 24.445.25 25.28.082zm13.73 19.035c1.676.168 3.52.168 5.192-.676 1.508-.671 3.184-.671 4.688-.504 1.007.168 2.18.504 3.183.672-.504-.504-1.004-1.011-1.676-1.347-2.68-2.02-5.691-3.367-9.207-3.703-.336 0-.84 0-.84.168-1.003 1.515-1.671 3.03-1.671 4.882-.168 1.18.164 2.36.668 3.371 1.843-.843 3.851-1.687 5.691-2.527v-.508c-1.004.172-1.84.508-2.844.676-1.172.168-2.343.336-3.183-.504zM56.427 7.664c-2.176 2.356-3.684 5.05-5.024 7.746l3.684 3.2c1.176-1.516 1.508-3.2 2.012-4.883.668-3.032.836-6.235 3.18-8.59-4.352-.168-10.715 4.379-12.055 8.422l2.175 1.175c.168-.168.168-.504.336-.671.668-1.18 1.34-2.36 2.176-3.368 1.004-1.18 2.012-2.36 3.516-3.03zm-7.867 24.59c1.34.168 2.68.336 4.015.336l12.395 1.347c.668 0 1.172.168 1.84.168-.336-1.011-.836-1.851-1.676-2.19-.836-.337-1.84-.505-2.676-.84-3.684-.677-7.203-1.516-10.887-2.192-3.515-.504-7.199-.84-10.715-1.348-.167 0-.503 0-.671.172l-2.008 2.02c-3.684 2.695-7.703 3.367-12.055 3.367a25.933 25.933 0 0 0 3.348-1.18c3.515-1.344 6.531-3.2 8.707-6.23.336-.504.336-.84.168-1.348a12.356 12.356 0 0 1-1.508-5.895c0-2.527.836-4.714 2.68-6.566.336-.34.336-.676.168-1.012-1.172-2.695-2.848-4.715-5.36-6.234-3.015-1.852-6.363-2.02-9.543-1.516-7.535 1.18-13.23 5.055-17.25 11.285-3.683 5.895-4.855 12.297-4.015 19.204.332 2.187.836 4.21 1.84 6.062.167.504.335 1.012.671 1.516 4.52 8.254 11.551 12.968 20.93 13.64 5.527.34 10.383-2.695 12.055-7.914.336-1.18.84-2.36.168-3.539 1.172 1.012 2.68 1.516 4.355 1.688 1.672.168 3.012-.34 3.684-1.688.168 0 .332.172.5.172 1.34.672 2.68.84 4.187.672 1.844-.168 2.68-1.012 2.848-2.695.836.168 1.84.336 2.68.168 2.675 0 3.851-1.516 3.347-3.704 1.004 0 2.176 0 3.18-.167 1.008-.172 2.012-.676 2.68-1.856l-10.047-2.02-10.047-2.023c-.332.34 2.012.34 2.012.34zm-1.676-13.645c.336 1.012.504 1.852.668 2.696.168.504.336.504.84.504 1.672-.168 3.18-.504 4.52-1.176.167-.172.335-.172.839-.508l-4.02-1.008-.503.84h-.168v-1.012zm0 0" fill="#543828"/><path d="M5.02 40c-1.004-1.852-1.504-4.043-1.84-6.063-1.004-6.906.168-13.304 4.02-19.203 4.015-6.398 9.878-10.273 17.245-11.28 3.348-.509 6.532-.34 9.543 1.515 2.512 1.515 4.188 3.535 5.36 6.23.168.336.168.676-.168 1.012-1.672 1.851-2.512 4.043-2.68 6.566 0 2.024.504 4.043 1.508 5.895.336.508.168.844-.168 1.348-2.176 3.03-5.192 5.054-8.707 6.234-1.004.336-2.176.672-3.348 1.176 4.352 0 8.54-.672 12.055-3.368-.836 1.348-1.34 2.696-2.344 3.875-4.351 5.727-10.047 8.254-17.414 6.231-.668-.168-1.34-.336-2.008.336l-1.008.508c-3.18.84-6.695.504-10.046-1.012zm22.605-29.813c-3.516 0-6.195 2.696-6.195 6.403 0 3.367 2.847 6.23 6.363 6.23s6.195-2.863 6.195-6.398c0-3.54-2.843-6.402-6.363-6.235zm0 0" fill="#e95927"/><path d="M5.02 40c3.351 1.516 6.867 1.684 10.382.676.336-.172.836-.172 1.004-.508.672-.504 1.34-.504 2.012-.336 7.367 2.02 13.059-.504 17.414-6.23.836-1.18 1.508-2.528 2.344-3.875l2.008-2.02c.168-.172.504-.172.671-.172 3.516.508 7.2.844 10.715 1.348 3.684.676 7.203 1.347 10.887 2.191-.168 0-.336.168-.336.168-4.523.336-9.043.672-13.394 1.012h-2.348l10.047 2.02c-.164.335-.164 1.011-.332 1.18-.504.503-1.172 1.01-1.844 1.179-.836.168-1.676 0-2.512 0 .168.84 0 1.683-.668 2.355-.504.34-1.007.844-1.675 1.012-1.508.676-3.016.676-4.52-.168-.336 1.516-1.676 2.02-2.848 2.188-1.34.171-2.511 0-3.683-.84l-.168.168 1.004 2.359c.672 1.176.168 2.355-.168 3.535-1.672 5.223-6.528 8.422-12.055 7.918-9.379-.676-16.41-5.39-20.93-13.644-.672-.504-.84-1.012-1.007-1.516zm0 0" fill="#fbcd00"/><path d="M51.402 36.8c.84 0 1.844.169 2.512 0 .672-.167 1.34-.675 1.844-1.179.336-.168.336-.844.336-1.18l10.047 2.024c-.672 1.008-1.508 1.683-2.68 1.851-1.004.168-2.176.168-3.184.168.504 2.192-.668 3.707-3.347 3.707-.836 0-1.844-.171-2.68-.171-.168 1.687-1.004 2.527-2.848 2.695-1.504.168-2.843 0-4.183-.672 0-.336-.168-.336-.336-.336-.668 1.348-2.008 1.852-3.684 1.684s-3.015-.676-4.355-1.684l-1.004-2.36.168-.167c1.172.84 2.344 1.18 3.683.84 1.34-.168 2.512-.672 2.848-2.188 1.508.844 3.012.844 4.52.168.504-.168 1.171-.672 1.675-1.012.668-.504.836-1.347.668-2.187zm0 0" fill="#3daf00"/><path d="M56.426 7.664c-1.504.672-2.676 1.852-3.684 3.2-.836 1.011-1.504 2.187-2.176 3.366-.168.168-.168.336-.336.676l-2.175-1.18c1.34-4.21 7.703-8.59 12.054-8.421-2.343 2.527-2.343 5.726-3.18 8.59-.335 1.683-.835 3.367-2.007 4.882l-3.684-3.199c1.504-2.863 3.18-5.558 5.188-7.914.336-.172 0 0 0 0zm0 0" fill="#25a7f0"/><path d="M38.68 18.777c0-1.851.5-3.535 1.672-4.882.168-.168.671-.168.84-.168 3.515.168 6.359 1.683 9.206 3.703.504.34 1.172.843 1.676 1.347-1.004-.168-2.176-.504-3.183-.672-1.672-.335-3.18-.167-4.688.504-1.672.676-3.348.676-5.191.676zm0 0" fill="#cbcbca"/><path d="M48.559 32.254c4.52-.34 9.039-.676 13.394-1.012.168 0 .336 0 .336-.168.836.336 1.84.504 2.68.84 1.004.34 1.34 1.18 1.672 2.191-.668 0-1.34-.167-1.84-.167l-12.227-1.18zm0 0" fill="#3eae00"/><path d="m46.883 18.61 2.176.335v1.012h.168l.503-1.012 4.02 1.012c-.336.168-.504.336-.84.504-1.508.676-3.012 1.012-4.52 1.18-.335 0-.671 0-.84-.504-.163-.676-.5-1.516-.667-2.528zm0 0" fill="#25a5ec"/><path d="m38.68 18.777.164.34c1.008.84 2.18.84 3.183.672 1.004-.168 1.84-.504 2.848-.672v.504l-5.695 2.527c-.168-1.011-.5-2.191-.5-3.37zm0 0" fill="#c9c8c7"/><path d="M27.625 10.188c3.52 0 6.363 2.695 6.363 6.234 0 3.535-2.843 6.398-6.195 6.398-3.348 0-6.363-2.863-6.363-6.23 0-3.707 2.68-6.403 6.195-6.403zm3.684 6.234c0-2.192-1.672-3.875-3.684-3.875-2.008 0-3.684 1.683-3.852 3.875 0 2.02 1.676 3.871 3.688 3.871 2.344-.168 3.848-1.684 3.848-3.871zm0 0" fill="#fbcb00"/><path d="M56.426 7.664c.168.168 0 0 0 0zm0 0" fill="#543828"/><path d="M31.309 16.422c0 2.187-1.672 3.703-3.848 3.703-2.18 0-3.852-1.684-3.688-3.871 0-2.024 1.676-3.875 3.852-3.875 2.18.168 3.684 1.851 3.684 4.043zm-3.684-.168a8.37 8.37 0 0 0 1.844-.676c.668-.336.668-1.18 0-1.683-.836-.676-2.68-.676-3.516 0-.672.503-.672 1.347 0 1.683.5.336 1.004.504 1.672.676zm0 0" fill="#553928"/><path d="M27.625 16.254c-.668-.172-1.172-.34-1.672-.676-.672-.336-.672-1.18 0-1.683.836-.676 2.68-.676 3.516 0 .668.503.668 1.347 0 1.683a8.37 8.37 0 0 1-1.844.676zm0 0" fill="#fff"/></g></svg>