<svg height="64" width="52" xmlns="http://www.w3.org/2000/svg"><path d="M47.734 32c8.914 12.195 3.325 28-11.785 31.46C28.695 52.927 40.33 43.59 47.734 32zM8.45 60.3l.453.302a18.118 18.118 0 0 0 9.215 3.011c-2.867-5.87-2.265-12.945 1.363-18.367l10.575-15.355c5.742-8.578 3.476-20.32-5.137-26.043l-.605-.45A18.106 18.106 0 0 0 15.098.387c2.87 6.02 2.265 12.945-1.36 18.367L3.16 34.109c-5.742 8.73-3.472 20.473 5.29 26.192zm27.047-17.76s3.02-4.067 4.531-6.474l4.383-6.476c5.438-7.977-4.082-14.3-5.289-14.45 1.207 2.407 0 7.376-1.512 9.786l-4.382 6.472c-2.414 3.762-1.508 8.73 2.27 11.141zm0 0" fill="#bababa"/></svg>