<svg height="63" width="54" xmlns="http://www.w3.org/2000/svg"><path d="M53.344 18.172H44.02V8.965zM28.309 8.965v33.437h25.199V20.434H41.727V8.964zm3.93-8.723H4.417v6.461h10.965l-6.875 5.332v5.652l10.148-7.753V6.867H54V4.281zM18.655 14.297 8.508 22.05v5.652l10.148-7.754zM8.344 37.559l10.148-7.754v-5.657L8.344 31.902zm10.312 2.261v-5.656L8.508 41.918v2.91h-4.09v6.461h6.219v4.523H7.035c-.652-1.132-1.797-1.937-3.273-1.937C1.637 53.875 0 55.488 0 57.59c0 2.097 1.637 3.715 3.762 3.715 1.476 0 2.62-.809 3.273-1.938h3.602v3.39h5.562v-3.39h3.602c.652 1.13 1.8 1.938 3.273 1.938 2.125 0 3.762-1.618 3.762-3.715 0-2.102-1.637-3.715-3.762-3.715-1.472 0-2.62.805-3.273 1.938h-3.602v-4.524h15.875l21.762-3.879v-2.582H11.78zm0 0" fill="#4d1b9b"/></svg>