<svg height="63" width="57" xmlns="http://www.w3.org/2000/svg"><path d="M33.325 19.55c-.498-.2-1.1 0-1.299.5-1.1 2.5-2.901 4.7-5.1 6.4l-6.7-13.601c1-.8 1.6-1.999 1.6-3.4 0-2.099-1.501-3.899-3.501-4.3v-3.4a1 1 0 0 0-2 0v3.4c-2 .401-3.5 2.201-3.5 4.3 0 1.401.6 2.6 1.601 3.4l-6.7 13.602c-2.201-1.7-4-3.801-5.1-6.401-.201-.5-.8-.7-1.301-.5-.499.199-.7.8-.499 1.3 1.299 3 3.4 5.4 6 7.3l-4 8c-.2.5 0 1.1.4 1.3.098 0 .3.1.4.1.3 0 .7-.2.9-.5l3.8-7.8c2.7 1.5 5.6 2.2 8.7 2.2 3.1 0 6-.8 8.699-2.2l3.8 7.8c.1.3.501.5.9.5.1 0 .3 0 .4-.1.5-.2.7-.8.4-1.3l-3.9-8c2.6-1.8 4.701-4.4 6-7.3.6-.5.401-1.101 0-1.3zM17.326 6.95c1.4 0 2.5 1.1 2.5 2.499 0 1.401-1.1 2.502-2.5 2.502s-2.5-1.1-2.5-2.502c0-1.4 1.199-2.5 2.5-2.5zm0 22.6c-2.8 0-5.4-.7-7.801-2l6.8-13.7c.3.1.701.1 1.1.1.402 0 .701 0 1.1-.1l6.8 13.7c-2.5 1.3-5.199 2-7.999 2zm0 0" fill="#369" stroke="#369" stroke-miterlimit="10" stroke-width="1.5" transform="matrix(1.6544 0 0 1.63607 0 .154)"/></svg>