<svg height="64" width="67" xmlns="http://www.w3.org/2000/svg"><path d="M5.102 59.219v-10.11h11.605v10.11zm14.066 0v-10.11h12.836v10.11zM5.102 46.805V35.457h11.605v11.348zm14.066 0V35.457h12.836v11.348zM5.102 33.152V23.047h11.605v10.105zM34.645 59.22v-10.11H47.48v10.11zM19.168 33.152V23.047h12.836v10.105zm30.95 26.067v-10.11h11.605v10.11zM34.644 46.805V35.457H47.48v11.348zm-14.07-30.496c0 .53-.528 1.062-1.231 1.062h-2.637c-.703 0-1.23-.531-1.23-1.062V6.203c0-.535.527-1.066 1.23-1.066h2.461c.703 0 1.23.531 1.23 1.066V16.31zm29.542 30.496V35.457h11.606v11.348zM34.645 33.152V23.047H47.48v10.105zm15.472 0V23.047h11.606v10.105zm1.406-16.843c0 .53-.527 1.062-1.23 1.062h-2.637c-.703 0-1.23-.531-1.23-1.062V6.203c0-.535.527-1.066 1.23-1.066h2.637c.703 0 1.23.531 1.23 1.066zM67 14.004c0-2.484-2.285-4.434-5.102-4.434h-5.097V6.203c0-3.016-2.813-5.676-6.508-5.676h-2.637c-3.515 0-6.508 2.48-6.508 5.676V9.57H25.676V6.203c0-3.016-2.817-5.676-6.508-5.676h-2.637c-3.52 0-6.508 2.48-6.508 5.676V9.57H5.102C2.285 9.57 0 11.7 0 14.004v45.035c0 2.484 2.285 4.434 5.102 4.434h56.62c2.817 0 5.102-2.13 5.102-4.434V14.004zm0 0" fill="#111"/></svg>