<svg height="64" width="67" xmlns="http://www.w3.org/2000/svg"><path d="M43.195 53.328v-24l13.93-2.308C55.008 15.11 44.605 6.043 32.09 6.043c-14.106 0-25.563 11.555-25.563 25.773 0 14.223 11.457 25.778 25.563 25.778 1.41 0 2.644-.18 4.055-.356 1.058-1.777 2.82-3.023 5.113-3.734.703-.176 1.41-.176 1.937-.176zM36.848 8.176l-2.82 12.09h-2.645l-1.938-12.09c2.82-1.422 7.403 0 7.403 0zM32.09 41.418c-5.29 0-9.52-4.266-9.52-9.602 0-5.332 4.23-9.597 9.52-9.597 5.289 0 9.52 4.265 9.52 9.597 0 5.336-4.231 9.602-9.52 9.602zm0-16.887c-4.055 0-7.227 3.2-7.227 7.285 0 4.09 3.172 7.29 7.227 7.29s7.226-3.2 7.226-7.29c0-4.086-3.171-7.285-7.226-7.285zm0 12.442c-2.82 0-5.113-2.309-5.113-5.157 0-2.843 2.293-5.152 5.113-5.152 2.82 0 5.113 2.309 5.113 5.152.176 2.848-2.293 5.157-5.113 5.157zm3.347 24.707c.18.71.356 1.246.708 1.957-1.41.175-2.645.355-4.055.355C14.637 63.992.355 49.594.355 31.996S14.637 0 32.09 0c15.512 0 28.558 11.375 31.203 26.129l-2.996.535C57.828 13.332 46.19 3.024 32.09 3.024 16.398 3.023 3.53 15.995 3.53 31.815c0 15.82 12.867 28.797 28.559 28.797 1.058 0 2.117 0 3.172-.175 0 .355 0 .886.175 1.242zm31.208-33.95v27.73c0 2.31-1.766 4.087-4.41 4.798-2.82.71-5.641-.531-6.344-2.664-.532-2.313 1.41-4.621 4.23-5.332 1.234-.356 2.645-.18 3.703.175V35.73l-14.808 2.665V59.19c0 1.957-1.766 3.91-4.235 4.621-2.82.711-5.816-.71-6.168-2.664-.531-2.312 1.41-4.62 4.23-5.332 1.235-.355 2.645-.18 3.704.176V31.105zm0 0" fill="#039"/></svg>