<svg height="64" width="57" xmlns="http://www.w3.org/2000/svg"><path d="M11.427 34.125c-7.399 0-10.8-7.1-10.8-14.9-.099-7.7 3.3-14.9 10.8-14.9 2.3 0 4.2.6 5.7 1.6l-1 2.4c-1.1-.7-2.6-1.2-4.2-1.2-5.2 0-7.3 6-7.3 12.1 0 6 2.1 12 7.2 12 1.6 0 3.2-.5 4.2-1.2l1 2.5c-1.5 1-3.3 1.6-5.6 1.6zm14.901-20.8v20.3h-3.701v-20.3h-2.599v-2.3h2.599v-3.2c0-4.3 2.4-7.2 6.9-7.2h.8v2.4h-.3c-2 0-3.699 1-3.699 4.6v3.3h3.899v2.4zm0 0" fill="#679eb2" stroke="#679eb2" stroke-miterlimit="10" stroke-width="1.25" transform="matrix(1.84155 0 0 1.8314 0 .18)"/></svg>