<svg height="64" width="79" xmlns="http://www.w3.org/2000/svg"><path d="M30.86 9.86c7.523-.567 9.59-5.458 18.43-6.212 4.323-.375 6.956.567 7.331 2.07.188 1.317-1.879 2.446-4.512 2.634-3.574.378-5.078-.938-5.453-2.258-2.633.187-3.008 1.32-3.008 2.258.188 1.507 3.57 3.011 9.024 2.449 6.207-.567 8.277-3.012 7.898-5.457-.562-3.2-5.453-5.836-14.101-5.082-11.098.941-11.098 6.02-18.43 6.773-3.008.188-4.89-.375-5.078-1.691-.188-1.13 1.316-1.883 3.008-1.883 1.695-.188 3.574.187 4.703.562.754-.375.941-.75.754-1.128-.192-1.13-2.633-1.692-5.457-1.317-5.64.567-5.64 3.012-5.453 4.14.754 2.634 4.89 4.516 10.343 4.141zM68.28 22.468c-6.957 1.691-15.797 2.633-26.328 2.633-10.906 0-19.742-1.13-26.512-2.633-6.207-1.696-9.402-3.39-10.718-5.082.562 3.953 1.691 7.902 3.007 11.668-1.503.941-3.007 2.257-4.324 3.761C.961 35.828-.168 39.402.02 42.98c.187 3.575 1.882 6.399 4.703 8.657 2.82 2.258 6.015 2.824 9.402 2.258 1.316-.188 2.82-.942 4.137-1.317-2.82 0-5.266-.941-7.711-2.824-2.633-1.883-4.512-4.703-4.89-7.902-.563-3.012 0-6.024 1.694-8.47.375-.566.75-.94 1.125-1.316.942 2.446 2.07 4.704 3.387 6.961 2.633 3.953 5.266 7.528 7.899 11.293 1.129 2.258 1.879 4.516 2.445 6.586 1.691 2.446 4.137 4.14 7.332 5.082 3.762 1.317 7.71 1.88 11.848 1.88h.375c3.949 0 8.273-.563 12.222-1.88a14.826 14.826 0 0 0 7.149-5.082h.187a27.312 27.312 0 0 1 2.258-6.586c2.629-3.765 5.262-7.34 7.895-11.293 3.574-6.398 6.02-13.738 7.335-21.64-1.128 2.07-4.515 3.761-10.53 5.082zm-52.84-5.457c6.957 1.691 15.793 2.633 26.325 2.633 10.906 0 19.558-.942 26.328-2.633C75.426 15.316 79 13.059 79 10.8c0-1.696-1.691-3.012-4.512-4.14.563.374 1.125 1.128 1.125 1.882 0 2.258-3.383 3.95-9.965 5.457-6.207 1.316-14.101 2.258-23.695 2.258-9.21 0-17.488-.942-23.504-2.258-6.394-1.695-9.777-3.387-9.777-5.457 0-.941.375-1.695 1.691-2.637-3.949 1.696-6.207 2.824-6.207 4.895.188 2.258 3.762 4.515 11.285 6.21zm0 0" fill="#28334c"/></svg>