<svg height="64" width="64" xmlns="http://www.w3.org/2000/svg"><path d="M41.266 22.992c0-3.945-2.403-7.035-5.664-8.406V3.262C35.602 1.372 34.23 0 32.344 0s-3.262 1.371-3.262 3.262v11.324c-3.43 1.2-5.66 4.46-5.66 8.406 0 3.945 2.402 7.035 5.66 8.406 0 .172-.172.516-.172.688V60.57c0 1.887 1.375 3.258 3.262 3.258s3.258-1.371 3.258-3.258V31.914c0-.344 0-.516-.168-.687 3.601-1.028 6.004-4.29 6.004-8.235zm-9.094 2.574c-1.371 0-2.402-1.03-2.402-2.402 0-1.375 1.03-2.402 2.402-2.402s2.402 1.027 2.402 2.402c.172 1.2-1.031 2.402-2.402 2.402zM58.254 3.602c0-1.887-1.375-3.258-3.262-3.258s-3.262 1.37-3.262 3.258v26.597c-3.43 1.2-5.66 4.461-5.66 8.406 0 3.946 2.403 7.036 5.66 8.407 0 .172-.171.515-.171.687v13.04c0 1.89 1.375 3.261 3.261 3.261 1.887 0 3.262-1.371 3.262-3.262V47.7c0-.344 0-.515-.172-.687 3.43-1.2 5.66-4.461 5.66-8.407 0-3.945-2.402-7.035-5.66-8.406V3.602zm-3.262 37.406c-1.37 0-2.402-1.028-2.402-2.403 0-1.37 1.031-2.402 2.402-2.402 1.371 0 2.403 1.031 2.403 2.402 0 1.375-1.032 2.403-2.403 2.403zm-48.73 19.39c0 1.887 1.375 3.258 3.261 3.258 1.887 0 3.258-1.37 3.258-3.258V47.355c0-.343 0-.511-.172-.683 3.434-1.203 5.664-4.461 5.664-8.41 0-3.946-2.402-7.035-5.664-8.407V3.602c0-1.887-1.37-3.258-3.257-3.258S6.09 1.714 6.09 3.602v26.597C2.66 31.4.43 34.66.43 38.605c0 3.946 2.402 7.036 5.66 8.407 0 .172-.172.515-.172.687v13.04c0-.34.344-.34.344-.34zm3.261-24.367c1.372 0 2.403 1.032 2.403 2.403 0 1.375-1.031 2.402-2.403 2.402-1.375 0-2.402-1.027-2.402-2.402 0-1.371 1.027-2.403 2.402-2.403zm0 0" fill="#999"/></svg>