<svg xmlns="http://www.w3.org/2000/svg" width="83" height="43"><path style="stroke:none;fill-rule:nonzero;fill:#999;fill-opacity:1" d="M21.02 0c9.93 0 14.718 5.578 14.718 5.578l-4.433 9.715s-3.903-3.957-9.399-3.957c-6.738 0-9.93 4.676-9.93 10.074 0 5.395 3.368 10.434 9.93 10.434 6.207 0 9.754-4.856 9.754-4.856l5.32 9.356S31.836 43 21.195 43C8.605 43 .273 34.004.273 21.59.093 9.355 8.605 0 21.02 0zm19.152 18.531h7.094v-8.093h5.851v8.093h7.094v6.117h-7.094v8.098h-5.851v-8.098h-7.094zm22.523 0h7.094v-8.093h5.852v8.093h7.093v6.117h-7.093v8.098h-6.032v-8.098h-7.093zm0 0"/></svg>