<svg height="64" width="69" xmlns="http://www.w3.org/2000/svg"><path d="M11.9 28C4.5 28 1 21.501 1 14.5 1 7.5 4.4 1 11.9 1c2.3 0 4.2.6 5.6 1.4l-1 2.1c-1-.6-2.7-1.1-4.2-1.1-5.2 0-7.2 5.5-7.2 11 0 5.4 2.101 10.9 7.2 10.9 1.6 0 3.1-.5 4.2-1.1l1 2.3c-1.4 1.1-3.2 1.5-5.6 1.5zM29.1 28c-1.302 0-2.702-.2-3.5-.501v8.4H22V8.2c1.9-1 4.4-1.4 7-1.4 6.5 0 10 4 10 10.3C39 23.9 35.1 28 29.1 28zM28.8 8.8c-1.1 0-2.4.199-3.2.601v16.1c.7.198 1.601.4 2.799.4 4.601 0 7.002-3.102 7.002-8.6-.102-5.201-1.9-8.5-6.601-8.5zm0 0" fill="#63b763" stroke="#63b763" stroke-miterlimit="10" stroke-width="2" transform="matrix(1.725 0 0 1.72973 0 .086)"/></svg>