<svg height="64" width="64" xmlns="http://www.w3.org/2000/svg"><path d="m10.98 2.23 12.672 10.356c-.355-3.75-1.96-7.856-4.46-10.356-1.786-1.785-3.391-2.5-5-2.14-1.426.18-2.5 1.07-3.212 2.14zM2.23 19.191c2.68 2.676 6.786 4.106 10.536 4.461L2.41 10.98c-1.25.891-2.14 1.786-2.32 3.211-.36 1.61.355 3.215 2.14 5zm51.06 22.672L41.862 53.29c1.43 1.43 3.75 2.676 6.07 3.035.715.18 1.25.18 1.965.18 1.07 0 2.141-.18 3.036-.715l7.675 7.676c.356.355.891.535 1.426.535s1.07-.18 1.43-.535c.715-.715.715-2.145 0-2.856l-7.676-7.675c1.606-3.575 0-8.57-2.5-11.07zM4.91 7.766l34.274 42.488 11.07-11.07L7.766 4.91c-.715-.715-1.965-.535-2.68.176-.89.715-.89 1.789-.176 2.68zm0 0" fill="#0091ea"/></svg>