<svg height="64" width="69" xmlns="http://www.w3.org/2000/svg"><path d="M17.8.5c-2.9 0-5.4 2.801-5.4 6.2 0 3.4 2.4 6.2 5.4 6.2 2.9 0 5.399-2.8 5.399-6.2C23.199 3.302 20.8.5 17.8.5zm0 10.1c-1.6 0-3-1.7-3-3.9 0-2.1 1.3-3.9 3-3.9s3 1.7 3 3.9-1.3 3.9-3 3.9zM7 11.8V1.7C7 1 6.5.5 5.8.5S4.6 1 4.6 1.7v10.1c0 .7.5 1.2 1.2 1.2S7 12.4 7 11.8zm-1.1 6.9C3 18.7.5 21.5.5 24.9s2.4 6.2 5.4 6.2 5.401-2.8 5.401-6.2c-.102-3.3-2.5-6.2-5.4-6.2zm0 10.2c-1.6 0-3-1.699-3-3.9 0-2.1 1.3-3.9 3-3.9s3 1.7 3 3.9c-.1 2.1-1.4 3.9-3 3.9zM19 30V19.9c0-.7-.5-1.2-1.2-1.2s-1.2.5-1.2 1.2V30c0 .7.5 1.2 1.2 1.2S19 30.7 19 30zM31.3 12.7V2.6c0-.7-.499-1.2-1.2-1.2-.7 0-1.1.5-1.1 1.2v10.099c0 .701.5 1.2 1.2 1.2s1.1-.6 1.1-1.2zm-1.2 6.9c-2.9 0-5.401 2.8-5.401 6.2 0 3.4 2.4 6.202 5.4 6.202 2.901 0 5.402-2.802 5.402-6.202S33.1 19.6 30.1 19.6zm0 10.102c-1.6 0-3-1.7-3-3.902 0-2.099 1.3-3.9 3-3.9s3 1.7 3 3.9c0 2.202-1.3 3.902-3 3.902zm0 0" fill="#999" stroke="#999" stroke-miterlimit="10" transform="matrix(1.91667 0 0 1.9394 0 .485)"/></svg>