<svg xmlns="http://www.w3.org/2000/svg" width="84" height="60"><path style="stroke:none;fill-rule:nonzero;fill:#bababa;fill-opacity:1" d="M72.277.21c-4.906 0-3.586 4.978-4.53 7.083-.376.77-.946 2.297-1.509 3.64l.375-.765c-.375.762-.566.953-1.32 1.527 0 0-3.398 2.11-6.422 3.832C55.285 9.211 48.863 5.57 41.875 5.57c-6.984 0-13.594 3.828-16.992 9.957-3.207-1.914-6.61-3.832-6.61-3.832-.753-.574-1.128-.765-1.32-1.527l.375.762c-.566-1.34-1.129-2.68-1.508-3.637C15.066 5 16.383.211 11.29.211c-4.915 0-3.97 6.7-5.477 9.379-.946 1.726-3.778 3.445-5.098 5.363-.192.188-.192.379-.192.574-.566.957-.753 2.297.192 3.637 2.453 4.211 6.039.766 8.305.383.945-.192 2.27-.192 3.777-.574l-.945.191c.757-.191 1.136 0 2.078.574 0 0 3.59 2.106 8.308 4.785v1.149c0 3.64.946 7.469 3.024 10.527a656.505 656.505 0 0 0-11.895 7.278c-.758.574-1.137.765-1.89.574h.753-3.585c-2.27 0-5.102-2.68-7.93.957-2.649 3.637 2.828 5.36 3.965 7.469 1.133 2.105-.38 7.843 4.34 7.27 4.535-.571 3.777-4.403 4.91-6.505.566-.765 1.136-1.918 1.699-3.062l-.375.765c.375-.578.754-.765 1.508-1.343 0 0 5.289-2.868 11.332-6.508v8.804c1.699.766 3.398 1.153 5.097 1.532v-4.785l2.454.574v4.785c1.699.387 3.402.578 5.101.578v-4.789h2.266v4.598c1.695 0 3.398-.196 5.097-.578v-4.786l2.453-.574v4.977c1.7-.38 3.399-.766 5.098-1.532v-8.804a396.942 396.942 0 0 1 11.332 6.508c.754.578 1.133.765 1.512 1.343.566.762.941 1.72 1.32 2.297.946 1.914.375 5.934 4.91 6.504 4.536.578 3.211-5.164 4.344-7.27 1.133-2.109 6.61-3.64 3.965-7.468-2.645-3.637-5.664-1.149-7.93-.957h-3.59.754c-.754 0-.941 0-1.886-.574 0 0-5.477-3.446-11.899-7.278 2.078-3.25 3.024-6.695 3.024-10.527v-1.149c4.722-2.68 8.308-4.785 8.308-4.785.754-.574 1.32-.574 2.078-.574l-.57-.191c1.516.191 2.836.382 3.781.574 2.266.383 5.852 3.828 8.309-.383 2.453-4.21-3.59-6.89-5.098-9.574-.945-1.719-.758-5.164-2.078-7.27 0-.195-.191-.386-.191-.386C74.735.785 73.793.402 72.277.21zM34.324 23.376c.567 0 .758 0 1.32.191 2.645.766 3.403 3.254 2.645 6.125-.754 2.684-3.586 4.403-6.23 3.637-2.645-.766-3.59-3.445-2.645-6.121.57-2.3 2.645-3.832 4.91-3.832zm14.73 0c2.266 0 4.532 1.531 5.098 3.637.754 2.68 0 5.172-2.644 6.129-2.645.761-5.477-.77-6.23-3.641-.755-2.68 0-5.168 2.644-6.125a1.19 1.19 0 0 0 1.133 0zm-7.363 12.824c.754 0 3.961 4.215 3.586 4.79-.379.574-6.797.574-7.175 0-.38-.575 3.02-4.79 3.59-4.79zm0 0"/></svg>