<svg height="64" width="64" xmlns="http://www.w3.org/2000/svg"><path d="M57.602 41.688c2.488 0 4.62 1.066 6.218 2.492L58.488 5.422C58.133 2.222 55.29.09 52.266.09H11.734c-3.199 0-5.867 2.133-6.402 5.332L0 44.18c1.777-1.426 3.91-2.493 6.398-2.493zm0 3.023H6.398A6.372 6.372 0 0 0 0 51.109v6.403a6.372 6.372 0 0 0 6.398 6.398h51.204A6.372 6.372 0 0 0 64 57.512v-6.403a6.372 6.372 0 0 0-6.398-6.398zM52.09 56.977h-3.91a1.97 1.97 0 0 1-1.957-1.954c0-1.066.886-1.957 1.957-1.957h3.91c1.066 0 1.953.891 1.953 1.957a1.97 1.97 0 0 1-1.953 1.954zm5.156 0a1.972 1.972 0 0 1-1.957-1.954c0-1.066.89-1.957 1.957-1.957s1.953.891 1.953 1.957c.18 1.067-.71 1.954-1.953 1.954zm0 0" fill="#4d1b9b"/></svg>