<svg height="64" width="72" xmlns="http://www.w3.org/2000/svg"><filter id="a" height="100%" width="100%" x="0%" y="0%"><feColorMatrix in="SourceGraphic" values="0 0 0 0 1 0 0 0 0 1 0 0 0 0 1 0 0 0 1 0"/></filter><mask id="c"><g filter="url(#a)"><path d="M0 0h72v64H0z" fill-opacity=".6"/></g></mask><clipPath id="b"><path d="M0 0h72v64H0z"/></clipPath><mask id="e"><g filter="url(#a)"><path d="M0 0h72v64H0z" fill-opacity=".6"/></g></mask><clipPath id="d"><path d="M0 0h72v64H0z"/></clipPath><g clip-path="url(#b)" mask="url(#c)"><path d="M67.418 37.824C70.199 40.454 72 44.391 72 48.656c0 8.207-6.71 14.934-14.89 14.934-8.184 0-14.891-6.727-14.891-14.934 0-.492 0-1.148.164-1.64.816-7.387 7.199-13.293 14.89-13.293 3.926-.164 7.528 1.64 10.145 4.101zm0 0" fill="#ef806f"/></g><g clip-path="url(#d)" mask="url(#e)"><path d="M68.563 32.082c0 1.148-.165 2.297-.325 3.61-3.11-2.626-7.039-4.102-11.129-4.102-8.672 0-16.035 6.562-17.02 15.262H11.782C5.238 46.852 0 41.602 0 35.035c0-5.086 3.273-9.515 7.691-11.16v-.656c0-6.07 4.91-10.992 10.965-10.992 1.961 0 3.762.492 5.399 1.312C25.69 6.152 32.398.41 40.418.41c9.328 0 16.855 7.547 16.855 16.902v.329c6.543 1.476 11.29 7.386 11.29 14.441zm0 0" fill="#1ea6c6"/></g><path d="m64.965 48.82-7.528 7.715-7.69-7.715h4.581V38.152h6.055V48.82zm0 0" fill="#fff"/></svg>