<svg height="63" width="49" xmlns="http://www.w3.org/2000/svg"><path d="M24.842 21.014c2.2-.7 4.4.7 4.202 2.8-.2 2.4-3.302 3.601-5.1 4.2l.1-.099-.1-.101c1.3-1 3.898-2.199 3.7-4.6-.1-1.2-1.001-2.098-2.702-2v-.2zm-16.099.401.1-.101c-1 0-1.901.4-2.701.7-.798.3-1.8.401-2.198 1.3.399.7 1.4.7 2.398.802 3.4.5 8.302.398 11.701 0 1.799-.201 3.4-.401 4.2-1.201l-.1-.101.1-.1c-3.4.402-7.8 1-11.9.8-1.301-.099-3-.099-3.7-.8.4-.7 1.4-.9 2.1-1.299zm19.9 14.099v-.1c-5.1 2.5-13.201 2.8-20.5 2.201l.1.1-.1.2c2.999.5 6.9.7 10.7.398 3.7-.198 8.199-.698 9.9-2.698zm-14.4-15.398h.1c-.8-1.802-2.3-2.602-2.499-4.7-.2-1.902.7-3.102 1.598-4 1.101-1.201 2.702-2.201 3.901-3.5 1.6-1.803 3.4-4.5 1.9-7.102l-.101.101-.299-.101c.4 2.5-.6 4.101-1.901 5.4-.999 1.201-2.6 2.201-4 3.3-1.6 1.3-3.7 2.901-3.1 5.3.502 2.302 2.8 3.9 4.102 5.4zm8-11.602-.1-.099c-2.7 1-6.701 2.6-7.1 5.698-.1 1.503.399 2.602.9 3.401.4.602 1.1 1 1.3 1.901.2.8 0 1.6-.2 2.2h.1l.1.1c1.099-.8 2.2-1.901 1.899-3.401-.198-1.5-1.9-2.5-2.1-3.899-.1-.802.1-1.5.401-1.9 1.1-1.701 3.5-2.902 4.8-4zm-13.8 17.401-.101-.101c-.5.301-1.5.4-1.4 1.2.1.8 1.5 1 2.2 1.2 3.7.8 9.2.3 11.902-.599l-.1-.101.1-.099c-.301-.101-.7-.7-1.3-.7-.502-.1-1.6.299-2.602.4-1.6.199-3.299.3-4.799.199-1.101-.1-4.5-.1-3.9-1.399zm.9 4.099.1-.1c-.6.201-1.3.4-1.3 1.1 0 .601 1.2 1 1.9 1.3 3.299 1 8.5.4 10.9-.699-.2-.302-.6-.4-.9-.601-.4-.1-.7-.3-1.1-.5-2.001.5-5.1.7-7.5.4-.7-.1-1.701-.1-1.9-.799zm17.699 3.2-.1-.099c-.098 1-1.3 1.1-2.1 1.3-.898.2-1.9.398-2.998.5-4.902.599-11.5.898-16.302 0-.898-.102-2.2-.401-2.499-1.102.4-.698 1.5-.8 2.399-1.198l-.098-.101.098-.1c-1.2.1-2.1.4-2.998.701-.7.3-1.701.698-1.902 1.5.6.8 1.801.8 2.8 1 6.6 1 15.7 1.198 21.402-.7.998-.401 3.098-1 2.1-1.901zm-3.7-5.099c.2 0 .4-.101.702-.2m.898-6.8c-.198 0-.399.1-.7.1m-2.2 1.7c.1 0 .2-.101.401-.101m-12.5-1.6c-.4.1-.8.1-1.3.201m-2.2 15.898c.499.2 1.099.2 1.7.401m20.5-2.2c.1-.1.2-.2.3-.399M19.043.814c0-.099-.098-.3-.098-.399m-4.702 19.7c.1.1.301.4.402.5m2.298 1.199c.1-.1.2-.198.3-.399m5.7-13.2c-.3.099-.499.2-.7.398m-1.198 18.802h.198m-12.6-1.8c0 .1-.2.1-.2.199m.9 4.2.101-.1m-2.8 2.701c-.4 0-.7.1-1 .1m21.399.5c0-.1-.1-.1-.1-.1h-.098" fill="#666" stroke="#666" stroke-miterlimit="10" transform="matrix(1.63519 0 0 1.61722 .336 0)"/></svg>