<svg height="64" width="72" xmlns="http://www.w3.org/2000/svg"><path d="M67.566 0H4.56C2.125 0 .339 1.953.339 4.234V48.04c0 2.445 1.946 4.234 4.22 4.234h62.843c2.438 0 4.223-1.953 4.223-4.234V4.4C71.949 1.952 70.004 0 67.566 0zm0 0" fill="#ced2d8"/><path d="M4.559 10.586h63.007v37.453H4.56zm0 0" fill="#f2f2f2"/><path d="M17.55 5.7a1.462 1.462 0 1 1-2.921 0 1.462 1.462 0 1 1 2.922 0zm0 0" fill="#54b845"/><path d="M12.516 5.7c0 .808-.653 1.464-1.461 1.464a1.465 1.465 0 0 1 0-2.93c.808 0 1.46.657 1.46 1.465zm0 0" fill="#fbd303"/><path d="M7.809 5.7c0 .808-.657 1.464-1.461 1.464-.809 0-1.461-.656-1.461-1.465 0-.808.652-1.465 1.46-1.465.805 0 1.462.657 1.462 1.465zm0 0" fill="#f0582f"/><path d="m57.5 38.594-4.223-1.137c-.324-1.793-1.136-3.422-1.949-4.887l2.11-3.582c.324-.328.164-.976-.16-1.304L50.19 24.59c-.324-.324-.812-.324-1.3-.164l-3.57 2.117c-1.462-.813-3.087-1.625-4.872-1.953l-1.136-4.07c-.165-.489-.489-.817-.977-.817h-4.223c-.484 0-.808.328-.972.817l-1.301 4.07c-1.785.328-3.41 1.14-4.871 1.953l-3.735-1.953c-.324-.324-.972-.164-1.297.164l-3.085 3.094c-.325.324-.325.812-.164 1.3l2.113 3.586c-.813 1.465-1.625 3.094-1.95 4.883l-4.062.977c-.484.164-.809.488-.809.98v4.23c0 .493.325.817.81.981l4.222 1.137c.324 1.793 1.136 3.422 1.949 4.887l-2.11 3.746c-.324.324-.164.976.16 1.304l3.087 3.094c.324.324.812.324 1.3.16l3.57-2.117c1.462.816 3.087 1.629 4.872 1.957l1.137 4.234c.164.489.488.813.976.813h4.223c.484 0 .812-.324.972-.813l1.137-4.234c1.785-.328 3.41-1.14 4.871-1.957l3.574 2.117c.325.328.973.164 1.297-.16l3.086-3.094c.325-.328.325-.816.164-1.304l-2.113-3.582c.813-1.465 1.625-3.094 1.95-4.887l4.058-.977c.488-.164.812-.488.812-.976v-4.399c.164-.488 0-.812-.484-1.14zM36.062 49.832c-4.382 0-7.957-3.582-7.957-7.98 0-4.395 3.575-7.98 7.957-7.98 4.387 0 7.958 3.585 7.958 7.98 0 4.398-3.57 7.98-7.958 7.98zm0 0" fill="#6eb1e1"/></svg>