<svg height="63" width="62" xmlns="http://www.w3.org/2000/svg"><g fill="#999"><path d="m11.426 26.762 27.386-4.489-1.007-4.32-27.387 4.488zm4.203 18.453 1.008 4.652 11.086-2.16v-4.652zm-1.516-6.985 13.61-2.492v-3.656c0-.332 0-.664.168-.996l-14.786 2.656zm13.61 16.625L13.945 57.68l-9.07-40.89 35.617-5.653 2.856 12.468c.672 0 1.343 0 1.847-.168L39.82 0 .34 5.652 12.434 60.34l15.457-3.156v-.168zm18.312-7.148c-8.566 0-15.625-2.824-15.625-6.148v6.148c0 3.492 7.059 6.152 15.625 6.152 8.57 0 15.625-2.828 15.625-6.152v-6.148c0 3.324-7.055 6.148-15.625 6.148zm0 9.14c-8.566 0-15.625-2.824-15.625-6.148v6.149C30.41 60.34 37.47 63 46.035 63c8.57 0 15.625-2.824 15.625-6.152v-6.149c0 3.492-7.055 6.149-15.625 6.149zm0-30.917c-8.566 0-15.625 2.828-15.625 6.152v6.316c0 3.493 7.059 6.149 15.625 6.149 8.57 0 15.625-2.824 15.625-6.149v-6.152c0-3.488-7.055-6.316-15.625-6.316zm0 0"/><path d="M46.035 36.902c-8.566 0-14.11-2.824-14.11-4.656 0-1.828 5.544-4.652 14.11-4.652 8.57 0 14.113 2.824 14.113 4.652 0 1.832-5.543 4.656-14.113 4.656zm0 0"/></g></svg>