<svg height="64" width="76" xmlns="http://www.w3.org/2000/svg"><path d="m14.974 16.374-11-5.5v-.1l11-5.398V1.574L.374 9.375v3l14.6 7.7zm7.502-3.2L23.174.376h-4.798l.698 12.8zm-1.701 8.002c1.6 0 2.701-1.401 2.701-3.102 0-1.898-1.102-3.1-2.701-3.1s-2.701 1.3-2.701 3.1c-.1 1.7 1 3.102 2.701 3.102zm5.8-19.602v3.802l11.2 5.399v.1l-11.2 5.5v3.7l14.6-7.7v-3.1zm-24 23.401h36.5v2.5h-36.5zm0 7.1h36.5v2.5h-36.5zm0 0" fill="#999" stroke="#999" stroke-miterlimit="10" stroke-width=".75" transform="matrix(1.81211 0 0 1.83119 .353 0)"/></svg>