<svg height="63" width="45" xmlns="http://www.w3.org/2000/svg"><path d="M22.686 26.4h.8c0 2.401-.4 4.2-1.2 5.3-.801 1.1-1.8 1.7-3 1.7-1.001 0-1.9-.4-2.8-1.1-.9-.699-1.701-2.7-2.4-5.9l-2-8.9-6.902 15.599h-4.4l9.901-21.2c-.5-2.698-1.2-4.799-1.899-6.098-.701-1.3-1.7-2.002-2.7-2.002-.902 0-1.601.301-2.3 1-.6.7-1 1.701-1.1 3.1h-.8c0-2.299.5-4.1 1.4-5.4.899-1.3 1.898-2 3.2-2 .8 0 1.599.302 2.3 1.002.7.699 1.4 1.799 1.9 3.499.599 1.7 1.4 5.1 2.6 10.3l1.599 7.3c.701 3 1.4 5 2.1 6.1.7 1 1.6 1.5 2.6 1.5 1.9-.1 2.901-1.3 3.101-3.8zm0 0" fill="#999" stroke="#999" stroke-miterlimit="10" transform="matrix(1.87615 0 0 1.85407 0 .073)"/></svg>