<svg height="63" width="60" xmlns="http://www.w3.org/2000/svg"><path d="M21.516 22.047V3.832c0-1.91 1.574-3.297 3.324-3.297h20.816l10.672 10.582v10.754c0 .348-.351.695-.703.695h-3.672c-.351 0-.7-.347-.7-.695v-7.285H44.43c-1.399 0-2.446-1.04-2.446-2.43v-6.59H26.59v16.305c0 .348-.352.695-.7.695h-3.675c-.348.172-.7-.171-.7-.52zm0 39.203V28.984c0-.695.523-1.214 1.226-1.214h36.035c.7 0 1.223.52 1.223 1.214v27.063c0 3.469-2.973 6.418-6.473 6.418H22.914c-.875 0-1.398-.52-1.398-1.215zm25.363-24.98c0 1.562 1.226 2.601 2.625 2.601 1.398 0 2.625-1.215 2.625-2.601 0-1.56-1.227-2.602-2.625-2.602-1.399-.172-2.625 1.043-2.625 2.602zm0 8.847c0 1.563 1.226 2.602 2.625 2.602 1.574 0 2.625-1.215 2.625-2.602 0-1.387-1.227-2.601-2.625-2.773-1.399 0-2.625 1.21-2.625 2.773zM37.96 36.27c0 1.386 1.223 2.601 2.621 2.601 1.402 0 2.625-1.215 2.625-2.601s-1.223-2.602-2.625-2.602c-1.398-.172-2.621 1.043-2.621 2.602zm0 8.847c0 1.387 1.223 2.602 2.621 2.602 1.574 0 2.625-1.215 2.625-2.602 0-1.562-1.223-2.601-2.625-2.773-1.398 0-2.621 1.21-2.621 2.773zm0 8.848c0 1.387 1.223 2.601 2.621 2.601 1.574 0 2.625-1.214 2.625-2.601s-1.223-2.602-2.625-2.602c-1.398 0-2.621 1.215-2.621 2.602zM29.039 36.27c0 1.562 1.223 2.601 2.621 2.601 1.403 0 2.625-1.215 2.625-2.601 0-1.56-1.222-2.602-2.625-2.602-1.574-.172-2.62 1.043-2.62 2.602zm0 8.847c0 1.563 1.223 2.602 2.621 2.602 1.574 0 2.625-1.215 2.625-2.602 0-1.562-1.222-2.601-2.625-2.773-1.398 0-2.62 1.21-2.62 2.773zm0 8.848c0 1.387 1.223 2.601 2.621 2.601 1.574 0 2.625-1.214 2.625-2.601s-1.222-2.602-2.625-2.602c-1.574 0-2.62 1.215-2.62 2.602zm-22.566 8.5h8.57c.7 0 1.227-.52 1.227-1.215V20.832c0-.695-.528-1.215-1.227-1.215h-6.82C3.672 19.617 0 23.262 0 27.77v28.449c0 3.297 2.8 6.246 6.473 6.246zm0 0" fill="#fea500"/></svg>