<svg xmlns="http://www.w3.org/2000/svg" width="84" height="48"><path style="stroke:none;fill-rule:nonzero;fill:#7291a1;fill-opacity:1" d="M28.621 33.172h-16.32l-2.012 4.45c-.55 1.483-.918 2.593-.918 3.706 0 1.297.547 2.223 1.649 2.781.55.371 2.203.555 4.582.743v1.293H.203v-1.293c1.652-.188 2.934-.93 4.035-2.04 1.098-1.113 2.383-3.34 3.848-6.859L24.586 0h.73L42 36.879c1.648 3.52 2.934 5.746 3.852 6.672.73.742 1.832 1.113 3.296 1.113v1.297h-22.18v-1.297h.919c1.832 0 3.113-.184 3.847-.742.551-.371.735-.926.735-1.48 0-.372 0-.743-.184-1.301 0-.184-.367-1.11-1.101-2.407zm-1.101-2.406-6.786-15.57-7.148 15.57zm0 0"/><path style="stroke:none;fill-rule:nonzero;fill:#36454d;fill-opacity:1" d="m83.797 16.309-6.602 22.054-.734 2.778c0 .375-.184.558-.184.742 0 .187.184.558.371.742.184.188.368.371.547.371.551 0 1.102-.371 2.016-1.113.371-.367 1.102-1.297 2.387-2.965l1.097.559c-1.648 2.964-3.3 5.003-5.132 6.3-1.833 1.297-3.852 2.04-5.864 2.04-1.285 0-2.203-.372-2.933-.93-.735-.742-1.102-1.485-1.102-2.407 0-.93.367-2.41 1.102-4.82l.73-2.781c-2.562 4.45-5.133 7.601-7.516 9.453C60.516 47.442 59.05 48 57.582 48c-2.016 0-3.668-.926-4.582-2.594-.918-1.668-1.465-3.523-1.465-5.746 0-3.152.914-6.672 2.934-10.75 2.011-4.074 4.582-7.226 7.695-9.82 2.566-2.04 5.133-2.965 7.332-2.965 1.285 0 2.203.367 3.121 1.11.73.742 1.281 2.038 1.649 3.89l1.28-4.074zM72.98 22.797c0-1.856-.367-3.152-.918-3.895-.367-.554-.914-.742-1.648-.742-.734 0-1.469.375-2.2.93-1.464 1.297-3.116 4.074-4.948 8.336-1.832 4.265-2.57 7.785-2.57 10.937 0 1.11.183 2.035.554 2.594.363.559.914.742 1.281.742 1.098 0 2.016-.558 3.117-1.668 1.465-1.668 2.934-3.707 4.032-5.93 2.199-4.449 3.3-8.156 3.3-11.304zm0 0"/></svg>