<svg height="64" width="69" xmlns="http://www.w3.org/2000/svg"><path d="M43.8 55.613H11.036c-3.586 0-6.488-2.906-6.488-6.5s2.902-6.504 6.488-6.504h12.797c5.8 0 10.582-4.793 10.582-10.609s-4.781-10.61-10.582-10.61h-6.996c.172.684.172 1.368.172 2.055 0 .684 0 1.368-.172 2.051h6.996c3.586 0 6.484 2.91 6.484 6.504s-2.898 6.504-6.484 6.504H11.035C5.23 38.504.453 43.293.453 49.114c0 5.816 4.777 10.609 10.582 10.609H43.97c-.168-.684-.168-1.371-.168-2.055zm10.067-4.277c-3.414 0-6.312 2.738-6.312 6.332S50.285 64 53.867 64c3.586 0 6.317-2.738 6.317-6.332s-2.73-6.332-6.317-6.332zM19.567 0H6.765C5.742 0 4.719.855 4.719 2.055v15.398C2.16 18.31.453 20.707.453 23.445c0 3.422 2.73 6.332 6.313 6.332 3.586 0 6.316-2.738 6.316-6.332 0-2.738-1.707-5.136-4.266-5.992v-4.789h10.75c1.024 0 2.047-.855 2.047-2.055V2.055C21.441 1.027 20.59 0 19.566 0zm34.3 4.277c-8.191 0-14.847 6.676-14.847 14.887 0 4.45 1.878 8.559 5.292 11.297l7.68 15.23c.68 1.54 2.899 1.54 3.582 0l7.68-15.23c3.414-2.91 5.289-7.016 5.289-11.297.172-8.21-6.484-14.887-14.676-14.887zm0 21.22c-3.414 0-6.312-2.74-6.312-6.333s2.73-6.328 6.312-6.328c3.586 0 6.317 2.734 6.317 6.328s-2.73 6.332-6.317 6.332zm0 0" fill="#999"/></svg>