<svg height="64" width="64" xmlns="http://www.w3.org/2000/svg"><path d="M62.773 29.176 34.824 1.226c-1.636-1.636-4.164-1.636-5.797 0L23.23 7.024l7.282 7.286c1.636-.594 3.718-.149 5.054 1.191 1.34 1.336 1.786 3.418 1.192 5.055l7.137 7.133a4.905 4.905 0 0 1 5.054 1.19 4.942 4.942 0 0 1-6.988 6.99c-1.488-1.49-1.785-3.571-1.043-5.356l-6.54-6.54v17.395l1.337.89a4.935 4.935 0 0 1 0 6.99 4.937 4.937 0 0 1-6.985 0c-1.933-1.934-2.082-5.056-.148-6.99.445-.444.89-.89 1.484-1.038V23.527c-.445-.297-1.039-.597-1.484-1.043-1.488-1.484-1.785-3.566-1.043-5.351l-7.137-7.285-19.175 19.18c-1.637 1.632-1.637 4.16 0 5.796l27.949 27.95c1.636 1.636 4.164 1.636 5.797 0l27.8-27.801c1.637-1.633 1.637-4.313 0-5.797zm0 0" fill="#bababa"/></svg>