<svg xmlns="http://www.w3.org/2000/svg" width="84" height="42"><path style="stroke:none;fill-rule:nonzero;fill:#2dbcaf;fill-opacity:1" d="M41.156 11.465c-3.449.906-5.804 1.633-9.254 2.539-.906.184-.906.184-1.632-.36-.907-.91-1.27-1.636-2.54-2-3.449-1.812-6.714-1.085-9.98.91-3.809 2.54-5.625 6.169-5.625 10.344 0 4.172 3.086 8.165 7.441 8.528 3.809.363 6.711-.906 9.254-3.63.36-.726.907-1.273 1.633-1.995H19.746c-1.09 0-1.27-.727-1.09-1.633.727-1.816 1.996-4.535 2.723-6.168.183-.184.363-.91 1.27-.91h20.14c0 1.633 0 2.902-.18 4.535-.726 3.996-1.996 7.621-4.535 10.887-3.992 5.265-9.074 8.347-15.61 9.258-5.44.722-10.339-.184-14.694-3.63C3.777 35.056 1.422 30.88.695 25.98c-.73-6.168 1.086-11.246 4.715-15.968C9.223 4.754 14.484 1.668 20.832.578c5.266-.906 10.164-.18 14.7 2.723 2.902 1.996 4.898 4.535 6.35 7.62 0 0 0 .18-.726.544zm0 0"/><path style="stroke:none;fill-rule:nonzero;fill:#2dbcaf;fill-opacity:1" d="M59.117 41.766c-4.898 0-9.433-1.633-13.242-4.715-3.086-2.723-5.262-6.352-5.809-10.707-.906-6.352.727-11.793 4.54-16.692 3.988-5.265 8.89-8.168 15.421-9.254 5.625-.91 10.887-.363 15.606 2.723 4.351 2.902 7.074 7.074 7.62 12.156.907 7.438-1.089 13.61-6.35 18.688-3.63 3.629-8.165 6.168-13.063 7.078-1.633.363-3.266.723-4.723.723zm13.25-22.133c0-.727 0-1.274-.183-1.817-.907-5.445-6.168-8.527-11.25-7.257-5.262 1.086-8.348 4.351-9.797 9.433-.907 4.356 1.09 8.528 4.898 10.344 2.903 1.27 6.172 1.09 9.07-.184 4.54-2.175 6.899-5.804 7.262-10.52zm0 0"/></svg>