<svg height="64" width="65" xmlns="http://www.w3.org/2000/svg"><path d="M21.61 63.91c-.176 0-.352 0-.528-.176C8.434 58.934 0 46.488 0 32.977 0 14.844 14.582.09 32.5.09S65 14.844 65 32.977c0 13.511-8.434 25.957-21.082 30.757a1.12 1.12 0 0 1-1.055 0c-.351-.18-.527-.355-.699-.71l-7.027-18.669c-.352-.71.175-1.601.875-1.777 3.867-1.422 6.324-5.156 6.324-9.422 0-5.511-4.39-9.957-9.836-9.957s-9.836 4.446-9.836 9.957c0 4.09 2.633 7.82 6.324 9.422.7.356 1.051 1.067.875 1.777l-7.027 18.668c-.172.356-.348.711-.7.711 0 .176-.175.176-.527.176zm0 0" fill="#af7931"/></svg>