<svg height="64" width="81" xmlns="http://www.w3.org/2000/svg"><path d="M78.398 6.79C75.508 1.55 70.492 0 66.828 0c-4.437 0-8.101 2.328-7.328 4.074.191.387.965 2.133 1.543 2.906.77 1.165 2.121.196 2.508 0 1.347-.773 2.89-.968 4.433-.773 1.543.191 3.664 1.164 5.207 3.879 3.278 6.398-6.941 19.781-19.863 10.473-13.113-9.118-25.652-6.207-31.437-4.27-5.786 1.941-8.293 3.688-5.977 7.953 3.086 5.82 2.121 4.074 5.012 8.922 4.629 7.758 15.043-3.492 15.043-3.492-7.711 11.441-14.27 8.726-16.778 4.656-2.312-3.492-4.05-7.758-4.05-7.758C-4.336 33.55.87 64 .87 64h9.64C13.02 52.75 21.7 53.14 23.243 64h7.328c6.559-21.914 22.95 0 22.95 0h9.644c-2.7-14.934 5.398-19.586 10.414-28.316 5.399-8.922 10.223-19.586 4.82-28.895zM53.52 35.683c-5.012-1.746-3.278-6.786-3.278-6.786s4.434 1.356 10.414 3.489c-.191 1.36-3.277 4.46-7.136 3.297zm0 0" fill="#02303a"/></svg>