<svg xmlns="http://www.w3.org/2000/svg" width="83" height="51"><path style="stroke:none;fill-rule:nonzero;fill:#c19770;fill-opacity:1" d="M30.605 30.332c2.782-.18 5.735.879 7.993 2.824 1.039.883 2.086 2.121 2.777 3.535 1.39-2.296 3.477-4.242 6.082-5.3a15.304 15.304 0 0 1 9.73 0 20.188 20.188 0 0 1 7.293 4.77 62.33 62.33 0 0 0 5.04 4.593c.867.883 1.91 1.41 2.953 1.766 1.562.53 3.297 0 4.343-1.06.868-1.058.868-2.827-.175-4.062-.696-.53-1.563-.53-2.258.176 0 0 0 .176-.176.176-.348.707-.348 1.59.176 2.121-.867-.531-1.563-1.59-1.738-2.828-.172-1.414.87-2.648 2.085-3.004 2.43-.883 5.387-.176 6.774 1.945 1.219 2.118 1.738 4.59 1.39 6.887-.347 2.3-1.566 4.242-3.472 5.656-2.606 1.766-5.734 2.649-9.035 2.297-2.953-.176-6.078-.707-8.688-1.945-4.687-1.941-9.031-4.414-13.722-6.008-1.563-.351-3.473-.879-5.04-1.059h-3.82c-1.562.18-3.125.532-4.515 1.06-4.864 1.593-9.207 4.241-13.899 6.187-3.996 1.59-8.336 2.296-12.504 1.414-2.433-.356-4.691-1.594-6.258-3.535a7.888 7.888 0 0 1-1.906-5.829c-.176-2.12.344-4.066 1.563-5.656 1.214-1.59 3.129-2.297 5.035-2.121 1.215 0 2.262.531 3.129 1.59.52.887.695 1.77.347 2.828-.347.883-.87 1.59-1.566 1.945.352-.53.523-1.414.172-2.12-.516-.708-1.559-.884-2.254-.356-.176 0-.176.18-.348.18-.87.882-.87 2.296-.347 3.355.695 1.059 1.738 1.766 2.949 1.945 1.742 0 3.48-.886 4.691-2.125 2.606-2.648 5.387-4.945 8.34-7.242 2.781-1.941 5.906-2.828 8.86-3zm0-30.215c2.782-.176 5.735.887 7.993 2.828 1.039.883 2.086 2.118 2.777 3.532 1.39-2.297 3.477-4.239 6.082-5.297a15.25 15.25 0 0 1 9.73 0 20.22 20.22 0 0 1 7.293 4.77 62.33 62.33 0 0 0 5.04 4.593c.867.883 1.91 1.414 2.953 1.766 1.562.53 3.297 0 4.343-1.059.868-1.063.868-2.828-.175-4.066-.696-.528-1.563-.528-2.258.18 0 0 0 .175-.176.175-.348.707-.348 1.59.176 2.121-.867-.531-1.563-1.59-1.738-2.828-.172-1.414.87-2.652 2.085-3.004 2.43-.883 5.387-.176 6.778 1.942 1.215 2.12 1.734 4.597 1.387 6.894-.348 2.297-1.563 4.238-3.473 5.652-2.606 1.77-5.734 2.649-9.035 2.297-2.953-.175-6.078-.707-8.684-1.941-4.691-1.945-9.035-4.418-13.723-6.008-1.562-.355-3.476-.887-5.039-1.062h-3.82c-1.566.175-3.129.53-4.52 1.062-4.863 1.59-9.206 4.238-13.898 6.18-3.992 1.593-8.336 2.297-12.504 1.414-2.433-.352-4.691-1.586-6.258-3.531a7.913 7.913 0 0 1-1.906-5.832C-.14 8.773.38 6.832 1.598 5.242c1.214-1.59 3.129-2.297 5.035-2.12 1.215 0 2.262.53 3.129 1.589.52.887.695 1.766.347 2.828-.347.883-.87 1.59-1.566 1.941.352-.527.523-1.41.172-2.117-.516-.707-1.559-.886-2.254-.351-.176 0-.176.172-.348.172-.87.882-.87 2.296-.347 3.359.695 1.059 1.738 1.766 2.949 1.941 1.742 0 3.48-.882 4.691-2.117 2.606-2.648 5.387-4.949 8.34-7.246 2.781-1.941 5.91-2.824 8.86-3.004zm0 0"/></svg>