<svg height="63" width="48" xmlns="http://www.w3.org/2000/svg"><path d="M47.66 38.852c0 3.89-2.894 17.074-2.894 17.074-.68 3.21-3.575 6.594-7.317 6.594H19.75c-2.555 0-4.938-1.524-5.957-3.891 0 0-8.68-15.887-12.082-21.637-2.383-4.054-2.383-4.054.68-5.746a2.905 2.905 0 0 1 1.703-.508c1.191 0 2.039.676 2.89 1.692l5.278 6.086 1.531 2.027V3.863c0-1.86 1.703-3.383 3.742-3.383 1.875 0 3.406 1.524 3.406 3.383l.68 23.664h1.531l.34-4.054c0-1.86 1.531-3.383 3.406-3.383 1.872 0 3.403 1.523 3.403 3.383l.34 4.898h1.53l.34-3.21c0-1.86 1.532-3.38 3.407-3.38 1.871 0 3.402 1.52 3.402 3.38l.34 3.21v.848h1.192l.34-1.692c0-1.859 1.53-3.379 3.406-3.379 1.87 0 3.402 1.52 3.402 3.38-.34 0-.34 7.437-.34 11.324zm0 0" fill="#999"/></svg>