<svg height="64" width="48" xmlns="http://www.w3.org/2000/svg"><g fill="#999" stroke="#999" stroke-miterlimit="10" stroke-width=".5"><path d="M44.2 75.3c7.2-3.701 3.9-7.3 1.5-6.799-.6.099-.801.2-.801.2s.2-.3.601-.5C50.1 66.6 53.6 73 44 75.5zm-6.4-10.5c1.801 2.1-.5 4-.5 4s4.7-2.4 2.5-5.5c-2-2.8-3.6-4.2 4.8-9.101 0 .101-13.1 3.401-6.8 10.6" transform="matrix(1.63687 0 0 1.62288 -34.986 -75.177)"/><path d="M39.8 46.499s3.999 4-3.8 10.102c-6.2 4.898-1.4 7.7 0 10.899-3.601-3.3-6.3-6.2-4.5-8.8 2.7-4 9.9-5.9 8.3-12.201M31 76.8s-1.5.9 1 1.1c3 .299 4.6.299 7.9-.3 0 0 .9.599 2.1 1-7.4 3.3-16.901-.1-11-1.8m-.9-4.2s-1.6 1.199.9 1.5c3.2.3 5.8.4 10.2-.5 0 0 .6.6 1.599 1-9.1 2.6-19.199.2-12.698-2" transform="matrix(1.63687 0 0 1.62288 -34.986 -75.177)"/><path d="M47.7 79.9s1.1.9-1.2 1.599c-4.3 1.302-18 1.702-21.8.101-1.4-.6 1.2-1.4 2-1.6.8-.2 1.3-.1 1.3-.1-1.5-1.1-9.8 2.1-4.2 3 15.3 2.4 27.9-1.199 23.9-3M31.7 68.3s-7 1.702-2.499 2.301c1.9.301 5.699.2 9.2-.101 2.9-.2 5.799-.8 5.799-.8s-1 .4-1.8.901c-7.1 1.9-20.7.999-16.8-.9 3.4-1.6 6.1-1.401 6.1-1.401" transform="matrix(1.63687 0 0 1.62288 -34.986 -75.177)"/><path d="M32.399 85.4c6.901.4 17.502-.2 17.7-3.5 0 0-.499 1.2-5.699 2.2-5.899 1.1-13.101 1-17.5.3.1 0 1 .7 5.499 1" transform="matrix(1.63687 0 0 1.62288 -34.986 -75.177)"/></g></svg>