<svg height="64" width="71" xmlns="http://www.w3.org/2000/svg"><path d="m12.225 17.126-7.7 7.598c-.9 1.001-1.4 2.201-1.4 3.501 0 1.2.5 2.5 1.4 3.4l.1.1c.9.9 2.2 1.4 3.4 1.4 1.3 0 2.5-.5 3.5-1.4l8.6-8.6 9.3-9.3c.4-.4.6-1 .6-1.5s-.2-1.101-.6-1.5-1-.6-1.5-.6-1.1.2-1.5.6l-13.4 13.3c-.6.6-1.5.6-2.2 0-.6-.6-.6-1.6 0-2.2l13.3-13.299c1-1 2.3-1.502 3.7-1.502 1.3 0 2.7.501 3.7 1.502 1 .998 1.5 2.299 1.5 3.698 0 1.3-.5 2.7-1.5 3.701l-9.3 9.3-8.6 8.6c-1.5 1.5-3.6 2.3-5.6 2.3-2 0-4-.7-5.499-2.2l-.1-.1c-1.5-1.5-2.3-3.501-2.3-5.6 0-2.001.8-4.1 2.3-5.6l8.6-8.599 10.899-11c2-2.001 4.6-3.002 7.3-3.002s5.3 1 7.3 3.002c1.999 1.999 2.999 4.6 2.999 7.3 0 2.6-1 5.3-3 7.299l-14.9 14.9c-.6.599-1.599.599-2.199 0-.6-.6-.6-1.6 0-2.201l14.9-14.898c1.4-1.4 2.1-3.301 2.1-5.1s-.7-3.701-2.1-5.101-3.3-2.1-5.2-2.1c-1.9 0-3.7.7-5.1 2.1zm0 0" fill="#999" stroke="#999" stroke-miterlimit="10" stroke-width=".25" transform="matrix(1.7579 0 0 1.76066 .65 0)"/></svg>