<svg height="64" width="64" xmlns="http://www.w3.org/2000/svg"><g fill="#999"><path d="M35.2 13.332c-1.067 0-1.954.355-2.665 1.066-.715.711-1.07 1.602-1.07 2.668s.355 1.957 1.07 2.668c.711.711 1.598 1.067 2.664 1.067 1.067 0 1.957-.356 2.668-1.067.711-.71 1.067-1.601 1.067-2.668s-.356-1.957-1.067-2.668c-.535-.71-1.422-1.066-2.668-1.066zm1.777 12.09-.176.355h.176zm-.176.355c-3.555.535-6.934.711-10.489 1.246l-.355 1.598h.887c.535 0 1.066.18 1.422.535s.535.711.535 1.067c0 .53-.18.886-.535 2.132l-3.73 12.622C24.18 46.043 24 46.754 24 47.465c0 1.07.355 1.781 1.066 2.492.711.711 2.844.887 3.91.887 3.024 0 8-1.598 10.669-6.223l-2.133-1.242c-1.067 1.777-3.024 3.02-4.09 3.555-1.067.53-1.602.355-1.777.355-.18 0-.356 0-.536-.18-.175-.175-.175-.355-.175-.53 0-.356.175-1.067.53-2.134zm0 0"/><path d="M32 1.777C15.29 1.777 1.777 15.29 1.777 32S15.29 62.223 32 62.223 62.223 48.71 62.223 32 48.71 1.777 32 1.777zm0 3.38c14.934 0 26.844 12.09 26.844 26.843 0 14.934-12.09 26.844-26.844 26.844S5.156 46.754 5.156 32C5.156 17.066 17.066 5.156 32 5.156zm0 0" stroke="#999" stroke-miterlimit="10" stroke-width="3.55556"/></g></svg>