<svg height="64" width="67" xmlns="http://www.w3.org/2000/svg"><path d="M39.06.14s-7.599 3.599-13.7 4.4c-6.1.798-17.9 1.6-20.2 1-2.3-.601-4-1.201-4-1.201l.501 1.6-1.5 1.3.3.5h.6l1.9.201.3.799 1.1.1.501 1.8s2.2.2 2.9.2c.698 0 1.999-.101 1.999-.101v.7l.501.101v.801l-1.1.9h.3v.298s-2.4.201-3.302 0c-1-.098-1.098-.098-1.098-.098l-.101.098v.402h.2l.101 1.798 4.899-.198-.499 6.6v.798l-4.101-.198v-1.7h.9l.1-.701.801-.2.099-.2-3.2-.7-2.4.7.4.3h.4v.6h.8v1.6l-.899.2.2.4.2.1v1.301h.6v5.9l-.901.1.101 1.7.6.098-.101 4h2.5l-.499-3.8 3.798-.1-.299 2.1-.4 1.502h3.801v-3.702l2.599-.198-.099 2.398-.1 1.401h2.198l-.099-3.8h.301l.299-1.9h-.4l-.1-.8-.2-2.2.1-2.5h.501v-1.5h-.602l.101-1.8.701-.1v-.601l.4-.098.4-.301-2.5-.5-2.5.6.2.4h.6l.098.7h.701v1.6l-3-.1.1-1.7.101-1.5v-2l.1-2.099 5.999-.301 7.1-.4.101 1.299-.301 3.202-.099 2.999h-2.6v-2.1h.999v-.6l.4-.1v-.101h.4l.2-.299-3-.7-2.9.6.2.399h.3v.2h.4v.701h.9v1.9h-.9v.4h.3v1.6h.6l-.099 6.4-.802.2v.3h.301v1.6h.501l-.2 2.3-.2 1.9 3.1.101-.101-1.7-.2-1.401v-1.2h2.601l-.101 1.9v2l1.5.1 2-.1.6-.2-.4-1.1-.1-1.7-.2-1.2 2.5-.1-.1 1.5v2.3l1 .1h1.001l.499-.2-.3-2.2-.1-1.6h.4v-1.5h.1v-.299h-.5l-.099-1.1V24.74h.4v-1.6h.2v-.301h-.6V21.04l.898-.1-.098-.601h.4v-.1l.498-.3-2.7-.6-2.5.6.2.3h.402v.1h.4v.7h.898l.102 1.7H28.06l-.4-2.6-.299-1.4-.2-2.501.1-1.399 6.3-.5v-2.1l.298-.1v-.301l-.2-.098s-3.5.5-4.6.6c-.298 0-.298 0-.498.098v-.4l-1.3-.7v-.799h.5v-1.1s2.7-.2 3.7-.399c.999-.2 2.398-.502 2.398-.502l.701-1.798 1.3-.402.1-.299 3-.801.3-.299-1.1-2.499.1-.6.6-.301.4-1.299zM24.662 9.638v.901h.699v.9l-1.3.901-.1.299h.501v.2l-4.2.2v-.6l.2-.3v-.6l.099-.299v-.402l.2-.698zm-8.502.801-.098.6.298.4v.7l.301.5-.1.5.2.301-4.199.199v-.1l.499-.099v-.2l-1.099-.601-.1-.9h.5v-1.001zm6.101 14.1 2.5.2-.099 3.4.299 2.8-2.7-.1zm-16.9.1 4 .2-.3 2.3v2l.3 1.1-4 .2zm25.9 0v5.8l-2.6.2-.1-3.1-.3-2.8zm-19.5.1h3v5.4h-2.799l-.1-1.7v-1.7zm0 0" fill="#b41717" stroke="#b41717" stroke-miterlimit="10" stroke-width=".25" transform="matrix(1.7 0 0 1.71166 0 .105)"/></svg>