<svg height="64" width="75" xmlns="http://www.w3.org/2000/svg"><path d="M.5 19v-4.1c.9-.1 1.6-.2 2-.4.4-.2.8-.6 1.2-1.001.4-.5.5-1.1.7-1.9.1-.6.2-1.499.2-2.799 0-2.201.1-3.7.4-4.6.2-.8.6-1.6 1.2-2 .5-.5 1.4-.9 2.5-1.2.7-.2 1.9-.4 3.5-.4h.9v3.9c-1.3 0-2.2.1-2.6.3-.4.2-.6.4-.9.6-.2.3-.3.7-.3 1.501 0 .8-.1 2-.2 4.099-.101 1.2-.2 2-.4 2.801-.301.6-.6 1.2-1 1.8-.4.4-1 .9-1.8 1.399.7.4 1.3.8 1.8 1.3s.8 1.2 1.1 1.899c.3.702.4 1.802.4 3.001.1 1.9.1 3.1.1 3.599 0 .702.1 1.202.3 1.602.2.4.5.5.9.6.4.2 1.2.3 2.6.3v4.098h-1c-1.6 0-2.9-.1-3.701-.4-.9-.3-1.6-.6-2.2-1.2-.6-.6-.999-1.2-1.2-1.999-.198-.8-.299-2.1-.299-4 0-2-.1-3.5-.3-4.1-.3-.9-.7-1.601-1.201-2-.698-.5-1.5-.7-2.7-.7zm39.1 0c-.9.1-1.6.2-2 .4s-.8.6-1.2 1.001c-.4.5-.5 1.1-.7 1.9-.099.6-.2 1.499-.2 2.799 0 2.201-.1 3.7-.4 4.6-.2.9-.6 1.6-1.2 2-.5.5-1.4.9-2.5 1.2-.7.2-1.9.4-3.5.4h-.999v-4.1c1.298 0 2.1-.1 2.599-.3s.7-.4.899-.6c.2-.3.301-.7.301-1.501 0-.6.1-2 .2-3.999.099-1.2.3-2.1.5-2.8.3-.7.6-1.3 1.1-1.9.4-.5 1-.9 1.7-1.3-.901-.6-1.6-1.1-2-1.6-.5-.7-1-1.801-1.201-2.8-.199-.8-.299-2.6-.299-5.2 0-.8-.1-1.4-.301-1.8-.199-.3-.4-.5-.799-.6-.2-.3-1-.3-2.5-.3v-4h.999c1.602 0 2.9.1 3.7.4.902.3 1.6.6 2.2 1.2.6.6 1.002 1.2 1.2 2 .201.8.402 2.1.402 4 0 2 .098 3.4.299 4.1.299.9.7 1.601 1.2 1.9.5.4 1.401.6 2.5.6.1.1 0 4.3 0 4.3zm0 0" fill="#307ac6" stroke="#307ac6" stroke-miterlimit="10" transform="matrix(1.86825 0 0 1.87558 0 .209)"/></svg>