<svg height="64" width="77" xmlns="http://www.w3.org/2000/svg"><g fill="#999" stroke="#999" stroke-miterlimit="10" stroke-width=".5"><path d="M16.4 67.5v-4.1c.901-.1 1.6-.2 2-.4.4-.2.8-.6 1.2-1 .4-.5.5-1.1.7-1.9.1-.6.2-1.5.2-2.8 0-2.2.1-3.7.4-4.6.2-.8.599-1.6 1.2-2 .5-.5 1.4-.9 2.5-1.2.7-.2 1.9-.4 3.5-.4h.9V53c-1.3 0-2.2.1-2.6.3-.4.2-.6.4-.9.6-.2.3-.3.7-.3 1.5 0 .801-.1 2-.2 4.1-.1 1.2-.2 2-.4 2.8-.3.6-.6 1.2-1 1.8-.4.4-1 .9-1.8 1.401.7.4 1.301.8 1.8 1.299.5.499.801 1.2 1.1 1.9.3.7.4 1.8.4 3 .1 1.9.1 3.1.1 3.6 0 .7.1 1.2.3 1.6.199.4.5.5.9.6.4.2 1.2.3 2.6.3v4.1h-1c-1.6 0-2.9-.1-3.7-.4-.9-.3-1.6-.6-2.2-1.199-.601-.601-1-1.2-1.2-2.002-.2-.799-.3-2.1-.3-4 0-2-.1-3.5-.3-4.1-.3-.898-.7-1.6-1.2-1.999-.7-.5-1.5-.7-2.7-.7zm39.1 0c-.9.1-1.6.2-2 .4-.401.2-.8.6-1.2 1-.4.5-.499 1.1-.7 1.9-.1.6-.2 1.5-.2 2.8 0 2.2-.1 3.7-.4 4.6-.2.9-.6 1.6-1.2 2-.5.5-1.4.9-2.501 1.2-.698.2-1.9.4-3.5.4h-1v-4.1c1.3 0 2.101-.1 2.6-.3.501-.2.7-.4.902-.6.2-.3.3-.7.3-1.5 0-.601.098-2 .199-4 .1-1.2.3-2.099.499-2.8.302-.7.602-1.3 1.1-1.9.401-.5 1.001-.9 1.701-1.3-.9-.6-1.6-1.1-2-1.6-.5-.7-1-1.8-1.2-2.8-.2-.8-.3-2.6-.3-5.2 0-.8-.1-1.401-.3-1.8-.2-.3-.4-.5-.8-.6-.2-.3-1-.3-2.5-.3v-4h1c1.6 0 2.9.1 3.7.4.9.3 1.6.6 2.2 1.199.6.601 1 1.2 1.2 2.002.2.799.4 2.1.4 4 0 2 .1 3.4.301 4.1.3.898.698 1.6 1.2 1.9.499.399 1.398.598 2.499.598.1.1 0 4.302 0 4.302zm0 0" transform="matrix(1.90195 0 0 1.91617 -29.917 -93.413)"/><path d="M44.1 67.1c-.7-.3-1.2-.9-1.2-1.599 0-.701.5-1.4 1.2-1.6.299-.1.4-.3.299-.502-.3-.799-.499-1.598-.998-2.2-.1-.3-.4-.3-.602-.2-.2.1-.499.3-.799.3-1 0-1.7-.799-1.7-1.7 0-.3.1-.599.3-.799.1-.3 0-.4-.2-.6-.7-.4-1.499-.7-2.2-1-.3-.1-.4.1-.5.3-.3.7-.9 1.2-1.6 1.2s-1.4-.5-1.6-1.2c-.101-.3-.3-.4-.5-.3-.8.3-1.6.5-2.2 1-.301.1-.301.4-.2.6.2.3.3.5.3.8 0 1-.8 1.7-1.699 1.7-.302 0-.602-.1-.801-.3-.3-.1-.4 0-.6.2-.4.7-.7 1.5-1 2.2-.1.3.1.4.3.5.7.3 1.2.9 1.2 1.601 0 .7-.5 1.398-1.2 1.598-.3.1-.4.302-.3.502.3.799.5 1.6 1 2.2.1.299.4.299.6.2.3-.2.5-.3.801-.3.998 0 1.699.799 1.699 1.7 0 .3-.1.599-.3.799-.101.3 0 .4.2.6.7.4 1.5.7 2.2 1 .2 0 .399-.1.399-.3.302-.7.902-1.2 1.602-1.2.698 0 1.399.5 1.6 1.2.098.3.3.4.499.3.801-.3 1.6-.5 2.2-1 .3-.1.3-.4.2-.6-.1-.3-.301-.5-.301-.8 0-1 .801-1.7 1.7-1.7.3 0 .6.1.802.3.3.1.4 0 .6-.2.4-.701.7-1.5 1-2.2.199-.1.098-.4-.202-.5zm-8.3 1c-1.5 0-2.699-1.2-2.699-2.701 0-1.498 1.2-2.699 2.699-2.699 1.499 0 2.7 1.2 2.7 2.699.1 1.5-1.201 2.701-2.7 2.701zm0 0" transform="matrix(1.90195 0 0 1.91617 -29.917 -93.413)"/></g></svg>