<svg height="64" width="72" xmlns="http://www.w3.org/2000/svg"><g fill="#72bed3" stroke="#72bed3" stroke-miterlimit="10" stroke-width=".75"><path d="M56.4 65.6c0-2.7-3.4-5.3-8.5-6.9 1.2-5.3.7-9.5-1.7-10.9-.6-.3-1.2-.4-1.9-.4v1.9c.4 0 .7.1.9.201 1.1.7 1.7 3.098 1.2 6.299-.1.8-.2 1.6-.4 2.4-1.7-.401-3.4-.7-5.3-.9-1.099-1.6-2.3-2.9-3.4-4.2 2.8-2.5 5.3-3.9 7-3.9V47.3c-2.3 0-5.3 1.7-8.301 4.5-3.098-2.8-6.098-4.4-8.3-4.4V49.3c1.802 0 4.201 1.3 7 3.9-1.198 1.2-2.3 2.6-3.4 4.2-1.9.2-3.698.399-5.3.9-.098-.9-.298-1.7-.4-2.4-.4-3.1.102-5.7 1.201-6.301.2-.098.6-.198.9-.198v-1.902c-.7 0-1.3.1-1.9.402-2.3 1.3-2.8 5.498-1.7 10.899-5.3 1.6-8.7 4.199-8.7 6.9 0 2.7 3.4 5.3 8.5 6.9-1.2 5.301-.7 9.5 1.7 10.9.6.3 1.2.401 1.9.401 2.3 0 5.3-1.7 8.301-4.5 3.098 2.8 6.098 4.4 8.3 4.4.698 0 1.299-.1 1.9-.401C48.3 82.1 48.8 77.9 47.7 72.5c5.4-1.7 8.7-4.2 8.7-6.9zm-10.8-5.601c-.3 1.1-.7 2.202-1.1 3.3-.3-.699-.701-1.299-1.099-1.998-.4-.7-.8-1.302-1.2-2.002 1.2.2 2.3.401 3.399.7zM41.8 68.9c-.7 1.099-1.3 2.2-1.999 3.098-1.2.1-2.401.2-3.7.2s-2.501-.1-3.8-.1c-.7-.998-1.3-1.999-2.002-3.1-.7-1.099-1.198-2.2-1.799-3.299.6-1.1 1.1-2.2 1.799-3.3.702-1.1 1.302-2.2 2.001-3.101 1.2-.098 2.5-.098 3.8-.098s2.5.098 3.8.098c.7 1 1.3 2.002 1.999 3.1.701 1.101 1.2 2.2 1.801 3.301-.7 1.001-1.3 2.1-1.9 3.2zm2.7-1.101c.4 1.1.9 2.2 1.199 3.3-1.1.2-2.298.4-3.4.7.4-.7.8-1.301 1.2-2 .3-.6.601-1.3 1.001-2zM36 76.7C35.2 75.9 34.4 74.9 33.7 74c.798 0 1.5.1 2.298.1.8 0 1.6 0 2.3-.1-.7.999-1.5 1.9-2.3 2.7zm-6.2-4.9c-1.2-.1-2.3-.4-3.399-.7.3-1.1.7-2.199 1.1-3.3.301.7.699 1.3 1.1 2 .4.699.8 1.3 1.2 2zM36 54.5c.8.8 1.6 1.799 2.3 2.7-.798 0-1.5-.1-2.3-.1-.798 0-1.599 0-2.298.1.7-1 1.5-1.9 2.298-2.7zm-6.2 4.9c-.4.7-.8 1.301-1.2 2-.4.7-.7 1.3-1.1 2-.4-1.101-.899-2.2-1.2-3.3 1.2-.4 2.3-.6 3.5-.7zm-7.5 10.4c-3-1.2-4.9-2.9-4.9-4.2 0-1.3 1.9-3 4.9-4.2.701-.3 1.502-.601 2.3-.9.4 1.701 1.102 3.3 1.9 5.1a46.22 46.22 0 0 0-1.9 5c-.798-.199-1.599-.4-2.3-.8zm4.4 11.899c-1.1-.7-1.7-3.098-1.198-6.299.099-.8.2-1.6.4-2.4 1.7.401 3.4.7 5.3.9 1.1 1.6 2.3 2.9 3.4 4.2-2.8 2.5-5.3 3.9-7 3.9-.2-.1-.6-.1-.902-.301zM46.5 75.4c.4 3.1-.099 5.7-1.198 6.299-.2.1-.6.2-.902.2-1.799 0-4.2-1.299-7-3.9 1.201-1.199 2.3-2.599 3.4-4.2 1.9-.2 3.701-.398 5.3-.9.2.8.301 1.701.4 2.501zm3.2-5.6c-.7.3-1.5.601-2.298.9-.4-1.701-1.102-3.3-1.9-5.1a46.22 46.22 0 0 0 1.9-5c.798.199 1.599.6 2.298.899C52.7 62.7 54.6 64.4 54.6 65.7c-.102 1.2-2.002 2.9-4.902 4.1zm0 0" transform="matrix(1.69822 0 0 1.71352 -24.966 -80.407)"/><path d="M39.801 65.6a3.8 3.8 0 1 1-7.601 0 3.8 3.8 0 0 1 7.601 0zm0 0" transform="matrix(1.69822 0 0 1.71352 -24.966 -80.407)"/></g></svg>