<svg height="64" width="74" xmlns="http://www.w3.org/2000/svg"><g fill="#1f385e"><path d="M73.734 51.555c0-2.844-2.289-5.157-5.109-5.157H5.375c-2.82 0-5.11 2.313-5.11 5.157v7.289c0 2.843 2.29 5.156 5.11 5.156h63.25c2.82 0 5.11-2.313 5.11-5.156zm-27.308 6.757a2.985 2.985 0 0 1-2.996-3.023 2.985 2.985 0 0 1 2.996-3.023 2.985 2.985 0 0 1 2.996 3.023c0 1.777-1.234 3.023-2.996 3.023zm8.984 0a2.984 2.984 0 0 1-2.992-3.023c0-1.777 1.23-3.023 2.992-3.023a2.985 2.985 0 0 1 2.996 3.023 2.985 2.985 0 0 1-2.996 3.023zm8.813 0a2.985 2.985 0 0 1-2.996-3.023c0-1.777 1.234-3.023 2.996-3.023a2.981 2.981 0 0 1 2.992 3.023 2.981 2.981 0 0 1-2.992 3.023zM5.375 43.38h63.25c1.41 0 2.82.355 3.879 1.066l-6.168-12.98c-1.762-3.73-4.582-5.153-7.398-5.153h-6.876L42.2 36.623c-.707.71-1.586 1.245-2.469 1.6-.878.356-1.937.532-2.82.532-1.055 0-1.937-.176-2.816-.531h-.352c-.707-.356-1.41-.891-2.117-1.422l-9.867-10.668h-6.871c-2.817 0-5.461 1.601-7.399 5.156L1.32 44.266c1.235-.532 2.47-.887 4.055-.887zm0 0"/><path d="M51.71 21.332c.352-.355.532-.71.884-1.242.176-.535.351-.89.351-1.602 0-.531-.175-1.066-.351-1.422-.176-.53-.532-.886-.883-1.246a5.273 5.273 0 0 0-1.23-.886c-.356-.18-.883-.356-1.41-.356-.532 0-1.06.176-1.41.356-.528.175-.884.53-1.235.886l-5.637 5.692V3.734c0-.535-.176-1.066-.352-1.421-.18-.536-.53-.891-.882-1.247-.352-.355-.703-.71-1.235-.886C37.97 0 37.441 0 36.91 0c-.527 0-1.055 0-1.406.18-.531.175-.883.53-1.234.886-.352.356-.708.711-.883 1.246-.176.532-.352.887-.352 1.422v17.953L27.398 16c-.351-.355-.707-.71-1.234-.89-.352-.176-.879-.356-1.41-.356-.527 0-1.055.18-1.41.355-.352.18-.88.536-1.23.891-.356.355-.708.71-.884 1.246-.175.531-.351.887-.351 1.422 0 .531.176 1.066.351 1.598.176.535.528.89.883 1.246L34.27 33.957c.351.355.703.711 1.234.887.351.18.879.355 1.406.355.531 0 1.059-.176 1.41-.355.532-.176.883-.532 1.235-.887zm0 0"/></g></svg>