<svg height="63" width="60" xmlns="http://www.w3.org/2000/svg"><path d="M.125 47.379V28.586c0-1.125.379-1.879 1.523-2.441 14.29-7.707 28.579-15.598 42.868-23.493 2.097-.937 4.004-2.254 6.48-2.254 4 .188 7.43 2.442 8.57 6.204 1.145 3.757 0 8.078-3.238 10.144-3.617 2.258-7.621 4.324-11.43 6.578C30.61 31.031 16.32 38.922 1.84 46.816c-.574.188-.953.375-1.715.563zm0 0" fill="#e88e3d"/><path d="M22.797 40.426c.57-.375.953-.563 1.144-.938 4.762-2.633 9.524-5.074 13.907-7.52.953-.562 1.715-.562 2.668.188 5.336 4.887 10.859 9.399 16.004 14.285 3.046 2.63 3.812 6.012 2.667 9.582-.953 3.57-3.62 5.641-7.43 6.204-2.476.375-4.952-.375-6.859-1.88-7.242-6.577-14.48-13.156-22.101-19.921.191.375.191.187 0 0zM.125 22.008c0-4.695-.383-9.207.191-13.528C.886 3.406 5.84.398 11.367.96c4.57.567 8.383 5.263 8 9.774 0 .563-.379 1.13-.953 1.317-5.906 3.195-11.812 6.578-17.91 9.77.191.187 0 0-.379.187zm19.242 20.297c0 4.324.192 8.082 0 12.027-.379 4.7-4.762 8.27-9.336 8.27-4.57 0-8.953-3.383-9.715-7.891-.191-1.316 0-2.258 1.332-3.008 5.336-3.008 10.86-5.828 16.196-8.832.379 0 .761-.187 1.523-.566zm0 0" fill="#5171a5"/></svg>