<svg height="64" width="54" xmlns="http://www.w3.org/2000/svg"><path d="M32.707 50.086c-4.18-4.148-9.402.348-13.93 4.324-5.742 5.184-9.746 8.125-13.402 4.668-2.613-2.594-2.438-5.707 0-8.992l2.438 2.25a1.847 1.847 0 0 0 2.261 0L37.406 27.27 26.09 16.03.848 43.344c-.524.691-.524 1.558 0 2.25l2.437 2.418c-4.527 5.36-2.96 10.547 0 13.484 5.918 5.879 12.535.172 17.758-4.496 4.7-4.148 7.66-6.395 9.574-4.492.695.52 1.738.52 2.262-.172.348-.691.348-1.559-.172-2.25zm-8.008-19.188c-.699.692-1.57.692-2.265 0-.696-.691-.696-1.554 0-2.246l2.265-2.246c.696-.691 1.567-.691 2.262 0 .695.692.695 1.555 0 2.246zm14.797-5.875c.348.344.695.516 1.043.516 2.262 0 4.7-.516 6.617-1.727L29.57 6.352c-1.218 2.074-1.738 4.324-1.738 6.57 0 .344.172.863.52 1.035zm10.27-21.261c-5.047-5.016-13.23-5.016-18.278 0L49.766 21.91a12.77 12.77 0 0 0 0-18.148zm0 0" fill="#039"/></svg>