<svg height="64" width="70" xmlns="http://www.w3.org/2000/svg"><path d="M69.723 24.898c-.336-.851-1.012-1.535-1.688-2.222-.168.687-.336 1.37-.844 2.054L46.098 57.723c-.844 1.199-2.532 1.539-3.88 1.199l-33.75-9.574c-2.023-.512-4.386-1.711-4.554-4.106 0-.851 0-1.195.504-1.535.508-.344 1.016-.344 1.52-.172l31.726 8.89c4.555 1.368 5.902.34 9.277-4.788l19.239-30.09a5.83 5.83 0 0 0 .675-4.957c-.507-1.54-1.855-2.735-3.543-3.246L35.47 1.48c-.676-.171-1.352-.171-2.024-.171v-.172c-4.218-2.563-5.906 2.222-8.101 4.101-.844.684-1.856 1.2-2.196 1.883-.336.684-.168 1.367-.336 1.879-.843 1.883-3.207 4.957-4.386 5.813-.676.515-1.688.683-2.196 1.539-.335.511-.335 1.539-.503 2.222-.676 1.711-2.872 4.617-4.387 5.985-.508.511-1.352.855-1.688 1.539-.34.511-.172 1.539-.675 2.05-1.012 1.711-3.04 4.446-4.559 5.985-.844.855-1.856 1.195-2.191 2.05-.168.34 0 1.028-.168 1.54-.34.855-.676 1.539-.844 2.222C.37 41.141-.137 42.852.03 44.56c.34 4.105 3.375 8.207 7.09 9.234l33.746 9.574c3.207.852 7.09-.683 8.778-3.422l19.402-30.258c1.016-1.367 1.183-3.25.676-4.789zm-38.98-10.941 1.35-2.05c.337-.512 1.18-.856 1.856-.684l22.274 6.324c.675.172.843.855.507 1.371l-1.351 2.05c-.336.512-1.18.856-1.856.684L31.25 15.328c-.676-.172-.844-.687-.508-1.371zm-5.567 8.55 1.347-2.054c.34-.512 1.184-.851 1.86-.683l22.273 6.328c.676.172.844.855.504 1.367l-1.347 2.05c-.34.512-1.184.856-1.856.684L25.68 23.875c-.672-.172-1.012-.855-.504-1.367zm0 0" fill="#963"/></svg>