<svg height="64" width="64" xmlns="http://www.w3.org/2000/svg"><g fill="#bababa"><path d="M34.84 4.973 23.66 16.156a19.478 19.478 0 0 1 10.266 0c.55.184.914.364 1.281.364l5.684-5.68c3.3-3.3 8.8-3.3 12.097 0 3.301 3.297 3.301 8.797 0 12.098L41.074 34.852c-1.101 1.101-2.383 1.836-3.851 2.199-2.746.734-6.047 0-8.246-2.2-1.47-1.464-2.383-3.48-2.383-5.316-.735.367-1.285.735-1.836 1.102l-5.317 5.316c.735 1.832 2.02 3.484 3.485 4.95 2.199 2.199 4.765 3.667 7.699 4.398 4.398 1.101 9.164.55 13.016-1.832 1.28-.735 2.382-1.649 3.3-2.567L59.04 28.805c6.598-6.602 6.598-17.418 0-24.016a17.443 17.443 0 0 0-24.2.184zm0 0"/><path d="M40.156 47.867c-3.847 1.102-7.883.918-11.73-.367l-5.5 5.5c-3.301 3.3-8.801 3.3-12.098 0-3.3-3.297-3.3-8.797 0-12.098l12.098-12.097c1.101-1.102 2.383-1.836 3.851-2.2 2.746-.734 6.047 0 8.246 2.2 1.47 1.465 2.383 3.48 2.383 5.5.551-.368 1.285-.735 1.836-1.102l5.317-5.316c-.735-1.832-2.02-3.485-3.485-4.95-2.199-2.199-4.765-3.667-7.699-4.398-4.398-1.102-9.164-.55-13.016 1.832-1.28.734-2.382 1.649-3.3 2.567L4.96 35.035c-6.598 6.602-6.598 17.414 0 24.016 6.598 6.597 17.414 6.597 24.016 0zm0 0"/></g></svg>