<svg height="64" width="64" xmlns="http://www.w3.org/2000/svg"><path d="m60.137 40.719-.184-.36-.36-.359c0-5.395-3.234-10.066-7.73-12.406-.539-1.977-.18-2.696-.18-2.696.18-.18.18-.539.364-.718h4.672c1.078 0 2.156-.36 2.875-1.258 2.52-2.516 3.777-5.754 3.777-9.348 0-6.652-4.676-12.047-11.144-12.945-.364 0-.723-.18-1.082-.18h-37.57C6.382.45.448 6.383.448 13.574c0 .54 0 1.078.18 1.797.36 12.223 9.527 22.113 14.383 26.606H5.664c-1.437 0-2.879.718-3.418 2.16C1.168 46.113.45 48.27.45 50.426c0 7.191 5.934 13.125 13.125 13.125h37.93c6.832-.719 12.047-6.473 12.047-13.125-.18-3.414-1.438-7.192-3.414-9.707M51.145 4.586c4.675.539 8.449 4.312 8.449 9.348 0 2.695-1.078 4.851-2.875 6.652H22.563c1.437-1.98 2.335-4.137 2.335-6.652 0-3.778-1.976-7.192-4.671-9.348zM4.227 50.426c0-1.617.539-3.235 1.257-4.313h15.82c.72 1.438 1.259 2.875 1.259 4.313 0 5.035-4.137 9.168-9.348 9.168-5.215 0-8.988-4.313-8.988-9.168m46.918 9.168H19.863c3.059-2.156 4.856-5.39 4.856-9.348 0-3.773-1.977-7.191-4.672-9.348h.18S4.766 29.395 4.586 14.832c0-.539-.18-.898-.18-1.437 0-5.036 4.133-9.348 9.348-9.348 5.21 0 9.348 4.133 9.348 9.348v.539c0 .898-.18 1.796-.54 2.515-.359 1.078-.898 1.977-1.617 2.875l-2.34 3.239H48.63c0 .18-.18.359-.36.539-.539 1.078-.718 2.156-.718 3.234-.54 0-1.258-.18-1.977-.18-7.55 0-13.844 6.114-13.844 13.844s6.114 13.844 13.844 13.844c5.57 0 10.426-3.239 12.582-8.27.719 1.617 1.258 3.235 1.258 4.852.18 4.676-3.594 8.808-8.27 9.168M51.685 40l-9.168 6.832V32.988zm0 0" fill="#999" stroke="#999" stroke-miterlimit="10" stroke-width=".898875"/></svg>