<svg height="64" width="64" xmlns="http://www.w3.org/2000/svg"><g fill="#039"><path d="M.324 12.07C-.777 14.828 1.43 23.102 1.43 23.102c4.226 11.77 14.156 21.882 14.156 21.882 9.746 10.114 19.492 16.364 28.133 18.387 8.64 2.02 10.297-1.473 10.297-1.473s7.168-6.988 9.191-9.375c2.023-2.574-.55-4.046-.55-4.046s-12.505-7.54-14.524-8.274c-2.024-.918-3.13.55-4.414 1.656-1.29 1.102-3.864 3.493-3.864 3.493-1.468.183-4.226-.918-8.64-4.414C26.8 37.444 21.469 30.823 20 28.434c-1.473-2.204-1.473-4.594-1.473-4.594s1.84-1.473 3.68-3.496c1.836-2.02 1.285-3.86 1.285-3.86l-5.699-10.48C14.301-1.352 13.379.12 13.379.12c-2.39.918-4.41 2.758-5.7 4.043-.917.922-5.882 5.149-7.355 7.906zM49.97 27.7c1.472 0 2.758-1.102 2.758-2.759 0-8.09-6.618-15.078-15.075-15.078-1.472 0-2.761 1.106-2.761 2.758 0 1.473 1.105 2.762 2.761 2.762 5.145 0 9.375 4.226 9.375 9.375 0 1.656 1.473 2.941 2.942 2.941zm0 0"/><path d="M38.938 1.223c-1.473 0-2.758 1.105-2.758 2.757 0 1.473 1.101 2.758 2.757 2.758a16.87 16.87 0 0 1 16.915 16.918c0 1.469 1.105 2.758 2.757 2.758 1.657 0 2.762-1.105 2.762-2.758 0-12.32-10.113-22.433-22.434-22.433zm-3.676 16.363c-1.473 0-2.758 1.105-2.758 2.758 0 1.656 1.101 2.758 2.758 2.758 2.39 0 4.41 2.023 4.41 4.414 0 1.472 1.105 2.757 2.758 2.757 1.472 0 2.757-1.101 2.757-2.757-.183-5.516-4.593-9.93-9.925-9.93zm0 0"/></g></svg>