<svg height="64" width="57" xmlns="http://www.w3.org/2000/svg"><g fill="#999"><path d="M56.797 45.254c-.356-.531-.711-.707-1.242-.707H38.91c-.531 1.238-1.238 2.297-1.77 3.535-1.417 2.828-3.011 5.832-4.425 8.305v.18c-.887 1.413-2.305 2.472-4.074 2.472s-3.188-.883-4.07-2.473c-.532-.886-2.305-4.242-4.43-8.484-.707-1.238-1.239-2.473-1.77-3.71H9.34c-.531 0-1.063.35-1.414.882L.133 61.69c-.176.528-.176 1.059 0 1.414.355.528.707.708 1.238.708h46.215c.531 0 1.062-.356 1.418-.887l7.793-16.258c.351-.352.176-1.059 0-1.414zm0 0"/><path d="M28.465.188c-9.387 0-17.176 7.601-17.176 17.144 0 5.656 6.195 19.086 11.332 29.512 2.48 4.773 4.426 8.308 4.426 8.484.355.531.71.883 1.418.883.707 0 1.062-.352 1.414-.883 0 0 1.95-3.535 4.43-8.484 5.132-10.25 11.332-23.68 11.332-29.512C45.64 7.789 37.848.187 28.465.187zm0 27.57c-4.25 0-7.969-3.356-8.324-7.598v-.883c0-4.597 3.718-8.308 8.324-8.308 4.25 0 7.969 3.36 8.32 7.422v.886c0 4.594-3.719 8.48-8.32 8.48zm0 0"/></g></svg>