<svg height="64" width="57" xmlns="http://www.w3.org/2000/svg"><path d="M49.766 32.992c-5.68-2.187-12.278.547-14.66 6.196-2.2 5.652.55 12.21 6.23 14.582 1.102.546 2.383.73 3.668.73 6.414.18 11.726-4.742 11.726-10.938V0c-.363 0-.546.184-.914.184-12.464 3.46-24.742 7.105-37.207 10.57-1.097.363-1.097.91-1.097 1.824V43.2c-.918-.367-1.285-.547-2.016-.73-4.582-1.64-8.617-.73-11.914 2.55-3.3 3.098-4.215 7.84-2.383 12.032 2.383 5.648 8.98 8.383 14.66 6.195 4.22-1.82 6.965-5.832 6.965-10.387V24.426c0-1.278.367-1.64 1.653-2.008 6.046-1.64 12.093-3.461 18.328-5.102l8.797-2.55v18.953c-.918-.364-1.286-.547-1.836-.727zm0 0" fill="#039"/></svg>