<svg height="64" width="79" xmlns="http://www.w3.org/2000/svg"><path d="m42.852 35.445 4.695 1.344 2.851-10.418-4.695-1.344c0-1.68-.168-3.359-.672-5.039l4.192-2.52-5.364-9.405-4.359 2.519a18.036 18.036 0 0 0-4.023-3.023l1.34-4.704L26.421 0l-1.34 4.703c-1.676 0-3.352.168-5.027.672l-2.516-4.2-9.387 5.376 2.512 4.199a18.053 18.053 0 0 0-3.016 4.031l-4.695-1.343L.105 23.852l4.692 1.343c0 1.68.168 3.36.672 5.04l-4.192 2.523 5.364 9.406 4.191-2.52a18.126 18.126 0 0 0 4.023 3.024l-1.34 4.703 10.395 2.856 1.34-4.704c1.676 0 3.352-.168 5.031-.671l2.512 4.199 9.39-5.375-2.515-4.2c1.172-1.175 2.348-2.519 3.184-4.03zm-25.985-5.547c-2.68-4.535-1.004-10.414 3.52-13.101 4.527-2.688 10.394-1.008 13.078 3.527 2.683 4.535 1.004 10.414-3.52 13.106-4.527 2.687-10.394 1.175-13.078-3.532zm50.63 33.262 6.034-3.527-1.676-2.856c.84-.84 1.508-1.68 2.012-2.687l3.184.84 1.844-6.887-3.184-.84c0-1.176-.168-2.183-.504-3.36l2.852-1.679-3.52-6.047-2.852 1.68c-.84-.84-1.675-1.512-2.683-2.016l.84-3.191-6.875-1.852-.836 3.196c-1.176 0-2.18.168-3.356.504l-1.675-2.86-5.7 3.7 1.676 2.855c-.836.84-1.508 1.68-2.012 2.687l-3.183-1.007-1.844 6.886 3.184.84c0 1.176.168 2.184.504 3.36l-2.852 1.68 3.523 6.046 2.848-1.68c.84.84 1.676 1.512 2.684 2.016l-.84 3.191L61.965 64l.836-3.191c1.176 0 2.18-.168 3.355-.504-.336 0 1.34 2.855 1.34 2.855zM57.101 50.563c-1.676-3.024-.668-6.887 2.347-8.567 3.02-1.68 6.875-.672 8.551 2.352 1.676 3.023.672 6.886-2.348 8.566-3.015 1.68-6.875.672-8.55-2.352zm0 0" fill="#999"/></svg>