<svg height="64" width="64" xmlns="http://www.w3.org/2000/svg"><path d="M62.14 63.773H1.86a1.627 1.627 0 0 1-1.633-1.632V1.859C.227.953.953.227 1.859.227h60.282c.906 0 1.632.726 1.632 1.632v60.282c0 .906-.726 1.632-1.632 1.632zM3.314 59.777c0 .547.363.727.726.727h55.559c.543 0 .726-.363.726-.727V45.434c0-.543-.363-.723-.726-.723H4.223c-.547 0-.727.363-.727.723v14.343zm56.464-56.28H4.223c-.547 0-.727.362-.727.726v36.492c0 .18 0 .363.18.363l11.8-14.707 11.985 7.082 13.434-15.976 19.793 15.43V4.222c0-.547-.364-.727-.91-.727zm-48.476 44.3c2.543 0 4.722 2.176 4.722 4.719s-2.18 4.722-4.722 4.722c-2.54 0-4.719-2-4.719-4.539 0-2.543 2.18-4.902 4.719-4.902zm8.715 3.266h36.496c.543 0 .726.363.726.726v1.637c0 .543-.363.722-.726.722H20.016c-.543 0-.727-.359-.727-.722v-1.637c0-.363.363-.726.727-.726zm0 0" fill="#3c3" stroke="#3c3" stroke-miterlimit="10" stroke-width=".4539"/></svg>