<svg height="64" width="67" xmlns="http://www.w3.org/2000/svg"><g fill="#999"><path d="M0 7.336 37.754.008v63.984L0 57.02zm0 0"/><path d="M64.164 57.734H32.082c-1.594 0-2.836-1.25-2.836-2.859V9.305c0-1.61 1.242-2.864 2.836-2.864h32.082C65.758 6.441 67 7.695 67 9.305v45.57c0 1.61-1.242 2.86-2.836 2.86zM32.082 9.125c-.176 0-.355.18-.355.355v45.575c0 .18.18.36.355.36h32.082c.176 0 .356-.18.356-.36V9.305c0-.18-.18-.36-.356-.36 0 .18-32.082.18-32.082.18zm0 0"/><path d="M59.555 34.324H55.3V19.313H35.629v-4.29h23.926zm0 0"/><path d="m57.25 38.078-7.621-8.402h15.066zM37.719 42.578l8.144-8.215 8.149 8.215-8.149 8.215zm0 0"/></g><path d="M23.574 22.348c-.71-.715-1.418-1.07-2.48-1.43-.887-.355-2.13-.176-3.192-.176-2.129 0-5.847.356-5.847.356l-.18 20.73 3.898.36v-7.329s2.305.36 4.254-.18c1.067-.355 2.13-.89 2.66-1.429.711-.715 1.243-1.43 1.594-2.145.535-1.07.711-2.144.711-3.753.356-1.965-.176-3.75-1.418-5.004zm-3.012 7.148c-.71 1.61-2.66 1.61-2.66 1.61h-2.129v-6.614s1.418-.176 2.485 0c.531.18 1.062.36 1.418.54 1.062.89 1.594 3.034.886 4.464zm0 0" fill="#fff"/></svg>