<svg height="64" width="64" xmlns="http://www.w3.org/2000/svg"><g fill="#ff0021"><path d="M49.453.188h-14.45V64h14.45c7.883 0 14.453-6.383 14.453-14.453V14.453C63.906 6.57 57.523.188 49.453.188zm0 41.289c-4.129 0-7.508-3.375-7.508-7.508 0-4.13 3.38-7.504 7.508-7.504s7.508 3.375 7.508 7.504c0 4.133-3.379 7.508-7.508 7.508zM31.437 64h-16.89C6.664 64 .094 57.617.094 49.547V14.453C.094 6.383 6.477 0 14.547 0h16.89zM14.547 3.941c-5.82 0-10.7 4.692-10.7 10.7v35.093c0 5.82 4.692 10.7 10.7 10.7H27.87V3.94zm0 0"/><path d="M15.672 26.465c-4.129 0-7.508-3.38-7.508-7.508 0-4.129 3.379-7.508 7.508-7.508s7.508 3.38 7.508 7.508c0 4.129-3.38 7.508-7.508 7.508zm0 0"/></g></svg>