<svg height="64" width="66" xmlns="http://www.w3.org/2000/svg"><g fill="#bababa" stroke-miterlimit="10"><path d="M58 47.3v4.2H14.4v-4.2m43.2 10.1V61.6H14V57.4M57.6 68v4.1H14V68M57.6 78.5v4.2H14v-4.2" stroke="#bababa" transform="matrix(1.46667 0 0 1.48837 -19.8 -64.744)"/><path d="M29.8 60.9v-1.8c.5-.2 1.2-.399 2.2-.7.9-.3 1.8-.4 2.799-.599 1.001-.202 2-.302 2.9-.402.9-.1 1.8-.2 2.602-.2l.898.602-4.8 22.8h3.7v1.9c-.4.298-.999.6-1.598.9-.602.299-1.3.498-2 .8-.7.3-1.401.399-2.102.499-.7.1-1.398.199-2 .199-1.398 0-2.2-.3-2.799-.798-.4-.501-.6-1.102-.6-1.7 0-.701.1-1.402.2-2.1.099-.7.299-1.402.4-2.202L33.2 61.7zm4.5-11.999c0-1.202.4-2.202 1.2-2.8.801-.7 1.8-1 3.1-1 1.4 0 2.4.3 3.2 1 .8.698 1.2 1.598 1.2 2.8 0 1.1-.4 2.1-1.2 2.698-.8.701-1.9 1-3.2 1-1.2 0-2.2-.299-3.1-1-.701-.598-1.2-1.498-1.2-2.698zm0 0" stroke="#fff" stroke-width="3" transform="matrix(1.46667 0 0 1.48837 -19.8 -64.744)"/></g></svg>