<svg height="64" width="64" xmlns="http://www.w3.org/2000/svg"><path d="M60.887 19.578c2.941-7.27 3.285-13.152-.348-16.789C56.56-1.19 46.867.02 36.656 4.867h-1.21c-7.27 0-14.192 2.598-19.383 7.27-4.325 3.98-7.614 9.172-9 15.054 1.039-1.21 6.578-7.789 12.98-11.421.172 0 1.73-1.04 1.73-1.04-.171 0-3.289 2.942-3.808 3.637C3.949 32.73-4.184 54.535 2.219 60.937c4.152 4.153 11.765 3.29 20.593-1.558 3.81 1.73 7.961 2.598 12.633 2.598 6.059 0 11.594-1.559 16.442-4.848 5.02-3.285 8.652-8.133 10.73-14.016H47.04c-2.074 3.809-6.574 6.403-11.422 6.403-6.746 0-12.457-5.54-12.633-11.942v-.52h40.844v-.863c0-1.039.172-2.25.172-2.941 0-4.848-1.04-9.52-3.113-13.672zM6.719 59.555c-3.29-3.29-2.25-9.348 1.554-16.79 1.735 5.02 4.848 9.348 8.657 12.633 1.21 1.04 2.593 2.079 3.98 2.77-6.406 3.46-11.598 3.98-14.191 1.387zm41.015-30.461H23.332v-.172c.344-6.23 6.23-11.594 12.98-11.594 6.403 0 11.594 5.02 11.938 11.594v.172zM59.848 18.02c-1.211-2.079-2.77-3.98-4.672-5.54a29.6 29.6 0 0 0-9.692-6.054c6.403-2.942 11.766-3.461 14.536-.52 2.421 2.422 2.25 6.75-.172 12.114 0 .171 0 .171 0 0zm0 0" fill="#999"/></svg>