<svg height="64" width="84" xmlns="http://www.w3.org/2000/svg"><g fill="#a03537"><path d="M38.684 63.957c-8.098-.34-15.356-2.875-19.239-6.77-1.183-1.011-2.363-2.535-2.87-3.55l-.337-.676v-7.617c0-7.614 0-7.614.168-6.934.34 1.692 1.352 3.383 2.871 4.735 1.012.847 3.035 2.37 4.723 3.214 2.871 1.524 6.586 2.54 10.465 3.047 2.363.34 3.207.34 6.582.34s4.223 0 6.582-.34c3.883-.508 7.43-1.691 10.465-3.047 1.687-.843 3.715-2.199 4.726-3.214 1.352-1.352 2.532-3.043 2.871-4.735.168-.508.168-.508.168 6.934v7.445l-.34.68c-1.18 2.367-3.207 4.398-5.906 6.09-5.23 3.046-13.164 4.738-20.93 4.398zm0-18.95c-7.086-.339-13.668-2.37-17.887-5.413-1.016-.68-2.363-2.032-2.871-2.707a10.877 10.877 0 0 1-1.352-2.371l-.336-.676v-7.445c0-7.446 0-7.446.168-6.938.34 1.184.844 2.54 1.856 3.555.508.675 1.351 1.523 1.86 1.86.167.171.675.339 1.01.679 3.376 2.367 8.102 4.058 13.5 4.906 2.364.336 3.208.336 6.587.336 3.375 0 4.218 0 6.582-.336 3.879-.508 7.426-1.691 10.46-3.047 1.692-.847 3.716-2.2 4.727-3.215 1.352-1.351 2.364-3.047 2.871-4.738.168-.508.168-.508.168 6.938v7.445l-.507 1.015c-.844 1.524-1.348 2.368-2.364 3.383-1.011 1.016-2.023 1.864-3.375 2.54-5.398 3.046-13.332 4.738-21.097 4.23zm-.504-18.78c-4.727-.34-8.438-1.184-11.985-2.54-4.218-1.69-7.257-3.89-8.777-6.597a5.733 5.733 0 0 1-.844-2.031c-.168-.676-.336-2.368-.168-3.383C17.418 6.262 24.676 1.859 34.465.34 36.828 0 37.672 0 41.047 0s4.223 0 6.582.34c3.883.508 7.43 1.691 10.465 3.043 4.39 2.199 7.09 5.078 7.597 8.12.168.849.168 2.708-.171 3.388-.504 1.691-1.18 2.707-2.532 4.058-3.543 3.723-9.789 6.094-17.55 6.938-1.016.34-6.247.34-7.258.34zm0 0"/><path d="M38.5 55.7h1.7c2.501.2 4.5.8 6.5 1.6 3.699-1.7 9.1-.399 12.399.9-4.298-.4-9.3 0-12.2 1.7-2.9-2.4-8.498-2.999-13.699-2.4 1.4-1 3.1-1.5 5.3-1.8zm-1.3 6.601c-3 .199-5.5 1.198-7.2 2.6-5-2.302-13.7-1.3-17 1.798-.299.201-.6.402-.5.702 2.8-.9 6.3-1.6 9.901-1.302 3.5.3 6.198 1.5 8.2 3.1 3.6-3.299 8.999-5.1 15.898-5-2.4-1.4-5.8-2.3-9.3-1.898zm0 0" stroke="#fff" stroke-miterlimit="10" stroke-width=".75" transform="matrix(1.68776 0 0 1.692 -20.28 -79.405)"/></g></svg>