<svg height="64" width="83" xmlns="http://www.w3.org/2000/svg"><path d="M62.797 9.066H82.93v13.512H62.797zm0 20.801H82.93V43.38H62.797zm0 20.621H82.93V64H62.797zm-27.371 0h20.308V64H35.426zm-27.196 0h20.13V64H8.23zM43.371 0h2.824c4.239.355 7.594 1.422 10.95 2.668 6.359-2.848 15.187-.711 20.84 1.422-7.063-.711-15.54 0-20.485 2.844-4.945-4.09-14.305-5.157-22.957-4.09A22.506 22.506 0 0 1 43.371 0zM41.43 10.844c-5.121.355-9.36 1.957-12.008 4.265C20.945 11.2 6.465 12.977.988 18.133c-.531.355-1.058.71-.883 1.246 4.77-1.422 10.598-2.668 16.602-2.133 6.004.531 10.418 2.488 13.773 5.152 6.18-5.507 15.188-8.71 26.665-8.53-4.06-1.778-9.887-3.38-15.715-3.024zm-5.828 19.199h20.132v13.512H35.602zm-27.196 0H28.54v13.512H8.406zm0 0" fill="#1f7244"/></svg>