<svg xmlns="http://www.w3.org/2000/svg" width="83" height="63"><path style="fill-rule:nonzero;fill:#1a75ce;fill-opacity:1;stroke-width:.5;stroke-linecap:butt;stroke-linejoin:miter;stroke:#1a75ce;stroke-opacity:1;stroke-miterlimit:10" d="M43.399 59.6h15.802v2.498H43.399zm-30.9 6.902h46.702V69.3H12.499zm0 6.799h46.702v2.798H12.499zm0 0" transform="matrix(1.7529 0 0 1.7867 -21.473 -85.752)"/><path style="stroke:none;fill-rule:nonzero;fill:#1a75ce;fill-opacity:1" d="M46.363.363h2.985c4.554.36 8.058 1.434 11.566 2.864C67.574.187 77.043 2.512 83 4.832c-7.54-.715-16.477 0-21.738 3.04-5.258-4.286-15.075-5.54-24.364-4.286 2.63-1.79 5.786-2.863 9.465-3.223zM44.262 11.98c-5.434.36-9.82 2.145-12.797 4.649-8.942-4.113-24.367-2.324-30.149 3.21-.527.36-1.054.72-.879 1.25 5.086-1.605 11.22-2.855 17.528-2.32 6.312.536 11.047 2.68 14.55 5.54 6.485-5.899 16.13-9.29 28.223-9.114-4.207-1.965-10.343-3.57-16.476-3.215zm0 0"/><path style="fill-rule:nonzero;fill:#1a75ce;fill-opacity:1;stroke-width:.5;stroke-linecap:butt;stroke-linejoin:miter;stroke:#1a75ce;stroke-opacity:1;stroke-miterlimit:10" d="M12.5 80h46.7v2.8H12.5zm0 0" transform="matrix(1.7529 0 0 1.7867 -21.473 -85.752)"/></svg>