<svg height="64" width="84" xmlns="http://www.w3.org/2000/svg"><path d="M.238 64h83.524V0H.238zm16.16-4.91H6.41V52h9.988zm30.688 0h-9.988V52h9.988zM67.602 4.363h9.988v7.274h-9.988zm0 47.453h9.988v7.094h-9.988zM52.168 4.363h9.805v7.09h-9.985v-7.09zm0 47.453h9.805v7.094h-9.985zM36.914 4.363h9.988v7.09h-9.988zM35.464 22l13.071 7.453c2.363 1.457 2.363 3.637 0 5.094L35.465 42c-2.363 1.453-4.36.184-4.36-2.547v-15.09c0-2.547 1.997-3.816 4.36-2.363zM21.485 4.363h9.805v7.09h-9.805zm0 47.453h9.805v7.094h-9.805zM6.41 4.363h9.988v7.274H6.41zm0 0" fill="#f60"/></svg>