<svg xmlns="http://www.w3.org/2000/svg" width="84" height="63"><path style="stroke:none;fill-rule:nonzero;fill:#bababa;fill-opacity:1" d="M78.953 17.746c-.969-.191-1.742-.387-2.707-.191-2.125.191-4.441 1.36-6.566 1.746-1.543.199-2.895-.973-3.09-2.719a102.076 102.076 0 0 1 0-15.379c0-.777-.578-1.168-1.156-1.168C59.64-.156 54.039.425 48.05 1.79c-1.547.387-2.7 1.754-2.7 3.113.188 3.118 2.313 6.618 1.348 9.926-.773 2.918-3.09 5.059-6.18 5.645-2.894.586-5.988-.778-7.53-3.114-1.93-2.726-.966-6.62-1.739-9.925-.383-1.559-1.93-2.34-3.473-2.145a62.499 62.499 0 0 0-16.804 4.09c-.77.195-1.157.973-.77 1.555 2.125 4.671 3.664 9.539 5.02 14.597.386 1.559-.578 3.117-2.125 3.504-2.125.586-4.637.195-6.758.777-.969.196-1.738.586-2.508 1.168-2.707 1.754-3.867 4.672-3.48 7.59.39 2.727 2.507 5.063 5.02 6.23 3.284 1.165 6.183-.972 9.464-1.167 1.543-.192 2.898.972 3.09 2.726.387 5.059.387 10.313 0 15.371 0 .782.578 1.168 1.16 1.168 5.789.391 11.586-.386 17.379-1.75 1.543-.39 2.703-1.75 2.703-3.113-.195-3.308-2.508-6.617-1.543-10.12.77-2.727 3.473-5.06 6.18-5.454 2.699-.387 5.988.781 7.53 3.117 2.122 2.727.966 6.813 1.74 10.121.382 1.555 1.929 2.336 3.472 2.14 5.797-.585 11.59-1.753 16.805-4.089.77-.195 1.156-.973.77-1.555-2.126-4.672-3.669-9.535-5.02-14.597-.387-1.559.578-3.114 2.125-3.5 3.09-.782 6.566.195 9.46-1.95 2.126-1.75 3.477-4.671 2.895-7.394.195-3.695-2.121-6.227-4.629-7.008zm0 0"/></svg>