<svg height="64" width="51" xmlns="http://www.w3.org/2000/svg"><path d="M23.023 63.957c-8.199-.34-15.543-2.875-19.468-6.77-1.196-1.011-2.39-2.535-2.903-3.55L.31 52.96v-7.617c0-7.614 0-7.614.171-6.934.34 1.692 1.368 3.383 2.903 4.735 1.023.847 3.074 2.37 4.781 3.214 2.906 1.524 6.66 2.54 10.59 3.047 2.39.34 3.246.34 6.66.34 3.418 0 4.27 0 6.66-.34 3.93-.508 7.516-1.691 10.59-3.047 1.707-.843 3.758-2.199 4.781-3.214 1.368-1.352 2.563-3.043 2.903-4.735.172-.508.172-.508.172 6.934v7.445l-.34.68c-1.196 2.367-3.246 4.398-5.98 6.09-5.294 3.046-13.321 4.738-21.177 4.398zm0-18.95c-7.171-.339-13.832-2.37-18.101-5.413-1.027-.68-2.39-2.032-2.906-2.707-.512-.68-1.024-1.524-1.364-2.371L.31 33.84v-7.445c0-7.446 0-7.446.171-6.938.34 1.184.852 2.54 1.88 3.555.511.675 1.367 1.523 1.878 1.86.168.171.684.339 1.024.679 3.414 2.367 8.199 4.058 13.664 4.906 2.39.336 3.242.336 6.66.336 3.414 0 4.27 0 6.66-.336 3.93-.508 7.516-1.691 10.59-3.047 1.707-.847 3.758-2.2 4.781-3.215 1.367-1.351 2.39-3.047 2.903-4.738.171-.508.171-.508.171 6.938v7.445l-.511 1.015c-.856 1.524-1.368 2.368-2.39 3.383-1.028 1.016-2.052 1.864-3.419 2.54-5.465 3.046-13.492 4.738-21.348 4.23zm-.511-18.78c-4.782-.34-8.54-1.184-12.125-2.54-4.27-1.69-7.344-3.89-8.883-6.597a5.594 5.594 0 0 1-.852-2.031C.48 14.383.31 12.69.48 11.676 1.504 6.262 8.848 1.859 18.754.34 21.144 0 22 0 25.414 0c3.418 0 4.27 0 6.66.34 3.93.508 7.516 1.691 10.59 3.043 4.441 2.199 7.172 5.078 7.684 8.12.172.849.172 2.708-.168 3.388-.512 1.691-1.196 2.707-2.563 4.058-3.586 3.723-9.906 6.094-17.762 6.938-1.023.34-6.32.34-7.343.34zm0 0" fill="#a03537"/></svg>