<svg height="64" width="64" xmlns="http://www.w3.org/2000/svg"><path d="M27.762.637c-3.899 0-6.95 3.218-6.95 6.949 0 4.746 2.711 10.68 5.422 16.277-2.203 6.782-4.574 14.07-7.797 20.172-6.44 2.547-12.207 4.41-15.597 7.293l-.168.168C1.484 52.852.637 54.546.637 56.414c0 3.898 3.218 6.95 6.949 6.95 1.867 0 3.73-.677 4.918-2.036 0 0 .168 0 .168-.168 2.543-3.05 5.594-8.644 8.308-13.562 6.102-2.375 12.715-4.918 18.817-6.442 4.578 3.73 11.191 6.102 16.617 6.102 3.898 0 6.95-3.223 6.95-6.95 0-3.902-3.22-6.953-6.95-6.953-4.41 0-10.68 1.528-15.43 3.223a56.197 56.197 0 0 1-10.172-13.223c1.868-5.765 4.07-11.359 4.07-15.77-.171-3.898-3.222-6.948-7.12-6.948zm0 4.066c1.527 0 2.71 1.188 2.71 2.715 0 2.035-1.183 5.934-2.37 10-1.696-4.066-3.223-7.965-3.223-10 .172-1.356 1.355-2.715 2.883-2.715zm1.187 23.906c2.035 3.391 4.578 6.442 7.29 9.157a171.201 171.201 0 0 0-12.208 4.066c2.035-4.238 3.563-8.816 4.918-13.223zm27.465 8.985a2.679 2.679 0 0 1 2.711 2.715 2.678 2.678 0 0 1-2.71 2.71c-3.224 0-7.63-1.355-11.192-3.39 4.07-1.016 8.648-2.035 11.191-2.035zM14.875 49.973c-2.031 3.558-3.898 6.78-5.254 8.476-.508.508-1.016.676-1.863.676a2.679 2.679 0 0 1-2.715-2.71c0-.68.34-1.528.68-1.868 1.523-1.356 5.086-2.879 9.152-4.574zm0 0" fill="#c11e07" stroke="#c11e07" stroke-miterlimit="10" stroke-width="1.27152"/></svg>