<svg height="64" width="67" xmlns="http://www.w3.org/2000/svg"><path d="M65.66 13.137 33.5.168 20.77 5.391l32.16 12.8zM12.73 8.59 1.34 13.137 33.5 26.105l11.39-4.546zM0 50.695l32.496 13.137V27.789L0 14.652zm54.27-30.82V29.98l-1.34-.843-1.34 1.851-1.34-.672-1.34 1.852-1.34-.84-1.34 1.852V23.074L34.504 27.79v36.043L67 50.695V14.652zm0 0" fill="#6781b2"/><path d="M7.371 36.21c.668.337 1.34.337 1.676.169.332-.168.836-.504 1.172-1.012.332-.504.5-1.008.332-1.176-.164-.171-.5-.675-1.172-.843l-1.004-.676-1.844 3.035zm-5.195 2.528c-.164-.168-.164-.168 0-.34l4.86-8.082.167-.168 3.516 1.348c1.172.504 1.844 1.008 2.18 1.852.335.843.167 1.683-.504 2.695-.168.336-.504.84-.836 1.008-.336.34-.672.508-1.172.676-.504.168-1.008.336-1.508.336-.504 0-1.176-.168-1.844-.504l-1.508-.508-1.34 2.023-.167.168zm14.238 2.864c-.168-.172-.168-.172 0-.34l2.18-3.535c.168-.336.332-.676.168-.676 0-.168-.168-.336-.672-.504l-1.34-.504-2.68 4.379-.168.168-1.843-.676s-.168 0-.168-.168v-.168l4.859-8.082.168-.168 1.844.672s.164 0 .164.168v.168l-1.172 2.023 1.34.504c1.008.336 1.676.844 2.011 1.516.336.504.168 1.348-.335 2.02l-2.344 3.706-.168.168zm7.707 1.007c.668.34 1.34.34 1.84.168.504-.168.84-.504 1.176-1.007.332-.508.5-1.012.332-1.18-.168-.336-.5-.676-1.172-.844l-1.172-.504-1.844 3.031zm-5.36 2.528c-.167-.168-.167-.168-.167-.336l5.023-8.086s.168-.168.336 0l3.684 1.347c1.172.508 1.843 1.012 2.18 1.852.331.844.167 1.688-.504 2.695-.168.34-.504.844-.836 1.012-.336.336-.672.504-1.176.672-.5.172-1.172.34-1.672.34-.504 0-1.176-.168-2.012-.508l-1.34-.336-1.34 2.02s-.167.171-.335 0zm0 0" fill="#fff"/></svg>