<svg xmlns="http://www.w3.org/2000/svg" width="83" height="52"><path style="stroke:none;fill-rule:nonzero;fill:#6781b2;fill-opacity:1" d="M36.18 38.57c3.308 1.235 8.703 1.063 12.535.528.7 1.593-.348 3.715.347 5.48.352.887 1.395 1.594 3.137 2.477.348.18.867.18 1.219.355l.348.352c.695.531 2.09 1.418 2.437 1.418.524.172 1.047.172 1.39.172h1.747c2.433-.172 4.87-.883 5.57-1.766 1.219-1.59.524-5.125.348-8.309-.176-2.652-.524-6.187 0-8.308.176-.707.87-1.418 1.215-2.301 1.394-3.004 2.789-7.957 2.27-12.73-.352-2.122-1.395-4.063-1.571-5.653 3.308.352 6.441-.355 9.226 0 1.747.172 3.137 1.41 4.704 1.235.351-.883 1.39-1.415 1.39-2.473.176-1.238-.344-2.656-.867-3.54-2.266-.35-4.004 1.77-6.266 1.95-.703 0-1.57-.18-2.441-.355-2.613-.18-6.266.527-8.531 0-1.567-.356-2.961-2.122-4.528-2.829-.347-.18-1.043 0-1.394-.355-.52-.176-.871-.531-1.215-.531-1.742-.703-3.66-1.414-5.402-1.59C48.543.91 44.016.91 39.836 1.266c-1.39.18-2.61.882-4.004.53C34.785 1.618 34.613.91 33.918.56c-2.965-1.414-5.922.175-7.84 1.238-1.39.707-3.129 1.766-4.527 1.945-1.39.352-3.48 0-4.7 0-1.566 0-3.656.352-5.398.531-1.566.352-3.828.528-4.7 1.235-2.437 1.414-3.132 7.957-4.007 11.847-.344 1.415-.867 2.829-1.215 4.243-.523 3.18-.875 6.543-.875 9.547-.172 6.187-.867 14.851 2.27 17.148.695.531 2.957 1.238 3.652.887.176 0 1.047-.887 1.219-1.239.176-.53-.344-1.238-.344-1.945 0-1.418-.351-3.184-.351-4.598 0-3.71.695-7.777 1.566-9.37 0-.176.523-.176.523-.352.176-.352 0-.707.352-.887.695-.703 1.738-1.414 2.434-1.59 2.09-.883 3.308.176 4.18 1.414 1.741 2.301 2.09 6.188 2.265 9.903v2.297c0 .882-.352 1.765-.352 2.296.524 1.414 2.961 2.125 4.008 2.832 0 .528.176 1.239.52 1.59.523.887 1.394 1.414 1.918 1.766 2.609 1.418 9.226.531 10.449-1.234.172-.18.344-.356.344-.708.171-.53.523-1.062.523-1.414 1.047-3.183-.172-6.011.348-9.37zM32.523 6.922c-.171.18-.171.18 0 0"/></svg>