<svg height="64" width="64" xmlns="http://www.w3.org/2000/svg"><path d="M64 32c0 17.645-14.355 32-32 32S0 49.645 0 32 14.355 0 32 0s32 14.355 32 32" fill="#3a3c5b"/><g fill="#fff"><path d="M54.313 34.422c-1.036-6.746-8.13-11.242-13.493-14.531-2.246-1.383-6.054-3.286-6.57-6.399-.176-1.21-.176-2.594-.176-3.805V8.13c0-.692-.691.172-1.035-.344-.867-1.387-.52.344-.52 1.211.172 1.727.52 3.457.52 5.188 0 3.285-.52 6.574-1.387 9.687-1.902 7.438-3.457 15.223-1.554 22.832a24.518 24.518 0 0 0 1.554 4.668c.176.52.52 1.73 1.211 1.906 2.078.516 3.633.692 5.192 2.246 1.039.868 1.73.348 2.941 0 3.633-1.382 6.746-3.285 9.34-6.226 3.285-4.496 4.844-9.512 3.977-14.875m-3.805 6.746c-.344 2.766-2.074 5.363-3.805 7.437-1.383 1.56-3.113 3.461-5.016 4.153-.69.172.172-1.211.172-1.211.52-.867 1.383-1.73 2.075-2.594 1.039-1.21 1.902-2.598 2.421-3.98 1.903-5.016 1.56-10.899-1.382-15.395-1.555-2.422-3.805-4.496-5.88-6.398-1.038-.868-2.077-1.73-2.94-2.77-.176-.172-2.079-2.594-1.387-2.941.175-.172 4.152 3.98 4.5 4.324 1.554 1.21 3.285 2.422 4.843 3.809 2.075 1.902 4.149 3.976 5.36 6.57 1.21 2.77 1.386 6.055 1.039 8.996"/><path d="M30.79.863c.519.348.69 2.77.69 4.844 0 2.078.172 11.246-.52 13.664-.69 2.422-2.245 5.192-3.804 7.613-1.73 2.422-3.633 7.438-3.457 10.551 0 3.113 1.903 8.13 3.285 10.38 1.383 2.073 3.805 5.015 3.286 5.706-.864 1.211-4.668-2.941-6.747-5.363-1.902-2.422-3.976-7.262-3.976-11.07 0-3.805 2.074-7.262 3.633-9.34 1.554-2.075 4.496-5.707 5.36-7.438.866-1.73 1.73-3.457 1.901-5.707.348-2.25 0-10.55 0-10.55S30.27.52 30.79.862"/><path d="M29.234 4.844c.516.343.692 1.039.692 1.73 0 .692-.176 3.633-.348 6.57-.172 2.942-2.594 5.364-4.152 7.094-1.727 1.73-6.746 7.09-8.473 9.688-1.906 2.594-2.77 6.05-2.598 8.992.176 2.941.868 5.883 3.633 8.996 2.77 3.113 4.672 4.496 6.227 5.363 1.387.692 2.941 1.211 2.597 1.903-.347.691-1.73.172-3.289-.348-1.554-.52-6.746-2.594-9.687-6.055-2.938-3.457-4.496-7.957-4.324-12.105.175-4.324 1.386-6.055 3.289-8.824 1.902-2.766 7.437-6.918 9.168-7.957 1.73-1.036 3.976-2.766 5.187-4.325 1.211-1.382 1.73-2.593 1.73-4.668 0-1.902.173-3.804 0-4.5-.171-.515-.171-1.902.348-1.554m.172 51.89c.344 0 .172 1.211-.347 1.73-.52.52-1.211.864-1.383.692s.52-.343 1.039-.863c.52-.691.344-1.559.691-1.559m5.36-.172c-.344 0-.172 1.211.347 1.731s1.211.863 1.383.691c.176-.172-.52-.347-1.035-.867-.52-.515-.348-1.554-.695-1.554m-2.418 1.382c0 1.04 0 1.903-.176 1.903-.344 0-.172-.864-.172-1.903 0-1.039-.172-1.902.172-1.902.348 0 .176.863.176 1.902"/></g></svg>