<svg height="64" width="74" xmlns="http://www.w3.org/2000/svg"><path d="M69.5 0H4.633C2.125 0 .285 2.008.285 4.352V49.39c0 2.511 2.004 4.351 4.348 4.351h64.699c2.508 0 4.348-2.008 4.348-4.351V4.52C74.016 2.008 72.008 0 69.5 0zm0 0" fill="#ced2d8"/><path d="M4.633 10.883H69.5V49.39H4.633zm0 0" fill="#f2f2f2"/><path d="M18.008 5.86c0 .831-.676 1.507-1.508 1.507a1.508 1.508 0 0 1 0-3.015c.832 0 1.508.675 1.508 1.507zm0 0" fill="#54b845"/><path d="M12.824 5.86c0 .831-.676 1.507-1.504 1.507a1.509 1.509 0 0 1 0-3.015c.828 0 1.504.675 1.504 1.507zm0 0" fill="#fbd303"/><path d="M7.977 5.86c0 .831-.676 1.507-1.508 1.507a1.508 1.508 0 0 1 0-3.015c.832 0 1.508.675 1.508 1.507zm0 0" fill="#f0582f"/><path d="M27.703 63.285c-.836-.668-1.672-1.336-2.34-2.176-.668-.836-1.34-1.84-2.008-2.68-1.503-2.175-2.507-4.519-3.343-6.863-1.004-2.843-1.336-5.523-1.336-8.203 0-3.015.668-5.523 1.84-7.703 1-1.672 2.34-3.18 4.011-4.183 1.672-1.004 3.512-1.508 5.348-1.676.672 0 1.34.168 2.176.336.5.168 1.168.336 2.004.668 1.004.336 1.672.672 1.84.672.667.168 1.171.335 1.503.335.336 0 .672-.167 1.172-.167.336-.168.836-.336 1.504-.672.668-.332 1.34-.5 1.84-.668l2.008-.504c.668-.168 1.504-.168 2.172-.168 1.336.168 2.508.336 3.68.84 2.003.836 3.507 2.007 4.68 3.683-.5.332-1.005.668-1.337 1.004-1.004.836-1.672 1.84-2.344 2.844-.836 1.508-1.168 3.184-1.168 4.855 0 2.012.5 3.852 1.672 5.36a7.757 7.757 0 0 0 2.84 2.847c.672.332 1.172.668 1.672.836-.164.668-.5 1.34-.836 2.008-.668 1.508-1.504 3.016-2.34 4.356-.836 1.172-1.504 2.007-2.004 2.675-.836.84-1.507 1.676-2.175 2.012-.836.5-1.84.836-2.676.836-.668 0-1.336 0-2.004-.168-.504-.168-1.172-.336-1.672-.668-.504-.336-1.172-.504-1.672-.672-.668-.168-1.504-.332-2.176-.332-.836 0-1.504.164-2.172.332s-1.171.336-1.671.672c-.836.332-1.336.5-1.672.668-.668.168-1.172.336-1.84.336-1.336.168-2.34-.168-3.176-.672zm13.04-34.992c-1.337.672-2.509.84-3.677.84-.168-1.172 0-2.512.5-3.852.504-1.172 1.004-2.176 1.84-3.18.836-1.007 1.84-1.843 3.008-2.343 1.172-.672 2.508-1.008 3.512-1.008.168 1.34 0 2.512-.5 3.852-.504 1.171-1.004 2.343-1.84 3.347-.836.84-1.84 1.676-2.844 2.344zm0 0" fill="#c6a8e5"/></svg>