<svg height="63" width="57" xmlns="http://www.w3.org/2000/svg"><path d="M55.809.504S31.965.832 16.73 19.992c-.828 1.145-1.656 2.13-2.484 3.274-.496.656-.996 7.207-.996 7.207s-.66-.493-.992-1.309c-.496-.984-.664-2.129-.664-2.129C2.984 40.953 5.469 48.16 5.469 48.16c-.664 1.637-1.989 2.617-3.809 6.387C-.16 58.313.004 61.914.004 61.914c0 .656.164.82.496.164 0 0 1.988-3.766 3.477-6.223.996-1.636 3.976-5.402 3.976-5.402s4.969.16 10.93-1.312c-.496-.164-2.153-.657-3.313-1.145-1.16-.492-1.82-1.312-1.82-1.312l21.36-4.91c2.98-1.801 5.628-3.93 7.785-6.551 11.257-13.266 14.074-33.57 14.074-33.57.164-.657-.332-1.15-1.16-1.15zM34.613 21.629s-9.937 8.68-14.902 13.266C14.742 39.48 8.117 50.453 8.117 50.453L5.633 48.16s1.824-4.422 9.11-13.265c7.12-8.68 19.538-14.083 19.538-14.083 1.492-.656 1.657-.328.332.817zm0 0" fill="#ef712f"/></svg>