<svg height="64" width="64" xmlns="http://www.w3.org/2000/svg"><path d="M16.223 21.805.09 55.844l3.012 3.015 20.035-20.035c-.711-1.594-.532-3.543.886-4.96 1.774-1.774 4.43-1.774 6.204 0 1.773 1.769 1.773 4.429 0 6.202-1.243 1.243-3.368 1.594-4.965.887L5.23 60.984 8.242 64l34.04-16.133L49.73 27.48 36.61 14.36zm46.625-4.075L46.184 1.062c-1.418-1.417-3.547-1.417-4.965 0L37.32 4.966c-1.422 1.418-1.422 3.543 0 4.965l16.664 16.664c1.418 1.418 3.543 1.418 4.965 0l3.899-3.903c1.418-1.418 1.418-3.543 0-4.96zm0 0" fill="#fea500"/></svg>