<svg height="63" width="51" xmlns="http://www.w3.org/2000/svg"><g fill="#737373"><path d="M28.21 1.082 6.696 13.367v24.414l21.516 12.285 21.516-12.285V13.367zm0 0"/><path d="m6.695 13.367 21.516 12.285 21.516-12.285L28.21 1.082zM6.695 37.781l21.516 12.285 21.516-12.285L28.21 25.652zm0 0"/></g><path d="M6.055 39.04 27.57 51.167c.16.156.48.156.64.156.157 0 .477-.156.638-.156l21.515-12.285c.477-.156.637-.63.637-1.102V13.367c0-.472-.16-.785-.637-1.101L28.848.136c-.48-.156-.797-.156-1.278 0L6.055 12.423c-.477.16-.637.633-.637 1.101v24.57c0 .16.16.634.637.946zM28.21 2.5l18.965 10.867L28.21 24.395 9.242 13.367zm2.547 23.152 17.691-10.078v21.574L29.484 48.02V26.44M7.97 35.574v-20L25.66 25.652l1.274.79V48.02L7.969 37.148" fill="#fff"/><path d="M11.953 35.102.637 41.559v12.757l11.316 6.457 11.156-6.457V41.56zm0 0" fill="#fff"/><path d="m.637 41.559 11.316 6.3 11.156-6.3-11.156-6.457zm0 12.757 11.316 6.457 11.156-6.457-11.156-6.457zm0 0" fill="#fff"/><path d="m.32 54.95 11.313 6.456c.16.157.16.157.32.157s.16 0 .32-.157l11.313-6.457c.16-.16.32-.316.32-.472V41.559c0-.157-.16-.473-.32-.473l-11.313-6.457a.496.496 0 0 0-.64 0L.32 41.086c-.16.16-.32.316-.32.473v12.757c0 .16.16.473.32.633zm11.633-19.06 9.883 5.669-9.883 5.828-9.883-5.828zm1.274 11.97 9.246-5.196v11.34l-9.883 5.512v-11.34M1.434 53.215v-10.55l9.246 5.194.636.473v11.34l-9.882-5.668" fill="#444"/><path d="m24.383 45.656-7.328 4.094v8.348l7.328 4.254 7.332-4.254V49.75zm0 0" fill="#517889"/><path d="m17.055 49.75 7.328 4.094 7.332-4.094-7.332-4.094zm0 8.348 7.328 4.254 7.332-4.254-7.332-4.254zm0 0" fill="#517889"/><path d="m16.895 58.57 7.332 4.254c.156 0 .156.156.156.156s.16 0 .16-.156l7.332-4.254c.16-.156.16-.156.16-.472V49.75c0-.156-.16-.316-.16-.473l-7.332-4.254c-.16-.156-.316-.156-.477 0l-7.332 4.254c-.16.157-.16.157-.16.473v8.348c.16.156.16.316.32.472zm7.488-12.441 6.535 3.621-6.535 3.621-6.531-3.777zm.957 7.715 5.898-3.465v7.402l-6.535 3.625V54.16m-7.172 3.149v-6.77l5.899 3.465.476.156v7.246l-6.535-3.625" fill="#fff"/></svg>