<svg height="64" width="74" xmlns="http://www.w3.org/2000/svg"><path d="M7.225 18.125c-1 0-2-.1-2.8-.3v12.1h-3.8v-27.7c1.9-.9 4.5-1.6 7.2-1.6 6.8 0 9.9 3.6 9.9 8.7 0 4.9-3.2 8.8-10.5 8.8zm.6-15.2c-1.3 0-2.5.3-3.4.6v12.1c.8.1 1.8.2 2.8.2 5 0 6.8-2.9 6.8-6.5 0-3.9-1.8-6.4-6.2-6.4zm19.5 27.5c-2.2 0-4.7-.6-6.1-1.6l1-2.4c1.3.8 3.1 1.3 4.7 1.3 2.6 0 4.4-1.7 4.4-3.9 0-5.5-9.6-3.3-9.6-10.8 0-3.5 2.8-6.2 7-6.2 2.2 0 4.2.5 5.7 1.6l-1 2.2c-1.2-.8-2.7-1.3-4.2-1.3-2.6 0-3.8 1.6-3.8 3.6 0 5.2 9.7 3.1 9.7 10.8-.1 3.6-3.2 6.7-7.8 6.7zm0 0" fill="#03c" stroke="#03c" stroke-miterlimit="10" stroke-width="1.25" transform="matrix(2.05225 0 0 2.0612 .316 0)"/></svg>