<svg height="64" width="69" xmlns="http://www.w3.org/2000/svg"><g fill="#1d6fb5"><path d="M18.754 25.742c-2.668.36-4.8 3.219-4.8 6.258s2.132 6.078 4.8 6.258c2.668.355 4.805-2.504 4.805-6.258s-2.137-6.613-4.805-6.258zm0 0"/><path d="M.074 7.508v49.52L38.504 64V0zm18.68 34.683c-4.27-.539-7.649-5.187-7.649-10.191 0-5.184 3.38-9.652 7.649-10.191 4.27-.536 7.652 4.113 7.652 10.191 0 6.258-3.383 10.727-7.652 10.191zm50.172-27.175L47.754 32.715l-5.691-4.649v-14.66h26.863zm0 0"/><path d="m68.926 18.414-21.172 17.7-5.691-4.65V51.31h26.863zm0 0"/></g></svg>