<svg height="64" width="64" xmlns="http://www.w3.org/2000/svg"><g fill="#077265"><path d="M23.91 25.406c0-4.746-2.285-7.031-5.976-7.031-1.407 0-2.461.176-3.164.527V32.97c.703.351 1.582.527 2.636.527 4.219-.351 6.504-2.992 6.504-8.09zm0 0"/><path d="m0 53.715 38.68 9.844V.44L0 10.285zm11.605-38.508c1.582-.527 3.692-.703 6.153-.703 3.34 0 5.625 1.055 7.035 2.992 1.406 1.758 2.285 4.219 2.285 7.559s-.703 5.976-1.933 7.738c-1.762 2.637-4.575 4.043-7.739 4.043-1.054 0-1.933 0-2.636-.352v14.418h-3.34V15.207zm30.418-6.855v3.867h13.008V23.12H42.023v4.043h13.008v4.746H42.023v3.871h13.008v4.922H42.023v4.219h13.008v4.926H42.023v8.086H64V8.352zm0 0"/></g></svg>