<svg height="63" width="62" xmlns="http://www.w3.org/2000/svg"><g fill="#666"><path d="M29.816 62.316c-7.492-.168-12.261-2.523-13.453-6.398l-.172-.504V47.84c0-8.758 0-8.926.512-10.27.852-2.527 2.895-4.21 5.961-4.882l.68-.168h8.687c6.301 0 8.852 0 9.196-.168 1.87-.34 2.894-.676 3.914-1.516 1.363-1.012 2.386-2.695 2.726-4.379.34-1.348.34-1.18.34-5.89v-4.212h6.129l.684.168c3.234 1.012 5.617 3.872 6.64 8.586.34 1.852.34 1.852.34 6.399 0 4.379 0 4.379-.34 5.89-.34 1.348-.683 2.696-1.363 3.875-1.192 2.356-3.067 4.04-5.277 4.715-1.364.504-.172.336-12.774.504h-11.41v2.02h14.988v7.746c-.172.504-.172 1.008-.683 1.683-.508.672-1.36 1.512-1.871 2.02-2.043 1.348-5.11 2.187-9.196 2.355zm10.387-4.714c1.363-.168 2.555-1.684 2.215-3.028-.172-1.18-1.023-2.023-2.215-2.191-1.871-.168-3.406 1.347-3.066 3.031.172 1.348 1.363 2.188 2.726 2.188zM7.848 46.66c-1.703-.336-3.403-1.347-4.598-2.863C1.04 41.105-.152 36.39.016 30.668c.172-3.54.68-6.23 1.875-8.59 1.359-3.027 3.574-4.543 6.468-5.219.684-.168.684-.168 11.75-.168h11.239c.172 0 .172-.168.172-1.007v-1.012H16.535V10.8c0-4.211 0-4.211.34-5.051 1.363-2.695 5.11-4.379 11.066-4.883.512 0 1.536-.168 2.727-.168 6.64-.168 11.578 1.008 14.133 3.367l.851.84c.34.508.852 1.348 1.024 2.192l.168.504v8.082c0 7.406 0 8.078-.168 8.586-.172.671-.512 1.683-.684 2.187-1.02 1.852-2.722 3.031-4.937 3.703-1.364.336-.852.336-10.387.508-9.535 0-9.027 0-10.387.336-2.726.672-4.597 2.691-5.281 5.555-.34 1.347-.34 1.18-.34 5.89v4.38h-2.894c-2.895 0-3.746 0-3.918-.169zm16.007-36.027c1.024-.508 1.875-1.852 1.532-2.863-.34-1.012-1.02-1.852-1.871-2.188-1.532-.508-3.235.504-3.407 2.188-.168 1.347.512 2.695 1.875 3.03.168.169.508.169 1.02.169.34-.168.34-.168.851-.336zm0 0"/><path d="M7.848 46.66c-1.703-.336-3.403-1.347-4.598-2.863C1.04 41.105-.152 36.39.016 30.668c.171-3.54.68-6.23 1.875-8.59 1.359-3.027 3.574-4.543 6.468-5.219.684-.168.684-.168 11.75-.168h11.239c.172 0 .172-.168.172-1.007v-1.012H16.535V10.8c0-4.211 0-4.211.34-5.051 1.363-2.695 5.11-4.379 11.066-4.883.512 0 1.536-.168 2.727-.168 6.64-.168 11.578 1.008 14.133 3.367l.851.84c.34.508.852 1.348 1.024 2.192l.168.504v8.082c0 7.406 0 8.078-.168 8.586-.172.671-.512 1.683-.684 2.187-1.02 1.852-2.722 3.031-4.937 3.703-1.364.336-.852.336-10.387.508-9.535 0-9.027 0-10.387.336-2.726.672-4.597 2.691-5.281 5.555-.34 1.347-.34 1.18-.34 5.89v4.38h-2.894c-2.895 0-3.746 0-3.918-.169zm16.007-36.027c1.024-.508 1.875-1.852 1.532-2.863-.34-1.012-1.02-1.852-1.871-2.188-1.532-.508-3.235.504-3.407 2.188-.168 1.347.512 2.695 1.875 3.03.168.169.508.169 1.02.169.34-.168.34-.168.851-.336zm0 0"/></g></svg>