<svg height="64" width="83" xmlns="http://www.w3.org/2000/svg"><linearGradient id="a" gradientTransform="matrix(.14059 0 0 .09419 -.088 -.345)" gradientUnits="userSpaceOnUse" x1=".741" x2="590.86" y1="3.666" y2="593.79"><stop offset="0" stop-color="#cbced0"/><stop offset="1" stop-color="#84838b"/></linearGradient><linearGradient id="b" gradientTransform="matrix(.1139 0 0 .11627 -.088 -.345)" gradientUnits="userSpaceOnUse" x1="301.03" x2="703.07" y1="151.4" y2="553.44"><stop offset="0" stop-color="#276dc3"/><stop offset="1" stop-color="#165caa"/></linearGradient><g fill-rule="evenodd"><path d="M41.5 55.586C18.59 55.586.016 43.14.016 27.793.016 12.441 18.59 0 41.5 0s41.484 12.441 41.484 27.793c0 15.348-18.574 27.793-41.484 27.793zm6.352-44.719c-17.414 0-31.536 8.504-31.536 19 0 10.492 14.122 19 31.536 19s30.265-5.816 30.265-19c0-13.18-12.851-19-30.265-19zm0 0" fill="url(#a)"/><path d="M63.195 43.047s2.508.758 3.97 1.496c.503.254 1.382.766 2.01 1.437.622.657.923 1.325.923 1.325l9.894 16.687L64 64l-7.48-14.047s-1.532-2.633-2.473-3.398c-.785-.637-1.121-.864-1.899-.864h-3.8l.004 18.297-14.153.008V17.258h28.418s12.946.23 12.946 12.55-12.368 13.235-12.368 13.235zM57.04 27.395l-8.566-.004-.008 7.945 8.574-.004s3.969-.012 3.969-4.039c0-4.113-3.969-3.898-3.969-3.898zm0 0" fill="url(#b)"/></g></svg>