<svg xmlns="http://www.w3.org/2000/svg" width="84" height="54"><path style="fill-rule:nonzero;fill:#039;fill-opacity:1;stroke-width:.5;stroke-linecap:butt;stroke-linejoin:miter;stroke:#039;stroke-opacity:1;stroke-miterlimit:10" d="m10.45 23.48-7.7-8.5v-.1l7.7-8.5V.68L.25 12.681v4.5l10.2 11.898zM36.25.679V6.38l7.9 8.5v.1l-7.9 8.5v5.6l10.2-11.7v-4.9zM28.549 5.08c-1.299-.6-3-1.6-3.598-3 0-.7-.602-1.3-1.301-1.3-.7 0-1.299.6-1.299 1.3v17.3c-1.3-.7-3.9-.5-5.9.6-3.002 1.7-4.3 4.899-3.002 7.2 1.301 2.2 5.002 2.7 8 1 2.1-1.2 3.502-3.2 3.601-5.1v-15c4.4 0 7 1.8 6 6-.199.8-.401 1.6-.8 2.299-.2.302-.2.5.1.802.2.198.6.198 1-.2 1.7-1.6 2.7-3.7 2.7-6.001 0-2.9-2.9-4.8-5.501-5.9zm0 0" transform="matrix(1.79872 0 0 1.81157 0 .047)"/></svg>