<svg xmlns="http://www.w3.org/2000/svg" width="83" height="54"><path style="fill-rule:nonzero;fill:#999;fill-opacity:1;stroke-width:1.5;stroke-linecap:butt;stroke-linejoin:miter;stroke:#999;stroke-opacity:1;stroke-miterlimit:10" d="M11.242 25.867c-.5 0-1.1-.2-1.498-.6l-8.4-8.401c-.802-.799-.802-2.099 0-3l8.4-8.398c.8-.8 2.098-.8 2.999 0 .8.8.8 2.098 0 2.999l-6.9 6.9 6.9 6.9c.8.801.8 2.1 0 3-.401.4-1 .6-1.5.6zm25.1 0c-.499 0-1.099-.2-1.5-.6-.8-.8-.8-2.099 0-3.002l6.9-6.898-6.9-6.9c-.8-.8-.8-2.101 0-3 .8-.8 2.1-.8 3.001 0l8.398 8.4c.802.8.802 2.1 0 3l-8.398 8.4c-.4.4-1.001.6-1.5.6zm-16.7 4.1c-.199 0-.398 0-.698-.1-1.102-.401-1.702-1.5-1.301-2.6l8.398-25.1c.4-1.1 1.5-1.699 2.6-1.301 1.102.4 1.702 1.5 1.301 2.601l-8.398 25.1c-.202.899-1.102 1.4-1.901 1.4zm0 0" transform="matrix(1.74425 0 0 1.75713 0 .013)"/></svg>