<svg height="64" width="64" xmlns="http://www.w3.org/2000/svg"><path d="M0 56.355v-7.644h15.29V64H0zm22.754 0v-7.644h15.289V64h-15.29zm22.933 0v-7.644h15.29V64h-15.29zM48 38.934l-5.332-5.332L48 28.266l5.332-5.332 5.336 5.332L64 33.602l-5.332 5.332a125.106 125.106 0 0 1-5.336 5.332zM0 33.602v-7.645h15.29v15.29H0zm22.754 0v-7.645h15.289v15.29h-15.29zM25.066 16l-5.332-5.332 5.332-5.336L30.398 0l5.336 5.332 5.332 5.336L35.734 16c-2.843 3.023-5.336 5.332-5.336 5.332zM0 10.668V3.023h15.29v15.29H0zm0 0" fill="#3a898d"/></svg>