<?xml version="1.0" encoding="UTF-8"?>
<svg version="1.1" viewBox="0 0 72 96" xmlns="http://www.w3.org/2000/svg">
<defs>
<linearGradient id="b" x1=".74144" x2="590.86" y1="3.6658" y2="593.79" gradientTransform="scale(1.2219 .81837)" gradientUnits="userSpaceOnUse">
<stop stop-color="#cbced0" offset="0"/>
<stop stop-color="#84838b" offset="1"/>
</linearGradient>
<linearGradient id="a" x1="301.03" x2="703.07" y1="151.4" y2="553.44" gradientTransform="scale(.98995 1.0102)" gradientUnits="userSpaceOnUse">
<stop stop-color="#276dc3" offset="0"/>
<stop stop-color="#165caa" offset="1"/>
</linearGradient>
</defs>
<style>.st0{fill:#999}</style>
<path class="st0" d="M0 2v92c0 1.1.9 2 2 2h68c1.1 0 2-.9 2-2V28H50c-1.1 0-2-.9-2-2V0H2C.9 0 0 .9 0 2z"/>
<path class="st0" d="M71.9 24c-.1-.4-.2-.7-.4-1L52 1.2V24h19.9z"/>
<path d="m6 41h60v49h-60zm13.1-34.6h3.6l1.3 6c0.2 0.9 0.4 2.4 0.4 2.4h0.1s0.2-1.5 0.4-2.4l1.3-6h3.8l0.9 14.3h-3l-0.4-6.4c-0.1-1.1 0-2.4 0-2.4h-0.1s-0.2 1.5-0.4 2.4l-0.9 4.1h-3.1l-0.9-4.1c-0.2-0.9-0.4-2.4-0.4-2.4h-0.1s0.1 1.3 0 2.4l-0.4 6.4h-3zm14.6 0h4.2c3.7 0 5.9 2.6 5.9 7.1s-2.2 7.2-5.9 7.2h-4.2zm4.1 11.4c1.7 0 2.6-1.5 2.6-4.3s-1-4.2-2.6-4.2h-0.8v8.5z" fill="#fff"/>
<path d="m6.5 6.4h4.5c0.6 0 1.3 0.1 1.9 0.4 1.4 0.6 2.4 2.1 2.4 4 0 1.7-0.8 3.3-2 4 0 0 0.2 0.2 0.5 0.9l2.3 5h-3.6l-2-4.8h-0.7v4.8h-3.3zm3.9 6.6c0.9 0 1.6-0.7 1.6-1.9 0-0.7-0.2-1.2-0.6-1.5-0.3-0.2-0.6-0.3-0.9-0.3h-0.7v3.7z" fill="#fff"/>
<g transform="matrix(1.0028 0 0 1.0028 -1.5386 -51.755)">
<path class="st0" d="m30.761 136.68v-13.901h4.0809l4.0809 5.1011 4.0809-5.1011h4.0809v13.901h-4.0809v-7.9705l-4.0809 5.1011-4.0809-5.1011v7.9705zm24.485 0-6.1214-6.759h4.0809v-7.1416h4.0809v7.1416h4.0809z" stroke-width=".63764"/>
<g transform="matrix(.042445 0 0 .042445 13.462 97.053)" fill-rule="evenodd">
<path d="m361.45 485.94c-199.12 0-360.55-108.11-360.55-241.47s161.42-241.47 360.55-241.47c199.12 0 360.55 108.11 360.55 241.47s-161.42 241.47-360.55 241.47zm55.188-388.53c-151.35 0-274.05 73.908-274.05 165.08s122.7 165.08 274.05 165.08 263.05-50.529 263.05-165.08c0-114.51-111.7-165.08-263.05-165.08z" fill="url(#b)"/>
<path d="m550 377s21.822 6.585 34.5 13c4.399 2.226 12.01 6.668 17.5 12.5 5.378 5.712 8 11.5 8 11.5l86 145-139 0.062-65-122.06s-13.31-22.869-21.5-29.5c-6.832-5.531-9.745-7.5-16.5-7.5h-33.026l0.026 158.97-123 0.052v-406.09h247s112.5 2.029 112.5 109.06-107.5 115-107.5 115zm-53.5-135.98-74.463-0.048-0.037 69.05 74.5-0.024s34.5-0.107 34.5-35.125c0-35.722-34.5-33.853-34.5-33.853z" fill="url(#a)"/>
</g>
</g>
</svg>
