<?xml version="1.0" encoding="UTF-8"?>
<svg version="1.1" viewBox="0 0 100 100" xmlns="http://www.w3.org/2000/svg">
<defs>
<linearGradient id="a" x1="301.03" x2="703.07" y1="151.4" y2="553.44" gradientTransform="matrix(.13728 0 0 .14009 -116.92 .93451)" gradientUnits="userSpaceOnUse">
<stop stop-color="#276dc3" offset="0"/>
<stop stop-color="#165caa" offset="1"/>
</linearGradient>
<linearGradient id="b" x1=".74144" x2="590.86" y1="3.6658" y2="593.79" gradientTransform="matrix(.16946 0 0 .11349 -116.92 .93451)" gradientUnits="userSpaceOnUse">
<stop stop-color="#cbced0" offset="0"/>
<stop stop-color="#84838b" offset="1"/>
</linearGradient>
</defs>
<g transform="matrix(.41581 0 0 .41581 26.292 28.62)">
<path d="m152.42 89.975-24.847-27.332h16.565v-28.989h16.565v28.989h16.565z" fill="#bababa" stroke-width=".82825"/>
<path d="m48.886 89.975v-56.321h16.565l16.565 20.706 16.565-20.706h16.565v56.321h-16.565v-32.302l-16.565 20.706-16.565-20.706v32.302z" fill="#bababa" stroke-width=".82825"/>
<g transform="translate(53.565 11.511)" fill-rule="evenodd" stroke-width=".13868">
<path d="m-66.795 68.323c-27.614 0-50-14.992-50-33.486 0-18.494 22.386-33.486 50-33.486 27.614 0 50 14.992 50 33.486 0 18.494-22.386 33.486-50 33.486zm7.6534-53.881c-20.989 0-38.004 10.249-38.004 22.893 0 12.643 17.015 22.893 38.004 22.893 20.989 0 36.479-7.0073 36.479-22.893 0-15.88-15.49-22.893-36.479-22.893z" fill="url(#b)"/>
<path d="m-40.647 53.216s3.0262 0.9132 4.7844 1.8028c0.61005 0.3087 1.6655 0.92471 2.4269 1.7335 0.74581 0.79213 1.1094 1.5948 1.1094 1.5948l11.926 20.108-19.276 0.0086-9.0141-16.927s-1.8458-3.1714-2.9816-4.091c-0.94745-0.76703-1.3514-1.0401-2.2882-1.0401h-4.58l0.0036 22.046-17.057 0.0072v-56.316h34.254s15.601 0.28138 15.601 15.125c0 14.843-14.908 15.948-14.908 15.948zm-7.4193-18.857-10.326-0.0067-0.0051 9.5757 10.332-0.0033s4.7844-0.01484 4.7844-4.8711c0-4.9539-4.7844-4.6947-4.7844-4.6947z" fill="url(#a)"/>
</g>
</g>
</svg>
