<?xml version="1.0" encoding="UTF-8"?>
<svg version="1.1" viewBox="0 0 72 100" xmlns="http://www.w3.org/2000/svg" xmlns:xlink="http://www.w3.org/1999/xlink">
<defs>
<linearGradient id="e" x1="33.685" x2="33.685" y1="69.619" y2="30.831" gradientUnits="userSpaceOnUse" xlink:href="#b"/>
<linearGradient id="d" x1="37.823" x2="37.823" y1="60.533" y2="39.867" gradientUnits="userSpaceOnUse" xlink:href="#b"/>
</defs>
<linearGradient id="a" x1="36" x2="36" y1=".8" y2="98.8" gradientTransform="matrix(1 0 0 -1 0 100)" gradientUnits="userSpaceOnUse">
<stop stop-color="#c8d4db" offset="0"/>
<stop stop-color="#cfd9e0" offset=".047"/>
<stop stop-color="#e4eaed" offset=".225"/>
<stop stop-color="#f3f6f7" offset=".424"/>
<stop stop-color="#fcfdfd" offset=".655"/>
<stop stop-color="#fff" offset="1"/>
</linearGradient>
<path d="M45 1.2L72 28v71.2H0v-98h45z" fill="url(#a)" stroke="#7191a0" stroke-width="2"/>
<linearGradient id="b" x1="36.25" x2="36.25" y1="61.9" y2="23" gradientTransform="translate(-65.878)" gradientUnits="userSpaceOnUse">
<stop stop-color="#adccdc" offset="0"/>
<stop stop-color="#4c6c7b" offset="1"/>
</linearGradient>
<linearGradient id="c" x1="45.05" x2="58.55" y1="71.95" y2="85.45" gradientTransform="matrix(1 0 0 -1 0 100)" gradientUnits="userSpaceOnUse">
<stop stop-color="#fff" offset="0"/>
<stop stop-color="#fdfdfd" offset=".335"/>
<stop stop-color="#f5f7f8" offset=".51"/>
<stop stop-color="#e7ecee" offset=".647"/>
<stop stop-color="#d4dce0" offset=".765"/>
<stop stop-color="#bcc8cf" offset=".87"/>
<stop stop-color="#9eafb9" offset=".966"/>
<stop stop-color="#91a5b0" offset="1"/>
</linearGradient>
<g transform="translate(0 -7.75)">
<rect x="5.9133" y="32.27" width="60.173" height="35.861" ry="3.0391" fill="none" stroke="url(#e)" stroke-width="3.0391"/>
<path d="m13.511 60.533v-20.666h6.0781l6.0781 7.5977 6.0781-7.5977h6.0781v20.666h-6.0781v-11.852l-6.0781 7.5976-6.0781-7.5976v11.852zm37.988 0-9.1172-10.029h6.0781v-10.637h6.0781v10.637h6.0781z" fill="url(#d)" stroke-width=".30391"/>
</g>
<path d="M45 1.2L72 28H45V1.2z" fill="url(#c)" stroke="#7191a0" stroke-linejoin="bevel" stroke-width="2"/>
<g transform="translate(-3.4456)" fill="#4c6c7b">
<path d="m29.546 92.3v-19.8h6l3.7 13.5 3.6-13.5h6.1v19.8h-3.8v-15.6l-4 15.6h-3.9l-4-15.6v15.6zm23.3-19.8h7.4c1.7 0 2.9 0.1 3.8 0.4 1.2 0.3 2.2 1 3 1.8s1.5 1.9 1.9 3.2 0.7 2.8 0.7 4.7c0 1.6-0.2 3-0.6 4.2-0.5 1.4-1.2 2.6-2.1 3.5-0.7 0.7-1.6 1.2-2.8 1.6-0.9 0.3-2.1 0.4-3.6 0.4h-7.6v-19.8zm4.1 3.3v13.2h3c1.1 0 1.9-0.1 2.4-0.2 0.7-0.2 1.2-0.4 1.6-0.8s0.8-1 1.1-1.9 0.4-2.1 0.4-3.6-0.1-2.7-0.4-3.5-0.7-1.5-1.1-1.9-1.1-0.8-1.9-0.9c-0.6-0.1-1.7-0.2-3.3-0.2h-1.8z"/>
<path d="m9.2456 92.3v-19.8h8.5c2.1 0 3.7 0.2 4.7 0.5 1 0.4 1.7 1 2.3 1.9 0.6 0.9 0.9 2 0.9 3.1 0 1.5-0.4 2.7-1.3 3.7s-2.2 1.6-4 1.8c0.9 0.5 1.6 1.1 2.2 1.7s1.3 1.7 2.3 3.2l2.4 3.9h-4.8l-2.9-4.3c-1-1.5-1.8-2.5-2.1-2.9s-0.8-0.7-1.2-0.8-1.1-0.2-2-0.2h-0.8v8.3h-4.2zm4-11.4h3c1.9 0 3.2-0.1 3.6-0.2 0.5-0.2 0.9-0.4 1.1-0.8 0.3-0.4 0.4-0.9 0.4-1.5 0-0.7-0.2-1.2-0.5-1.6-0.4-0.4-0.9-0.7-1.5-0.8-0.3 0-1.3-0.1-3-0.1h-3.2v5z"/>
</g>
</svg>
