<svg height="64" width="76" xmlns="http://www.w3.org/2000/svg"><linearGradient id="a" gradientTransform="matrix(.08235 0 0 .05573 -.06 .108)" gradientUnits="userSpaceOnUse" x1=".741" x2="590.86" y1="3.666" y2="593.79"><stop offset="0" stop-color="#cbced0"/><stop offset="1" stop-color="#84838b"/></linearGradient><linearGradient id="b" gradientTransform="matrix(.06671 0 0 .0688 -.06 .108)" gradientUnits="userSpaceOnUse" x1="301.03" x2="703.07" y1="151.4" y2="553.44"><stop offset="0" stop-color="#276dc3"/><stop offset="1" stop-color="#165caa"/></linearGradient><path d="M27.406 63.688V41.383h6.48l6.477 8.187 6.48-8.187h6.481v22.304h-6.48V50.898l-6.48 8.184-6.477-8.184v12.79zm38.875 0-9.719-10.844h6.481V41.383h6.477v11.46H76zm0 0" fill="#999"/><g fill-rule="evenodd"><path d="M24.297 33.2C10.879 33.2 0 25.84 0 16.757S10.879.312 24.297.312c13.422 0 24.3 7.364 24.3 16.446s-10.878 16.441-24.3 16.441zm3.719-26.458c-10.2 0-18.47 5.031-18.47 11.242 0 6.207 8.27 11.243 18.47 11.243s17.73-3.442 17.73-11.243c0-7.797-7.531-11.242-17.73-11.242zm0 0" fill="url(#a)"/><path d="M37.004 25.781s1.473.45 2.324.887c.297.152.813.453 1.18.852.363.386.539.78.539.78l5.797 9.876-9.367.004-4.38-8.313s-.898-1.555-1.449-2.008c-.46-.375-.66-.511-1.113-.511H28.31l.003 10.828-8.289.004V10.523h16.645s7.582.137 7.582 7.426c0 7.29-7.246 7.832-7.246 7.832zm-3.606-9.258-5.015-.003-.004 4.703 5.02-.004s2.324-.008 2.324-2.39c0-2.434-2.325-2.306-2.325-2.306zm0 0" fill="url(#b)"/></g></svg>