<svg height="64" width="84" xmlns="http://www.w3.org/2000/svg"><path d="M68.633.102H16.39v7.226H5.738v2.274H0v2.062h5.738v2.684h10.653V26.94H5.738v2.477H0v2.066h5.738v2.27h10.653v13.625H5.738v2.48H0v2.063h5.738v2.273h10.653v9.703h52.242v-9.703h9.629v-2.48H84v-2.063h-5.738v-2.476h-9.63v-13.63h9.63v-2.062H84v-2.066h-5.738v-2.684h-9.63V14.141h9.63v-2.684H84V9.395h-5.738V7.12h-9.63zm-10.04 17.136c-2.253 0-4.097-1.86-4.097-4.129S56.34 8.98 58.594 8.98s4.097 1.86 4.097 4.13c0 2.476-1.843 4.128-4.097 4.128zm0 0" fill="#099"/></svg>