<svg height="63" width="47" xmlns="http://www.w3.org/2000/svg"><path d="M10.62.6c-.398 0-.8.3-.998.7l-1 1.901h-6.8c-.7 0-1.302.6-1.302 1.2-.098 10.6.2 21.299 0 31.899 0 .7.602 1.3 1.302 1.3H26.02c.7 0 1.302-.6 1.302-1.3V4.4c0-.6-.602-1.302-1.302-1.302h-6.799l-1-1.899c-.2-.4-.7-.7-1.2-.7-2.2.1-4.501.1-6.4.1zm0 0" fill="#666" stroke="#666" stroke-miterlimit="10" transform="matrix(1.67417 0 0 1.65354 .211 0)"/><path d="M5.438 9.426h7.53c0 2.148.169 4.133 2.18 4.133h17.075c2.175 0 2.175-2.149 2.175-4.133h7.536v48.449H5.605c-.168-16.207-.168-32.41-.168-48.45zm0 0" fill="#fff"/><path d="M10.793 21H36.41v4.3H10.793zm0 8.434H36.41v4.296H10.793zm0 8.433H36.41V42H10.793zm0 8.434h17.078v4.297H10.793zm0 0" fill="#666"/></svg>