<svg height="64" width="52" xmlns="http://www.w3.org/2000/svg"><path d="M48.793 26.879h-4.629V18.05C44.164 7.988 35.973.043 26 .043S7.836 8.164 7.836 18.051v8.828H3.207A3.181 3.181 0 0 0 0 30.059V60.78c0 1.762 1.426 3.176 3.207 3.176h45.586c1.781 0 3.207-1.414 3.207-3.176V29.883c0-1.59-1.426-3.004-3.207-3.004zM29.918 52.305c.355 1.058-.535 1.941-1.602 1.941h-4.808c-1.07 0-1.781-1.059-1.606-1.941l1.426-5.649c-1.781-.883-3.027-2.648-3.027-4.945 0-3 2.492-5.473 5.52-5.473 3.027 0 5.523 2.473 5.523 5.473 0 2.117-1.246 4.062-3.028 4.945zm5.164-25.426H16.918V18.05c0-4.942 4.098-9.004 9.082-9.004s9.082 4.062 9.082 9.004zm0 0" fill="#696"/></svg>