<svg height="64" width="64" xmlns="http://www.w3.org/2000/svg"><path d="M14.54 49.375c1.593 1.594 2.48 3.723 2.48 6.027 0 2.305-.887 4.43-2.48 6.028a8.46 8.46 0 0 1-6.032 2.48 8.451 8.451 0 0 1-6.028-2.48C.887 59.832 0 57.883 0 55.402c0-2.304.887-4.433 2.48-6.027a8.439 8.439 0 0 1 6.028-2.484c2.484 0 4.433 1.066 6.031 2.484zM.175 21.719v12.23c7.98 0 15.426 3.192 21.097 8.688 5.676 5.672 8.688 13.12 8.688 21.097h12.234c0-11.523-4.789-22.16-12.41-29.785C22.16 26.504 11.7 21.72.175 21.72zm0-21.63V12.32c28.367 0 51.59 23.227 51.59 51.59H64c0-17.55-7.09-33.504-18.793-45.027C33.684 7.18 17.73.09.176.09zm0 0" fill="#dd7d36"/></svg>