<svg height="64" width="71" xmlns="http://www.w3.org/2000/svg"><linearGradient id="a" gradientTransform="matrix(.07693 0 0 .05184 -.057 .13)" gradientUnits="userSpaceOnUse" x1=".741" x2="590.86" y1="3.666" y2="593.79"><stop offset="0" stop-color="#cbced0"/><stop offset="1" stop-color="#84838b"/></linearGradient><linearGradient id="b" gradientTransform="matrix(.06233 0 0 .064 -.057 .13)" gradientUnits="userSpaceOnUse" x1="301.03" x2="703.07" y1="151.4" y2="553.44"><stop offset="0" stop-color="#276dc3"/><stop offset="1" stop-color="#165caa"/></linearGradient><path d="M22.7 30.914C10.163 30.914 0 24.066 0 15.617 0 7.168 10.164.32 22.7.32c12.534 0 22.698 6.848 22.698 15.297 0 8.45-10.16 15.297-22.699 15.297zm3.476-24.613c-9.531 0-17.254 4.683-17.254 10.457 0 5.777 7.723 10.46 17.254 10.46 9.527 0 16.558-3.202 16.558-10.46 0-7.254-7.03-10.457-16.558-10.457zm0 0" fill="url(#a)" fill-rule="evenodd"/><path d="M34.57 24.016s1.375.414 2.172.82c.278.144.758.426 1.102.793.34.363.504.73.504.73l5.414 9.184-8.75.004-4.094-7.73s-.836-1.45-1.352-1.872c-.43-.347-.613-.472-1.039-.472H26.45v10.07l-7.742.004V9.82h15.55s7.083.13 7.083 6.907c0 6.78-6.77 7.285-6.77 7.285zm-3.367-8.618h-4.687l-.004 4.372h4.691s2.172-.008 2.172-2.227c0-2.262-2.172-2.145-2.172-2.145zm0 0" fill="url(#b)" fill-rule="evenodd"/><path d="M-24.46 120.549a1.43 1.43 0 0 1-.97-.386l-5.364-5.43c-.517-.517-.517-1.357 0-1.94l5.43-5.43c.515-.517 1.357-.517 1.938 0 .518.517.518 1.36 0 1.94l-4.46 4.461 4.46 4.46c.518.517.518 1.356 0 1.939-.322.257-.71.386-1.035.386zm16.222 0a1.43 1.43 0 0 1-.97-.386c-.517-.517-.517-1.357 0-1.94l4.461-4.459-4.46-4.461c-.518-.517-.518-1.357 0-1.94.517-.517 1.357-.517 1.94 0l5.428 5.43c.517.517.517 1.357 0 1.94l-5.427 5.43a1.432 1.432 0 0 1-.972.386zm-10.793 2.65c-.13 0-.26 0-.452-.062-.71-.26-1.098-.971-.84-1.683l5.427-16.222c.26-.711.972-1.1 1.683-.84.71.257 1.098.969.84 1.68l-5.43 16.222c-.13.583-.71.906-1.228.906zm0 0" fill="#999" stroke="#999" stroke-miterlimit="10" stroke-width=".97" transform="matrix(1.47916 0 0 1.48836 72.435 -120.409)"/></svg>