<?xml version="1.0" encoding="UTF-8" standalone="no"?>
<svg
   xmlns:dc="http://purl.org/dc/elements/1.1/"
   xmlns:cc="http://creativecommons.org/ns#"
   xmlns:rdf="http://www.w3.org/1999/02/22-rdf-syntax-ns#"
   xmlns:svg="http://www.w3.org/2000/svg"
   xmlns="http://www.w3.org/2000/svg"
   viewBox="0 0 72 100"
   version="1.1"
   id="svg7559">
  <metadata
     id="metadata7565">
    <rdf:RDF>
      <cc:Work
         rdf:about="">
        <dc:format>image/svg+xml</dc:format>
        <dc:type
           rdf:resource="http://purl.org/dc/dcmitype/StillImage" />
        <dc:title></dc:title>
      </cc:Work>
    </rdf:RDF>
  </metadata>
  <defs
     id="defs7563" />
  <linearGradient
     id="a"
     gradientUnits="userSpaceOnUse"
     x1="36"
     y1="97"
     x2="36"
     y2="-1"
     gradientTransform="translate(0 2)">
    <stop
       offset="0"
       stop-color="#c8d4db"
       id="stop7449" />
    <stop
       offset=".139"
       stop-color="#d8e1e6"
       id="stop7451" />
    <stop
       offset=".359"
       stop-color="#ebf0f3"
       id="stop7453" />
    <stop
       offset=".617"
       stop-color="#f9fafb"
       id="stop7455" />
    <stop
       offset="1"
       stop-color="#fff"
       id="stop7457" />
  </linearGradient>
  <path
     d="M45 1l27 26.7V99H0V1h45z"
     fill="url(#a)"
     id="path7460" />
  <path
     d="M45 1l27 26.7V99H0V1h45z"
     fill-opacity="0"
     stroke="#7191a1"
     stroke-width="2"
     id="path7462" />
  <g
     opacity=".9"
     id="g7536">
    <linearGradient
       id="b"
       gradientUnits="userSpaceOnUse"
       x1="19.014"
       y1="60.793"
       x2="19.014"
       y2="32.603">
      <stop
         offset="0"
         stop-color="#adccdc"
         id="stop7464" />
      <stop
         offset=".153"
         stop-color="#9ab9c9"
         id="stop7466" />
      <stop
         offset=".529"
         stop-color="#708f9f"
         id="stop7468" />
      <stop
         offset=".824"
         stop-color="#567685"
         id="stop7470" />
      <stop
         offset="1"
         stop-color="#4c6c7b"
         id="stop7472" />
    </linearGradient>
    <linearGradient
       id="c"
       gradientUnits="userSpaceOnUse"
       x1="19.014"
       y1="62.979"
       x2="19.014"
       y2="30.418">
      <stop
         offset="0"
         stop-color="#adccdc"
         id="stop7475" />
      <stop
         offset=".153"
         stop-color="#9ab9c9"
         id="stop7477" />
      <stop
         offset=".529"
         stop-color="#708f9f"
         id="stop7479" />
      <stop
         offset=".824"
         stop-color="#567685"
         id="stop7481" />
      <stop
         offset="1"
         stop-color="#4c6c7b"
         id="stop7483" />
    </linearGradient>
    <path
       d="M12 44.7l14-12.1v6.1l-9.5 7.9v.1l9.5 7.9v6.1l-14-12v-4z"
       fill="url(#b)"
       stroke="url(#c)"
       stroke-width="2"
       stroke-miterlimit="10"
       id="path7486" />
    <linearGradient
       id="d"
       gradientUnits="userSpaceOnUse"
       x1="36.686"
       y1="64.5"
       x2="36.686"
       y2="29.5">
      <stop
         offset="0"
         stop-color="#adccdc"
         id="stop7488" />
      <stop
         offset=".153"
         stop-color="#9ab9c9"
         id="stop7490" />
      <stop
         offset=".529"
         stop-color="#708f9f"
         id="stop7492" />
      <stop
         offset=".824"
         stop-color="#567685"
         id="stop7494" />
      <stop
         offset="1"
         stop-color="#4c6c7b"
         id="stop7496" />
    </linearGradient>
    <linearGradient
       id="e"
       gradientUnits="userSpaceOnUse"
       x1="36.688"
       y1="65.5"
       x2="36.688"
       y2="28.5">
      <stop
         offset="0"
         stop-color="#adccdc"
         id="stop7499" />
      <stop
         offset=".153"
         stop-color="#9ab9c9"
         id="stop7501" />
      <stop
         offset=".529"
         stop-color="#708f9f"
         id="stop7503" />
      <stop
         offset=".824"
         stop-color="#567685"
         id="stop7505" />
      <stop
         offset="1"
         stop-color="#4c6c7b"
         id="stop7507" />
    </linearGradient>
    <path
       d="M38.4 29.5h3.7l-7.2 35h-3.6l7.1-35z"
       fill="url(#d)"
       stroke="url(#e)"
       stroke-width="2"
       stroke-miterlimit="10"
       id="path7510" />
    <linearGradient
       id="f"
       gradientUnits="userSpaceOnUse"
       x1="54.186"
       y1="61.052"
       x2="54.186"
       y2="32.69">
      <stop
         offset="0"
         stop-color="#adccdc"
         id="stop7512" />
      <stop
         offset=".153"
         stop-color="#9ab9c9"
         id="stop7514" />
      <stop
         offset=".529"
         stop-color="#708f9f"
         id="stop7516" />
      <stop
         offset=".824"
         stop-color="#567685"
         id="stop7518" />
      <stop
         offset="1"
         stop-color="#4c6c7b"
         id="stop7520" />
    </linearGradient>
    <linearGradient
       id="g"
       gradientUnits="userSpaceOnUse"
       x1="54.186"
       y1="63.238"
       x2="54.186"
       y2="30.504">
      <stop
         offset="0"
         stop-color="#adccdc"
         id="stop7523" />
      <stop
         offset=".153"
         stop-color="#9ab9c9"
         id="stop7525" />
      <stop
         offset=".529"
         stop-color="#708f9f"
         id="stop7527" />
      <stop
         offset=".824"
         stop-color="#567685"
         id="stop7529" />
      <stop
         offset="1"
         stop-color="#4c6c7b"
         id="stop7531" />
    </linearGradient>
    <path
       d="M47.2 54.8l9.5-7.9v-.1l-9.5-7.9v-6.1l14 12.1V49l-14 12.1v-6.3z"
       fill="url(#f)"
       stroke="url(#g)"
       stroke-width="2"
       stroke-miterlimit="10"
       id="path7534" />
  </g>
  <linearGradient
     id="h"
     gradientUnits="userSpaceOnUse"
     x1="45.037"
     y1="25.813"
     x2="58.537"
     y2="12.313"
     gradientTransform="translate(0 2)">
    <stop
       offset="0"
       stop-color="#fff"
       id="stop7538" />
    <stop
       offset=".35"
       stop-color="#fafbfb"
       id="stop7540" />
    <stop
       offset=".532"
       stop-color="#edf1f4"
       id="stop7542" />
    <stop
       offset=".675"
       stop-color="#dde5e9"
       id="stop7544" />
    <stop
       offset=".799"
       stop-color="#c7d3da"
       id="stop7546" />
    <stop
       offset=".908"
       stop-color="#adbdc7"
       id="stop7548" />
    <stop
       offset="1"
       stop-color="#92a5b0"
       id="stop7550" />
  </linearGradient>
  <path
     d="M45 1l27 26.7H45V1z"
     fill="url(#h)"
     id="path7553" />
  <path
     d="M45 1l27 26.7H45V1z"
     fill-opacity="0"
     stroke="#7191a1"
     stroke-width="2"
     stroke-linejoin="bevel"
     id="path7555" />
  <path
     d="M 55.4,91.5 V 75.9 h 3.2 v 13 h 8 v 2.7 H 55.4 Z"
     id="path9875"
     style="fill:#4c6c7b;fill-opacity:1" />
  <path
     d="M 36.8,91.6 V 75.9 h 4.8 l 2.9,10.7 2.9,-10.7 h 4.8 v 15.7 h -3 V 79.2 L 46,91.6 H 42.9 L 39.8,79.2 v 12.4 z"
     id="path9873"
     style="fill:#4c6c7b;fill-opacity:1" />
  <path
     d="m 20.7,91.6 5.4,-8.2 -4.9,-7.5 H 25 l 3.2,5.1 3.1,-5.1 H 35 l -4.9,7.6 5.4,8.1 h -3.9 l -3.5,-5.4 -3.5,5.4 z"
     id="path7557"
     style="fill:#4c6c7b;fill-opacity:1" />
  <path
     d="m 5.4,91.55 v -15.7 h 6.799999 c 1.7,0 2.9,0.1 3.7,0.4 0.8,0.3 1.4,0.8 1.9,1.5 0.5,0.7 0.7,1.6 0.7,2.5 0,1.2 -0.4,2.2 -1.1,2.9 -0.7,0.8 -1.8,1.3 -3.1,1.5 0.7,0.4 1.3,0.8 1.7,1.3 0.4,0.5 1.1,1.3 1.8,2.6 l 1.9,3.1 h -3.8 l -2.3,-3.4 c -0.8,-1.2 -1.4,-2 -1.7,-2.3 -0.3,-0.3 -0.6,-0.5 -1,-0.7 -0.3,-0.1 -0.9,-0.2 -1.599999,-0.2 H 8.6 v 6.6 H 5.4 Z m 3.3,-9.1 h 2.399999 c 1.5,0 2.5,-0.1 2.9,-0.2 0.4,-0.1 0.7,-0.4 0.9,-0.7 0.2,-0.3 0.3,-0.7 0.3,-1.2 0,-0.5 -0.1,-1 -0.4,-1.3 -0.3,-0.3 -0.7,-0.5 -1.2,-0.6 -0.3,0 -1,-0.1 -2.3,-0.1 H 8.8 v 4.1 z"
     fill="#4c6c7b"
     id="path8336" />
</svg>
