<?xml version="1.0" encoding="UTF-8"?>
<svg version="1.1" viewBox="0 0 72 96" xmlns="http://www.w3.org/2000/svg">
<defs>
<linearGradient id="b" x1=".74144" x2="590.86" y1="3.6658" y2="593.79" gradientTransform="scale(1.2219 .81837)" gradientUnits="userSpaceOnUse">
<stop stop-color="#cbced0" offset="0"/>
<stop stop-color="#84838b" offset="1"/>
</linearGradient>
<linearGradient id="a" x1="301.03" x2="703.07" y1="151.4" y2="553.44" gradientTransform="scale(.98995 1.0102)" gradientUnits="userSpaceOnUse">
<stop stop-color="#276dc3" offset="0"/>
<stop stop-color="#165caa" offset="1"/>
</linearGradient>
</defs>
<style>.st0{fill:#999}</style>
<path class="st0" d="M0 2v92c0 1.1.9 2 2 2h68c1.1 0 2-.9 2-2V28H50c-1.1 0-2-.9-2-2V0H2C.9 0 0 .9 0 2z"/>
<path class="st0" d="M71.9 24c-.1-.4-.2-.7-.4-1L52 1.2V24h19.9z"/>
<path d="m6 41h60v49h-60zm11.847-27.5-3-7h2.5l1.2 3.5c0.3 0.8 0.5 1.7 0.5 1.7s0.2-0.9 0.5-1.7l1.5-3.5h2.4l-3 7 3.1 7.2h-2.4l-1.4-3.8c-0.3-0.8-0.5-1.6-0.5-1.6s-0.2 0.8-0.5 1.6l-1.4 3.8h-2.6zm7.7531-7h2.4l1.7 6.9c0.2 0.9 0.4 2.2 0.4 2.2h0.1s0.2-1.3 0.4-2.2l1.7-6.9h2.4l0.8 14.2h-2.1l-0.4-7.9c-0.1-0.9 0-2.2 0-2.2h-0.1s-0.2 1.4-0.4 2.3l-1.4 5.4h-2.2l-1.4-5.4c-0.2-0.8-0.4-2.3-0.4-2.3h-0.1s0.1 1.3 0 2.2l-0.4 7.9h-2.1zm12 0h2.2v12h4.2v2.2h-6.4z" fill="#fff"/>
<path d="m6 6.5h3.6c0.5 0 1.1 0.1 1.6 0.4 1.1 0.6 1.9 2 1.9 3.8 0 1.9-0.9 3.3-1.8 3.9 0 0 0.2 0.3 0.4 0.8l2.1 5.3h-2.3l-1.9-5.3h-1.3v5.3h-2.1v-14.2zm3.3 6.7c0.9 0 1.7-0.9 1.7-2.3 0-0.8-0.2-1.5-0.7-1.9-0.3-0.2-0.7-0.3-1-0.3h-1.2v4.5z" fill="#fff"/>
<g transform="matrix(.99998 0 0 .99998 61.27 -36.905)">
<g transform="matrix(.042564 0 0 .042564 -49.009 80.988)" fill-rule="evenodd">
<path d="m361.45 485.94c-199.12 0-360.55-108.11-360.55-241.47s161.42-241.47 360.55-241.47c199.12 0 360.55 108.11 360.55 241.47s-161.42 241.47-360.55 241.47zm55.188-388.53c-151.35 0-274.05 73.908-274.05 165.08s122.7 165.08 274.05 165.08 263.05-50.529 263.05-165.08c0-114.51-111.7-165.08-263.05-165.08z" fill="url(#b)"/>
<path d="m550 377s21.822 6.585 34.5 13c4.399 2.226 12.01 6.668 17.5 12.5 5.378 5.712 8 11.5 8 11.5l86 145-139 0.062-65-122.06s-13.31-22.869-21.5-29.5c-6.832-5.531-9.745-7.5-16.5-7.5h-33.026l0.026 158.97-123 0.052v-406.09h247s112.5 2.029 112.5 109.06-107.5 115-107.5 115zm-53.5-135.98-74.463-0.048-0.037 69.05 74.5-0.024s34.5-0.107 34.5-35.125c0-35.722-34.5-33.853-34.5-33.853z" fill="url(#a)"/>
</g>
<path d="m-24.46 120.55c-0.32318 0-0.71099-0.12927-0.96953-0.38781l-5.3647-5.4293c-0.51708-0.51709-0.51708-1.3573 0-1.9391l5.4293-5.4294c0.51708-0.51708 1.3573-0.51708 1.9391 0 0.51708 0.51708 0.51708 1.3573 0 1.9391l-4.4598 4.4598 4.4598 4.4598c0.51708 0.51708 0.51708 1.3573 0 1.939-0.32318 0.25854-0.71099 0.38781-1.0342 0.38781zm16.223 0c-0.32318 0-0.71099-0.12927-0.96953-0.38781-0.51708-0.51708-0.51708-1.3573 0-1.939l4.4598-4.4598-4.4598-4.4598c-0.51708-0.51708-0.51708-1.3573 0-1.9391 0.51708-0.51708 1.3573-0.51708 1.9391 0l5.4293 5.4294c0.51708 0.51708 0.51708 1.3573 0 1.9391l-5.4293 5.4293c-0.25854 0.25854-0.64635 0.38781-0.96953 0.38781zm-10.794 2.65c-0.12927 0-0.25854 0-0.45244-0.0646-0.71099-0.25854-1.0988-0.96953-0.84026-1.6805l5.4293-16.223c0.25854-0.71099 0.96953-1.0988 1.6805-0.84026 0.71099 0.25854 1.0988 0.96953 0.84026 1.6805l-5.4293 16.223c-0.12927 0.58172-0.71099 0.90489-1.2281 0.90489z" fill="#999" stroke="#999" stroke-miterlimit="10" stroke-width=".96953"/>
</g>
</svg>
