<svg xmlns="http://www.w3.org/2000/svg" width="83" height="63"><path style="fill-rule:nonzero;fill:#cd6799;fill-opacity:1;stroke-width:.25;stroke-linecap:butt;stroke-linejoin:miter;stroke:#cd6799;stroke-opacity:1;stroke-miterlimit:10" d="M40.764 20.63c-1.602 0-3.101.4-4.3 1-.4-.9-.9-1.601-1.001-2.198-.1-.7-.2-1.001-.1-1.8.1-.804.599-1.904.599-2.003 0-.098-.1-.498-1-.498-.998 0-1.797.099-1.797.4-.101.197-.302.799-.4 1.398-.102.9-1.903 3.901-2.903 5.502-.3-.7-.6-1.201-.7-1.6-.1-.701-.2-1.002-.1-1.8.1-.802.6-1.902.6-2.001 0-.101-.1-.498-1-.498s-1.801.098-1.801.4c-.096.3-.197.798-.398 1.4-.2.597-2.5 5.598-3.1 6.999-.302.698-.6 1.2-.7 1.598v.101c-.099.301-.3.5-.3.5-.1.2-.3.4-.4.4-.101 0-.101-.599 0-1.5.4-1.8 1.199-4.5 1.199-4.6 0-.1.1-.5-.5-.8-.7-.2-.9.101-.997.101-.103 0-.103.099-.103.099s.7-3.1-1.399-3.1c-1.3 0-3.2 1.5-4.2 2.801-.6.299-1.8.997-3.2 1.697-.499.301-1 .602-1.5.802l-.1-.101c-2.598-2.8-7.5-4.8-7.3-8.6.099-1.398.5-4.999 9.3-9.3 7.202-3.598 13-2.6 13.9-.4 1.4 3.2-3.1 9.002-10.6 9.799-2.901.303-4.3-.797-4.7-1.199-.4-.4-.4-.4-.6-.4-.2.102-.098.501 0 .701.2.6 1.202 1.6 2.699 2.101 1.4.397 4.7.698 8.702-.9 4.498-1.8 8.099-6.602 6.998-10.7-1-4.102-7.9-5.5-14.4-3.202-3.898 1.401-8.098 3.5-11.1 6.4-3.6 3.4-4.099 6.2-3.9 7.502.801 4.299 6.8 7.1 9.202 9.199-.1.1-.201.1-.302.1-1.2.6-5.7 2.901-6.897 5.5-1.3 2.9.197 4.898 1.2 5.1 3.099.898 6.198-.7 7.897-3.2 1.7-2.501 1.501-5.8.702-7.3v-.101c.3-.1.7-.4.998-.499.6-.4 1.2-.7 1.7-1-.299.8-.5 1.8-.599 3.2-.098 1.6.5 3.7 1.399 4.5.4.4.8.4 1.103.4.998 0 1.497-.801 1.998-1.8.6-1.2 1.2-2.6 1.2-2.6s-.7 3.799 1.2 3.799c.7 0 1.4-.9 1.7-1.3l.1-.099.1-.1c.299-.501.9-1.5 1.8-3.401 1.2-2.3 2.3-5.298 2.3-5.298s.1.698.4 1.899c.2.7.7 1.5 1 2.2-.3.4-.401.6-.401.6-.2.3-.398.599-.698.998-1 1.1-2.101 2.402-2.2 2.802-.1.4-.1.7.197 1 .201.2.703.2 1.202.2.8-.1 1.499-.3 1.698-.4.4-.1 1-.4 1.502-.8 1-.7 1.499-1.601 1.4-2.9 0-.701-.3-1.4-.5-2.1.1-.1.1-.2.2-.4 1.5-2.1 2.6-4.5 2.6-4.5s.1.7.4 1.9c.1.6.5 1.2.8 1.9-1.4 1.1-2.202 2.4-2.5 3.2-.5 1.501-.1 2.3.699 2.399.4.1.9-.101 1.202-.299.499-.1 1-.4 1.6-.801 1-.698 1.799-1.6 1.799-2.898 0-.602-.1-1.203-.4-1.701 1.2-.501 2.602-.7 4.5-.501 4.099.5 4.9 3.001 4.8 4.101-.1 1.1-1 1.7-1.3 1.8-.3.1-.4.2-.4.4s.1.1.4.1c.4-.1 2.1-.9 2.199-2.9.201-2.2-2.2-4.9-6.4-4.9zm-31.5 10.701c-1.3 1.5-3.203 2.099-4.002 1.5-.9-.501-.499-2.7 1.101-4.301.998-1 2.3-1.8 3.2-2.299.2-.1.5-.3.799-.5.1 0 .1-.101.1-.101.101-.101.101-.101.202-.101.6 2.2 0 4.1-1.4 5.802zm9.9-6.801c-.401 1.2-1.5 4.1-2.1 4-.501-.101-.801-2.301-.1-4.5.4-1.1 1.199-2.4 1.6-2.901.7-.8 1.499-1.1 1.799-.7.2.202-.9 3.4-1.2 4.1zm8.1 3.899c-.202.1-.403.1-.403.1l.1-.1s1-1.1 1.402-1.599c.199-.298.5-.7.8-1v.1c-.1 1.199-1.4 2.1-1.9 2.5zm6.2-1.401c-.1-.099-.1-.4.399-1.5.2-.399.7-1.1 1.4-1.8.1.301.1.503.1.802 0 1.6-1.102 2.2-1.9 2.498zm0 0" transform="matrix(1.7456 0 0 1.77926 .217 0)"/></svg>