<svg height="64" width="70" xmlns="http://www.w3.org/2000/svg"><g fill="#c60" stroke="#c60" stroke-miterlimit="10"><path d="M53 47.7H19a3.116 3.116 0 0 0-3.101 3.1v21.8c0 1.7 1.4 3.1 3.101 3.1h14.2L31.8 81h-1.6c-.7 0-1.2.501-1.2 1.2s.5 1.2 1.2 1.2h11.5c.7 0 1.2-.501 1.2-1.2s-.5-1.2-1.2-1.2H40l-1.4-5.4H53c1.7 0 3.101-1.4 3.101-3.1V50.8c0-1.7-1.4-3.1-3.101-3.1zm.3 25.1H18.7V50.6h34.5zm0 0" transform="matrix(1.69903 0 0 1.72133 -26.165 -80.833)"/><path d="M27.6 63.9h2.8v5.6h-2.8zm4.7-1.8h2.801v7.4h-2.8zM36.9 60.2h2.8v9.302h-2.8zm4.6-1.8h2.8v11.102h-2.8zm-.2-4.098L36.4 56.999l-3.6-1.198-6.1 3.3.9.998 5.4-2.798 3.6 1.198 5.6-3.1.9 1.001 2.101-3.5-4.8.3zm0 0" transform="matrix(1.69903 0 0 1.72133 -26.165 -80.833)"/></g></svg>