<svg height="64" width="64" xmlns="http://www.w3.org/2000/svg"><path d="M30.871 11.793h2.602c.867 0 1.39-.691 1.39-1.387v-9.02C34.863.52 34.168 0 33.473 0H30.87c-.867 0-1.387.695-1.387 1.387v8.847c-.172.868.52 1.559 1.387 1.559zm21.336 18.906v2.602c0 .867.691 1.386 1.387 1.386h9.02c.866 0 1.386-.69 1.386-1.386v-2.602c0-.867-.695-1.387-1.387-1.387h-9.02c-.695-.175-1.386.52-1.386 1.387zM33.301 64c.867 0 1.386-.695 1.386-1.387v-9.02c0-.866-.69-1.386-1.386-1.386h-2.602c-.867 0-1.387.691-1.387 1.387v9.02c0 .866.692 1.386 1.387 1.386zM1.387 34.687h9.02c.866 0 1.386-.69 1.386-1.386v-2.602c0-.867-.691-1.387-1.387-1.387h-9.02C.52 29.313 0 30.005 0 30.7v2.602c0 .695.695 1.386 1.387 1.386zM47.176 18.56c.52.52 1.562.52 2.082 0l6.418-6.418c.52-.52.52-1.563 0-2.082L53.94 8.324c-.52-.52-1.562-.52-2.082 0l-6.418 6.418c-.52.52-.52 1.563 0 2.082zM53.94 55.5l1.735-1.734c.52-.52.52-1.559 0-2.078l-6.418-6.418c-.52-.524-1.563-.524-2.082 0l-1.735 1.734c-.52.52-.52 1.559 0 2.082L51.86 55.5c.52.523 1.387.523 2.082 0zm-41.629 0 6.418-6.414c.524-.523.524-1.563 0-2.082l-1.734-1.734c-.52-.524-1.558-.524-2.082 0L8.5 51.687c-.523.52-.523 1.56 0 2.079l1.734 1.734c.692.523 1.559.523 2.079 0zm2.602-36.941c.523.52 1.563.52 2.082 0l1.734-1.735c.524-.52.524-1.562 0-2.082l-6.418-6.418c-.519-.52-1.558-.52-2.078 0L8.5 10.06c-.523.52-.523 1.562 0 2.082zm0 0" fill="#fea500"/></svg>