<svg height="64" width="64" xmlns="http://www.w3.org/2000/svg"><g fill="#bababa"><path d="M30.906 0h3.746v2.496h-3.746zm31.532 26.066c.156-2.027 0-4.058-.465-5.93h-8.899v-3.745h7.18a15.572 15.572 0 0 0-2.031-2.496l-8.895-8.899-1.406 14.047c-.313 3.59-2.027 6.871-4.527 9.367v6.242h4.996c2.808 0 5.308 1.094 7.18 2.657 2.808-1.72 4.84-4.371 6.09-7.336h-8.587v-3.75h9.364zM34.651 2.652V7.18h-3.746V2.652H19.98l1.563 15.922c.312 2.813 1.559 5.465 3.746 7.34 2.027 1.871 4.836 2.965 7.648 2.965 2.81 0 5.461-1.094 7.649-2.965 2.027-1.875 3.434-4.527 3.746-7.34l1.563-15.922zm5.153 12.176h-4.996v6.09h-3.746v-6.09h-4.997v-3.746h13.739zm0 0"/><path d="M48.234 38.242h-8.742v-7.336c-2.027 1.094-4.37 1.563-6.71 1.563-2.344 0-4.684-.625-6.716-1.563v7.336h-8.738a7.33 7.33 0 0 0-7.336 7.34v4.68c5.774.937 10.145 5.933 10.145 11.863V64h23.57v-1.875c0-6.555 5.309-11.863 11.863-12.02v-4.523a7.33 7.33 0 0 0-7.336-7.34zm0 0"/><path d="M55.727 53.855c-4.528 0-8.274 3.747-8.274 8.27V64h6.402v-4.996h3.747V64H64v-1.875c0-4.68-3.746-8.27-8.273-8.27zm-37.93-34.968L16.39 4.84l-8.899 8.898a15.342 15.342 0 0 0-2.027 2.496h7.18v3.746H3.746c-.625 1.875-.781 3.903-.469 5.934h9.524v3.746H4.215c1.094 2.965 3.277 5.617 6.086 7.336 1.875-1.719 4.527-2.656 7.183-2.656h4.993v-6.242a13.914 13.914 0 0 1-4.68-9.211zM8.273 53.855C3.746 53.855 0 57.602 0 62.125V64h6.398v-4.996h3.747V64h6.402v-1.875c0-4.68-3.746-8.27-8.274-8.27zm0 0"/></g></svg>