<svg height="64" width="52" xmlns="http://www.w3.org/2000/svg"><path d="M46.168 13.516c1.793-.711 3.766-.891 5.738-.891V.008c-8.605-.18-16.851 3.554-22.23 10.308-2.153 2.844-4.125 5.864-5.559 9.243l-4.12 10.128c-1.079 3.024-2.333 6.223-3.767 9.067a31.916 31.916 0 0 1-3.945 6.754c-1.254 1.777-3.047 3.199-5.02 4.09-2.152 1.066-4.66 1.597-7.171 1.597v12.797c8.605.18 16.851-3.554 22.23-10.308 1.613-2.309 3.227-4.797 4.485-7.286l3.406-8h14.879v-12.62h-9.86c.715-1.954 1.793-3.731 3.047-5.508.895-1.602 2.153-2.844 3.407-3.91 1.613-1.422 3.046-2.313 4.48-2.844zm0 0" fill="#999"/></svg>