<svg height="63" width="60" xmlns="http://www.w3.org/2000/svg"><path d="M57.96 53.09 37.532 32.832l-.527-.523 3.7-3.844.526-.524c4.754 1.747 10.391.875 14.266-2.968 2.816-2.793 4.227-6.637 3.875-10.653 0-.523-.355-.875-.707-1.047-.352-.175-.879 0-1.23.348l-6.516 6.461-6.871-1.57-1.758-6.813 6.516-6.46c.351-.348.351-.872.351-1.223-.176-.348-.527-.7-1.058-.7-4.051-.347-7.922 1.051-10.743 3.844-3.87 3.844-4.93 9.43-2.992 14.145l-.527.523-5.285 5.067-9.86-9.782-.355-.347c.176-.176.176-.352.355-.7 2.114.348 5.809-3.668 8.98-6.812L18.337 0c-4.227 4.191-7.219 6.984-6.867 8.906-.88.524-1.762 1.047-2.465 1.57L7.77 11.7c-.88.875-1.407 1.922-1.582 2.969-.176.176-.176.352-.352.523l-.531 1.051v.172l-.528.7c-.351.35-.527.698-.703 1.222a.378.378 0 0 1-.351.352l-.18.171c-.176.524-.527.875-.703 1.399-.176.523-.527 1.222-.703 1.922v.347c0 .176-.176.524-.176.7l-.176.875c-.176.523-.176 1.046-.176 1.57v3.144l.176.696v.351c0 .348.176.524.176.871l.527 1.575c.176.523.703.87 1.235.87.351 0 .527-.171.703-.347s.351-.352.351-.7l.176-1.745c0-.176 0-.348.176-.524 0-.175 0-.351.176-.351l.175-.696s0-.175.176-.175c0 0 0-.176.18-.176 0-.172.176-.348.176-.348.175-.351.175-.523.351-.699 0-.176.176-.176.176-.348.176-.351.352-.527.527-.875l.352-.523c0-.176.176-.176.352-.352l.18-.172c.175-.351.527-.523.878-.875l.176-.171c.176-.176.527-.352.703-.528.176 0 .176-.172.355-.172.176 0 .176-.175.352-.175.176-.176.352-.348.703-.348l.528-.352.53-.175c.177-.172.352-.172.528-.172s.176 0 .352-.176c0 0 .175 0 .175-.176.176 0 .176 0 .352-.172h.176c.176.172.351.524.531.696l9.684 9.605L2.488 51.52c-2.64 2.617-2.992 6.285-.351 8.906 2.64 2.617 6.164 1.918 8.629-.7l18.136-19.035.356.348 20.426 20.258a5.883 5.883 0 0 0 8.277 0 5.763 5.763 0 0 0 0-8.207zM7.95 57.629c-.884.875-2.47.875-3.348 0-.88-.871-.88-2.445 0-3.316.878-.876 2.464-.876 3.347 0a2.134 2.134 0 0 1 0 3.316zm0 0" fill="#999"/></svg>