<svg height="64" width="67" xmlns="http://www.w3.org/2000/svg"><path d="M12.726.224c-2.801 0-5.202 2.302-5.202 5.2 0 2.8 2.302 5.2 5.202 5.2.9 0 1.698-.199 2.4-.599l2.099 2.101-6 6c-.999.999-.999 2.7 0 3.698l.2.202L23.524 9.925c.702.4 1.602.601 2.4.601 2.801 0 5.202-2.302 5.202-5.2 0-2.8-2.302-5.2-5.202-5.2-2.798 0-5.199 2.3-5.199 5.2 0 .898.2 1.698.601 2.4l-2.101 2.098-2.1-2.098c.399-.702.6-1.6.6-2.4.2-2.8-2.2-5.102-5-5.102zm0 3.001c1.199 0 2.2 1 2.2 2.2 0 1.2-1.001 2.2-2.2 2.2a2.22 2.22 0 0 1-2.2-2.2c0-1.3.998-2.2 2.2-2.2zm13.3 0c1.199 0 2.2 1 2.2 2.2 0 1.2-1.001 2.2-2.2 2.2a2.22 2.22 0 0 1-2.2-2.2c0-1.3.998-2.2 2.2-2.2zm-22.902 10.3c-.198 0-.398 0-.598.1-.2 0-.4.101-.601.2-.2.1-.3.2-.5.301-.1.098-.301.199-.4.3-.099.1-.2.299-.3.4-.1.1-.2.299-.3.5-.1.199-.1.3-.2.498v.1c0 .202-.1.4-.1.602v17.8c0 .198 0 .4.1.598 0 .201.1.4.2.601.1.2.2.3.3.501.1.098.201.3.3.4.099.098.3.199.4.3.1.1.3.198.5.299.2.1.299.1.5.201h.1c.2 0 .401.098.599.098h32.602c.198 0 .398 0 .598-.098.2 0 .4-.1.601-.201.2-.1.3-.199.5-.3.1-.1.301-.2.4-.299.099-.1.2-.302.3-.4.1-.1.2-.302.3-.5.1-.202.1-.3.2-.501v-.1c0-.2.1-.4.1-.6V16.526c0-.201 0-.4-.1-.601 0-.199-.1-.4-.2-.599-.1-.201-.2-.302-.3-.5-.1-.101-.201-.3-.3-.4-.099-.101-.3-.202-.4-.3-.1-.1-.3-.201-.5-.302-.2-.098-.299-.098-.5-.199h-.1c-.2 0-.401-.1-.599-.1h-11.9l-3.002 3.001h11.802c0 1.6 1.298 2.999 2.999 2.999v11.8c-1.6 0-2.999 1.3-2.999 3h-26.6c0-1.6-1.3-3-3.001-3v-11.9c1.6 0 3.001-1.299 3.001-3h3.4l2.998-3zm16.301 5.9c-3.3 0-5.9 3-5.9 6.699 0 2.1.899 4 2.2 5.2h7.3c1.401-1.2 2.2-3.1 2.2-5.2.1-3.698-2.601-6.7-5.8-6.7zm-11.9 4.5c-.8 0-1.499.7-1.499 1.5s.7 1.499 1.498 1.499c.801 0 1.5-.7 1.5-1.5s-.699-1.499-1.5-1.499zm23.7 0c-.8 0-1.501.7-1.501 1.5s.702 1.499 1.5 1.499c.801 0 1.501-.7 1.501-1.5s-.7-1.499-1.5-1.499zm0 0" fill="#83ad51" stroke="#83ad51" stroke-miterlimit="10" stroke-width=".25" transform="matrix(1.6973 0 0 1.70894 .53 0)"/></svg>