<?xml version="1.0" encoding="UTF-8"?>
<svg version="1.1" viewBox="0 0 72 96" xmlns="http://www.w3.org/2000/svg">
<style>.st0{fill:#999}</style>
<path class="st0" d="M0 2v92c0 1.1.9 2 2 2h68c1.1 0 2-.9 2-2V28H50c-1.1 0-2-.9-2-2V0H2C.9 0 0 .9 0 2z"/>
<path class="st0" d="M71.9 24c-.1-.4-.2-.7-.4-1L52 1.2V24h19.9z"/>
<path d="M6 41h60v49H6zM8.9 9.3H5.7V6.4h9.6v2.9h-3.2v11.4H8.9V9.3zm9.2-2.9h7.2v2.9h-3.9V12h3.1v2.9h-3.1v2.9h4.1v2.9h-7.4V6.4zm12.8 7.2l-3.4-7.2h3.6l1.1 2.9.6 1.8s.2-.9.6-1.8l1.2-2.9h3.6l-3.4 7.2 3.3 7.1h-3.5l-1.1-3c-.4-.9-.6-1.7-.6-1.7s-.2.8-.6 1.7l-1.1 3h-3.5l3.2-7.1z" fill="#fff"/>
<g transform="matrix(.043311 0 0 .043311 34.814 62.785)" fill="#999">
<path d="m-121.08-209.68h-349.27l-10.21 133.77h10.87c7.82-100.19 16.41-117.73 110.21-117.73h33.39c11.55 1.81 11.55 9.16 11.55 23.08v329.26c0 21.86-1.83 28.53-52.78 28.53h-17.17v14.61c29.02-0.56 59.26-1.15 88.93-1.15 29.58 0 59.91 0.59 88.91 1.15v-14.61h-16.88c-50.19 0-52-6.67-52-28.53v-329.25c0-13.36 0-20.61 10.89-23.08h33.19c92.55 0 101.61 17.44 109.42 117.73h10.89"/>
<path d="m182.43 180.75h-10.87c-13.26 89.69-21.08 138.44-127.47 138.44h-83.95c-24.16 0-25.3-3.05-25.3-23.86v-169.07h57.06c57.06 0 62.5 20.91 62.5 71.96h9.72v-157.35h-9.72c0 50.19-5.45 70.71-62.5 70.71h-57.07v-149.9c0-20.42 1.15-23.47 25.3-23.47h82.7c93.6 0 104.49 37.2 112.97 117.17h10.9l-14.51-133.78h-306.26v16.61c42.84 0 49.7 0 49.7 27.19v326.42c0 27.19-6.77 27.19-49.7 27.19v14.61h314.76"/>
<path d="m345.49-27.058 89.49-129.38c8.96-12.7 27.19-38.84 76.82-39.5v-14.6c-13.85 1.15-36.83 1.15-51.34 1.15-19.93 0-44.75 0-59.82-1.15v14.61c19.37 1.81 24.13 13.92 24.13 23.67 0 7.23-2.96 12.11-7.25 18.12l-79.85 115.82-89.49-130.99c-4.2-6.59-4.79-8.5-4.79-10.31 0-5.45 6.59-15.75 26.62-16.32v-14.6c-19.37 1.15-48.95 1.15-68.88 1.15-15.66 0-45.89 0-60.5-1.15v14.61c33.22 0 44.09 1.25 57.45 20.03l116.68 171.37-105.22 153.71c-25.96 37.59-65.26 38.25-76.82 38.25v14.61c13.82-1.15 36.83-1.15 51.34-1.15 16.32 0 44.75 0 59.82 1.15v-14.61c-18.71-1.81-24.13-13.92-24.13-23.67 0-7.82 2.96-12.11 6.01-16.41l96.75-141.2 105.22 154.66c4.76 6.69 4.76 8.5 4.76 10.31 0 4.76-5.42 15.17-26.6 16.41v14.61c19.37-1.15 48.95-1.15 68.88-1.15 15.66 0 45.89 0 60.57 1.15v-14.61c-38.74 0-44.84-2.96-56.86-20.03"/>
</g>
</svg>
