<svg height="64" width="69" xmlns="http://www.w3.org/2000/svg"><g fill="#bababa"><path d="M51.227 30.453c.687.688 1.89.688 2.574-.172.687-.691.687-1.722.172-2.582l-4.805-5.676a1.33 1.33 0 0 1-.34-.863l-.687-10.664c0-1.035-.86-1.723-1.887-1.723-1.031 0-1.719.688-1.887 1.723v.172l-.687 11.7v.171c0 .688.172 1.375.855 1.89l.344.344zm0 0"/><path d="M46.426 0C36.645 0 28.41 6.367 25.32 15.14c1.887.172 3.774.688 5.664 1.204 2.403-6.192 8.407-10.668 15.442-10.668 9.094 0 16.469 7.398 16.469 16.52 0 8.257-6.004 15.136-13.899 16.343.172 1.031.172 2.234.172 3.266 0 .863 0 1.722-.172 2.582 11.152-1.203 19.734-10.668 19.734-22.02C68.73 10.152 58.777 0 46.426 0zm0 0"/><path d="M42.648 38.71h-2.914c-.515-2.41-1.375-4.644-2.746-6.71l2.059-2.066c.687-.688.687-1.891 0-2.579l-2.059-2.066c-.687-.687-1.886-.687-2.574 0l-2.059 2.066c-2.058-1.378-4.289-2.41-6.69-2.753v-2.926c0-1.031-.86-1.89-1.888-1.89H20.86c-1.027 0-1.886.859-1.886 1.89v2.926c-2.403.515-4.633 1.375-6.692 2.753l-1.886-2.238c-.688-.687-1.887-.687-2.575 0l-2.058 2.067c-.688.687-.688 1.89 0 2.578l1.886 2.066c-1.37 2.063-2.402 4.3-2.746 6.711H2.16c-1.031 0-1.89.86-1.89 1.89v2.926c0 1.032.859 1.891 1.89 1.891h2.742c.516 2.41 1.375 4.645 2.746 6.711l-1.886 1.89c-.688.692-.688 1.895 0 2.583l2.058 2.066c.688.688 1.887.688 2.575 0l2.058-1.894c2.059 1.375 4.29 2.41 6.692 2.753v2.754c0 1.032.859 1.891 1.886 1.891h2.918c1.028 0 1.887-.86 1.887-1.89v-2.755c2.402-.515 4.633-1.378 6.691-2.753l1.887 2.066c.688.687 1.887.687 2.574 0l2.059-2.066c.687-.688.687-1.891 0-2.579l-2.059-2.066c1.371-2.066 2.403-4.3 2.746-6.71h2.914c1.032 0 1.887-.86 1.887-1.892V40.43c0-.86-.855-1.72-1.887-1.72zM29.094 48.86c-3.774 3.785-9.95 3.785-13.723 0-3.777-3.786-3.777-9.977 0-13.762 3.774-3.785 9.95-3.785 13.723 0 3.949 3.785 3.777 9.976 0 13.761zm0 0"/></g></svg>