<svg height="64" width="80" xmlns="http://www.w3.org/2000/svg"><path d="M38.027 37.414c-5.011-4.812-9.425-9.223-12.03-19.25H43.64v-7.219H26.195V1.121h-7.617v10.024H.93v7.421h18.047s-.2 1.403-.399 2.606C15.968 30.996 13.164 37.215.93 43.23l2.61 7.418c11.429-6.015 17.444-13.835 20.05-22.257 2.605 6.418 6.816 11.629 11.629 16.441zM61.29 13.352H51.262L33.617 62.879h7.617l5.016-14.836H66.3l5.013 14.836h7.62zm-12.434 27.27 7.622-19.65 7.617 19.852zm0 0" fill="#999" stroke="#999" stroke-miterlimit="10" stroke-width="1.5039150000000001"/></svg>