<svg height="64" width="58" xmlns="http://www.w3.org/2000/svg"><path d="M57.938 50.598c-.325 1.437-1.29 2.394-2.415 3.511-14.785 15.325-40.34 12.45-51.109-5.906-2.89-4.95-4.5-10.055-4.34-15.8.324-7.184 2.735-13.407 7.235-18.997C12.613 6.703 19.363 2.234 28.043.796 30.129.48 32.219.32 34.309 0v5.906l-4.34.477C17.754 8.14 7.469 18.355 6.664 30.168c-.48 7.34 1.45 14.047 6.43 19.633 1.93 2.394 4.18 4.469 6.91 5.746.805.32 1.77.476 2.574.637-7.715-4.47-12.215-11.172-13.664-19.793-.965-5.746.16-11.332 3.375-16.278C20.49 7.5 34.793 5.426 44.594 9.578c-.801 1.754-1.606 3.512-2.41 5.106-1.926-.317-3.856-.957-5.786-.957-5.625-.32-10.605.957-14.785 4.949-10.61 9.734-7.875 24.738 2.41 31.445 3.215 2.234 6.75 3.828 10.606 4.625.965.32 1.93 0 3.055-.156-.16-.16-.32-.16-.48-.16-4.825-.957-9.325-2.555-13.18-5.907-3.86-3.351-6.75-7.503-7.235-12.77-.48-7.503 2.414-13.566 8.84-17.398 5.625-3.511 11.574-3.511 17.52-.636 3.374 1.593 5.785 4.148 7.714 7.34-1.765.957-3.375 1.757-4.98 2.554-1.45-1.437-2.735-3.031-4.34-3.992-7.555-5.105-18.164-.316-18.965 9.102-.324 4.629 1.606 8.14 4.82 11.332 3.856 3.511 8.52 4.789 13.66 5.425 4.985.641 9.965.48 14.95-.16.965-.16 1.445.48 1.93 1.278 0-.16 0 0 0 0zm0 0" fill="#bababa"/></svg>