<svg height="64" width="64" xmlns="http://www.w3.org/2000/svg"><g fill="#999"><path d="M60.89 0H10.974C10.238 0 9.69.547 9.69 1.281v3.84c0 .73.73 1.277 1.282 1.277h46.629v46.813c0 .55.73 1.281 1.277 1.281h3.84A1.25 1.25 0 0 0 64 53.211V3.109C64 1.281 62.719 0 60.89 0zm0 0"/><path d="M49.922 12.8H1.282C.546 12.8 0 13.349 0 14.079v48.64C0 63.27.73 64 1.281 64h48.64c.548 0 1.278-.547 1.278-1.281v-48.64c0-.731-.547-1.278-1.277-1.278zm-27.43 43.52c0 .547-.73 1.282-1.281 1.282H7.863c-.73 0-1.281-.551-1.281-1.282v-3.84c0-.55.73-1.28 1.281-1.28h13.164c.735 0 1.282.55 1.282 1.28v3.84zm0-12.8c0 .55-.73 1.28-1.281 1.28H7.863c-.73 0-1.281-.55-1.281-1.28v-3.84c0-.73.73-1.282 1.281-1.282h13.164c.735 0 1.282.551 1.282 1.282v3.84zm22.309 12.8c0 .547-.551 1.282-1.281 1.282H30.172c-.73 0-1.281-.551-1.281-1.282v-3.84c0-.55.55-1.28 1.28-1.28H43.52c.55 0 1.28.55 1.28 1.28zm0-12.8c0 .55-.551 1.28-1.281 1.28H30.172c-.73 0-1.281-.55-1.281-1.28v-3.84c0-.73.55-1.282 1.28-1.282H43.52c.55 0 1.28.551 1.28 1.282zm0-12.801c0 .55-.551 1.281-1.281 1.281H7.68a1.25 1.25 0 0 1-1.282-1.281V20.48c0-.73.735-1.28 1.282-1.28h35.84c.73 0 1.28.55 1.28 1.28zm0 0"/></g></svg>