<svg height="64" width="37" xmlns="http://www.w3.org/2000/svg"><path d="M21.914 13.86V0h-9.039c-.187.547-.371 1.094-.371 1.824-.184.363-.184.547-.184.91-.922 5.106-3.691 8.754-8.3 10.758-1.293.547-2.582.73-3.875.547v11.125h6.64c.184 15.68.184 23.883.184 24.25v.91c.926 6.93 4.43 10.942 10.886 12.582 2.583.73 5.348 1.094 8.301 1.094 3.688-.184 7.196-.73 10.7-1.824v-13.13a101.367 101.367 0 0 0-5.536 1.645c-3.136.91-5.902.364-8.117-1.824-.183-.367-.55-.73-.55-1.094a23.898 23.898 0 0 1-.555-5.105V25.164h14.386V14.04h-14.57zm0 0" fill="#4065aa"/></svg>