<svg height="64" width="65" xmlns="http://www.w3.org/2000/svg"><path d="M43.223.492V13.66h-1.32c-.825-3-1.65-5.168-2.473-6.5-.825-1.332-2.145-2.336-3.797-3.168-.824-.5-2.473-.668-4.781-.668h-3.63v37.512c0 2.5.165 4 .329 4.668.328.668.824 1.168 1.648 1.668s1.817.664 3.301.664h1.648v1.336H9.074v-1.336h1.649c1.32 0 2.476-.332 3.3-.832.66-.332 1.153-.832 1.485-1.668.328-.5.328-2 .328-4.5V3.324h-3.461c-3.3 0-5.61.668-7.098 2.004-1.976 2-3.297 4.664-3.957 8.332H0V.492zm0 0" fill="#7291a1"/><path d="M65 14.828V28h-1.32c-.825-3-1.649-5.168-2.473-6.504-.828-1.332-2.145-2.332-3.797-3.168-.824-.5-2.472-.664-4.785-.664h-3.629v37.508c0 2.5.168 4.004.332 4.668.328.668.824 1.168 1.649 1.668.824.5 1.816.668 3.3.668h1.649v1.332H30.684v-1.332h1.652c1.32 0 2.473-.336 3.297-.836.66-.332 1.156-.832 1.488-1.664.328-.5.328-2.004.328-4.504V17.664h-3.465c-3.3 0-5.609.664-7.093 2-1.98 2-3.301 4.668-3.961 8.336h-1.317V14.828zm0 0" fill="#36454d"/></svg>