<svg height="64" width="64" xmlns="http://www.w3.org/2000/svg"><g fill="#eab41b"><path d="M28.023 32c0 1.04.344 2.074 1.211 2.766 1.555 1.558 4.149 1.558 5.707 0 .692-.692 1.211-1.727 1.211-2.766s-.347-2.074-1.21-2.766c-.692-.695-1.731-1.21-2.77-1.21-1.035 0-2.074.343-2.766 1.21-1.039.692-1.383 1.727-1.383 2.766zm0 0"/><path d="M9.34 9.34c-12.453 12.453-12.453 32.691 0 45.32 12.453 12.453 32.691 12.453 45.32 0 12.453-12.453 12.453-32.691 0-45.32-12.453-12.453-32.867-12.453-45.32 0zm47.394 36.152c-1.21 2.074-2.765 4.153-4.496 5.88-1.73 1.73-3.804 3.288-5.883 4.5l-7.437-14.184s.691-.176 2.078-1.56c1.383-1.382 1.727-2.073 1.727-2.073zM37.707 26.293c1.559 1.555 2.422 3.633 2.422 5.707s-.863 4.152-2.422 5.707a7.933 7.933 0 0 1-11.242 0c-1.559-1.555-2.422-3.633-2.422-5.707s.691-4.152 2.422-5.707c2.941-3.113 8.129-3.113 11.242 0zm-10.895-5.535s-1.558.863-2.769 2.246c-1.211 1.387-1.211 1.558-1.73 2.25l-14.184-7.61c1.21-2.078 2.77-4.152 4.5-5.882 1.902-1.73 3.805-3.285 5.879-4.496zm0 0"/></g></svg>