<svg height="64" width="80" xmlns="http://www.w3.org/2000/svg"><path d="M3.121 5.453v2.363L.227 8.91V6.547zm0 23.637v2.363L.227 32.727v-2.364zm0 24v2.547l-2.894 1.09v-2.364zm-.363-39.817v2.18L.406 16.547v-2.184zm0 8v2.18L.406 24.547v-2.184zm0 16v2.18L.406 40.547v-2.184zm0 8v2.18L.406 48.547v-2.184zm7.414-38.546v2.91L6.375 11.09V8.363zm0 24v2.726L6.375 34.91v-2.726zm0 24.183v2.727l-3.797 1.636v-2.726zm-.184-39.82v2.547l-3.07 1.273v-2.547zm0 8v2.547l-3.07 1.273v-2.726zm0 16v2.547l-3.07 1.273v-2.726zm0 8v2.547l-3.07 1.273v-2.547zm7.414-38.543V12l-5.062 2v-3.273zm0 24V36l-5.062 2v-3.273zm0 23.816v3.453l-5.062 2v-3.453zm-.18-39.453V20l-4.16 1.637v-2.91zm0 8v2.906l-4.16 1.637v-2.906zm0 16v2.906l-4.16 1.637v-2.906zm0 7.637v3.09l-4.16 1.636v-2.91zm8.133-40.184v4.547l-6.144 2.543V11.09zm0 24v4.547l-6.144 2.363v-4.546zm0 23.82v4.544l-6.144 2.546V58.91zm-.359-39.456v4.183l-5.242 2.18v-4.18zm0 8v4l-5.242 2.183v-4.183zm0 16v4.183l-5.242 2v-4.183zm0 7.636v4.184l-5.242 2v-4zm8.496-40.726v5.816l-6.87 2.73v-5.82zm0 24v5.816l-6.87 2.73v-5.82zm0 23.816v5.82L26.622 64v-5.816zm-.363-39.09v4.91l-5.785 2.364v-4.91zm0 7.637v4.91l-5.785 2.363v-4.91zm0 16.363v4.91l-5.965 2.18v-4.906zm0 7.637v4.91l-5.785 2.363v-4.91zm8.68-43.273v8l-7.414 3.09V8.362c2.53-1.636 5.062-2.726 7.414-3.636zm0 8.726v6.91l-7.414 3.09v-6.906zm0 7.82v6.91l-7.414 3.09v-6.91zm0 7.817V36l-7.414 3.09v-6.906zm0 7.82V44l-7.414 3.09V40zm0 8v6.906l-7.414 3.274V48zm0 7.817v7.457c-2.895 1.09-5.426 2.18-7.414 3.27V56zM79.773 4.91v56c-4.699-3.094-10.668-4.726-17.535-4.726-5.785 0-12.297 1.27-19.527 3.632v-7.632c3.797-1.457 7.957-2.547 12.656-3.274V30.727c-3.797.546-8.137 1.82-12.656 4v-5.274a48.751 48.751 0 0 1 12.656-3.816V7.817C51.391 8.546 47.051 10 42.711 12V4.184C49.039 1.454 55.367 0 61.51 0c6.512.184 12.657 1.816 18.262 4.91zM72.36 9.816c-3.07-1.632-6.687-2.363-10.847-2.363h-1.446v18.184h1.63c3.613 0 7.23.547 10.663 1.816zm0 22.73c-3.254-1.456-6.867-2.183-10.664-2.183h-1.629v18.184h1.63c3.976 0 7.41.543 10.663 1.453zm4.883 30.727V62H76.7v-.184h1.266V62h-.543v1.273zm.903 0v-1.457h.363l.543 1.094.543-1.094h.18v1.457h-.18V62l-.543 1.09h-.184L78.328 62v1.273zm0 0" fill="#999"/></svg>