<svg height="64" width="71" xmlns="http://www.w3.org/2000/svg"><path d="M42.602 10.79V7.132C42.602 3.293 39.324 0 35.5 0s-7.102 3.293-7.102 7.133v3.656H.184V64h70.632V10.79zm21.117 46.077H7.28V17.738h21.117v3.473h14.204v-3.473h21.117zm0 0"/><path d="M24.941 32c0 2.02-1.628 3.656-3.64 3.656S17.66 34.02 17.66 32s1.628-3.656 3.64-3.656S24.94 29.98 24.94 32zM21.3 39.133c-3.823 0-7.1 3.289-7.1 7.129v3.66h14.198v-3.66c0-4.024-3.093-7.13-7.097-7.13zm17.84-10.79H56.8v7.13H39.14zm0 14.446H56.8v7.133H39.14zm0 0"/></svg>