<svg height="64" width="74" xmlns="http://www.w3.org/2000/svg"><g fill="#039"><path d="m31.793 20.445 11.852 8.008V.246L31.793 8.254V4.25c0-2.184-1.797-4.004-3.953-4.004H3.953C1.797.246 0 2.066 0 4.25v20.2c0 2.183 1.797 4.003 3.953 4.003H27.84c2.156 0 3.953-1.82 3.953-4.004zm18.32 7.278v12.011c0 4.368 3.59 8.008 7.903 8.008 4.308 0 7.902-3.64 7.902-8.008V27.723c0-4.368-3.594-8.004-7.902-8.004-4.313 0-7.903 3.636-7.903 8.004zm0 0"/><path d="M70.047 39.734c0 6.73-5.387 12.008-11.852 12.008-6.648 0-11.855-5.457-11.855-12.008h-3.953A15.96 15.96 0 0 0 54.242 55.2v8.555h7.903v-8.555A15.955 15.955 0 0 0 74 39.734zm0 0"/></g></svg>