<svg xmlns="http://www.w3.org/2000/svg" width="84" height="60"><path style="stroke:none;fill-rule:nonzero;fill:#999;fill-opacity:1" d="m12.762 33.262-8.39-26.09c-.349-1.059-.524-1.41-.7-1.41-.176-.176-.352-.176-.527-.352l-2.97-.883L0 .824h15.734l.348 3.703-2.973.883v.352c0 .351.176 1.058.528 1.761L16.78 17.57 22.38.824 26.57.648l5.07 16.747 3.497-10.051c.175-.703.527-1.41.527-1.762V5.41l-2.621-.707-.176-3.879h12.235l.351 3.703-3.32 1.059c-.176 0-.352.176-.528.176 0 .176-.347.351-.523 1.234l-9.266 25.91-4.37.356-4.716-16.043-5.597 15.687zm0 0"/><path style="fill-rule:nonzero;fill:#999;fill-opacity:1;stroke-width:.5;stroke-linecap:butt;stroke-linejoin:miter;stroke:#999;stroke-opacity:1;stroke-miterlimit:10" d="M42.4 48.6H60v2.8H42.4zm0 7.401H60V58.8H42.4zm0 7.7H60V66.5H42.4zm-29.4 7.8h47v2.798H13zm0 7.598h47v2.8H13zm0 0" transform="matrix(1.74818 0 0 1.76287 -21.328 -85.027)"/></svg>