<svg height="64" width="64" xmlns="http://www.w3.org/2000/svg"><path d="M18.785 46.805c3.504-1.43 7.164-2.387 10.985-2.547V34.07H16.398c.16 4.297.954 8.754 2.387 12.735zM11.461 7.64c1.594 1.593 3.504 2.867 5.254 3.98 1.594-3.66 3.664-7.164 6.21-10.348-4.3 1.274-8.12 3.344-11.464 6.368zm33.434 9.554c-3.5 1.43-7.165 2.387-10.985 2.547V29.93h13.375c-.16-4.297-.957-8.754-2.39-12.735zM29.93 19.582c-3.82-.316-7.64-1.113-10.985-2.547A43.883 43.883 0 0 0 16.56 29.93h13.37zm-9.551-6.207c3.023 1.273 6.207 1.91 9.55 2.227V0h-.316L27.86 1.91c-3.343 3.344-5.73 7.324-7.48 11.465zM47.285 33.91H33.91v10.188c3.82.32 7.64 1.117 10.985 2.55 1.433-3.824 2.23-8.28 2.39-12.738zM33.75 15.762c3.344-.32 6.527-.957 9.555-2.23-1.91-4.298-4.457-8.118-7.485-11.622L34.547.16h-.637zm18.629-8.278c-3.344-2.867-7.324-5.097-11.621-6.21a45.734 45.734 0 0 1 6.207 10.347c1.91-1.113 3.66-2.387 5.414-4.137zm-22.45 40.754c-3.343.32-6.527.957-9.55 2.23 1.91 4.137 4.297 8.118 7.324 11.462l1.59 1.75h.477zM12.419 30.09c.16-5.094 1.273-9.871 2.707-14.649-2.39-1.273-4.457-2.863-6.687-4.933l-.16-.16C3.503 15.602.32 22.449 0 30.09zm38.848 3.82c-.16 5.094-1.278 9.871-2.707 14.649 2.386 1.273 4.457 2.863 6.683 4.933l.32.32C60.34 48.56 63.523 41.712 64 34.07c-.32-.16-12.734-.16-12.734-.16zm3.82-23.402c-1.91 1.91-4.3 3.504-6.688 4.933 1.75 4.618 2.707 9.555 2.707 14.649H63.68c-.477-7.64-3.5-14.488-8.438-19.742zm-2.867 45.851c-1.594-1.593-3.504-2.867-5.254-3.98a45.734 45.734 0 0 1-6.207 10.348c4.297-1.274 8.277-3.344 11.46-6.368zM8.598 53.492c1.91-1.91 4.297-3.504 6.527-4.933-1.75-4.618-2.707-9.555-2.867-14.649H0c.477 7.64 3.504 14.488 8.277 19.742zm8.117-1.113c-1.91 1.113-3.66 2.547-5.254 3.98 3.344 2.864 7.324 5.094 11.625 6.207-2.707-3.023-4.777-6.367-6.371-10.187zm26.59-1.754c-3.028-1.273-6.211-1.91-9.555-2.227V64h.48l1.75-1.91c3.184-3.344 5.57-7.485 7.325-11.465zm0 0" fill="#bababa"/></svg>