<svg height="64" width="78" xmlns="http://www.w3.org/2000/svg"><path d="M60.387 42.926c.734.367 1.648.738 2.383 1.293 2.382 1.48 4.585 2.957 6.785 4.437.367.184.734.371 1.101.184 2.567-.555 5.317.926 6.051 3.512.55 1.664.734 3.328.918 5.18.184 2.03.184 4.25.367 6.468-3.668-.926-7.152-2.035-9.719-4.805-.734-.742-.918-1.851-1.468-2.773-.184-.188-.368-.555-.551-.555A61.383 61.383 0 0 1 52.5 50.875c-.184-.188-.734-.188-.918 0-4.398 2.219-9.168 3.14-14.121 2.773-6.602-.37-12.652-2.59-18.52-5.363-.918-.555-2.02-1.11-2.937-1.664 4.586-2.219 6.605-5.914 6.605-10.906-1.101-.184-2.203-.184-3.12-.371-.184.926-.184 2.035-.368 3.144-1.098 4.067-4.95 6.285-9.168 5.176C4.453 42.184-.5 35.714.051 29.43c.367-4.621 4.402-7.578 8.8-6.47.735.185 1.47.368 2.204.74.734.366 1.28.738 2.015 1.109.551-.926.918-2.036 1.47-2.957.183-.188 0-.555 0-.743V6.32h.183c.183.184.367.371.55.739 1.649 2.406 3.118 4.808 5.133 6.843 2.383 2.215 4.77 4.067 7.887 4.805.918.184 1.648.184 2.566-.371 3.485-2.219 6.97-2.402 10.637-.555.184.188.55.188.918.188 5.133-1.297 9.902-3.512 13.754-7.395 1.652-1.664 2.934-3.699 3.852-6.101.367-1.11.917-2.035 1.468-3.145.547-.922 1.282-1.476 2.2-1.293 1.101.184 1.648.926 1.832 1.848.367 1.851.734 3.699.917 5.547.184 3.328.184 6.656.184 9.984-.184 6.84-.918 13.68-3.3 20.149-1.102 1.296-2.016 3.328-2.934 5.363zm-9.172-.371c.734-1.11.734-2.22.183-3.328-.914-1.664-2.382-2.957-4.214-3.696H47l.547 1.11c.183.367.367.738.367 1.293.367 1.48.184 2.218-1.281 2.773-.918.371-1.836.555-2.57.738-4.399.739-8.985.739-13.387.555h-1.281c0 .184.183.184.183.184 4.399 1.48 8.8 2.59 13.387 2.96 1.648.184 3.484.184 5.133-.37.55-.184.918 0 1.285.183 4.953 3.328 10.27 5.73 16.137 7.211 1.101.371 1.101.371 1.652-.738.183-.188.183-.371.367-.555-4.953-3.7-10.453-6.285-16.324-8.32zm-15.586-17.38c-.184 2.22.184 3.145 1.465 3.516 1.101.368 2.386 0 2.754-.925.367-.555.367-1.293.367-2.036-.184-.554-.735-1.109-1.102-1.664 2.2.188 3.485 1.48 4.219 3.516.547-1.852-.367-5.547-3.117-7.395-2.938-1.851-6.973-1.48-9.356 1.11-2.382 2.586-2.566 6.469-.734 9.426 1.836 2.773 5.504 3.699 7.152 2.957-2.015-.739-3.3-2.215-3.484-4.434 0-1.664.55-2.96 1.836-4.07zm-13.387 7.028c-3.3-1.848-4.035-5.363-1.652-7.027-.367 1.48 0 2.406 1.101 2.96.735.368 2.016.184 2.383-.741.367-.555.551-1.293.367-1.848s-.734-.926-1.101-1.664c.918.37 1.652.555 2.387.926.546-1.664.546-1.664 0-2.403-1.653-1.48-3.485-2.035-5.504-1.48-2.2.554-3.485 2.035-4.035 4.25-.184.926-.368 1.851.183 2.773l1.652 2.774c.184.187.184.554.551.554.914.743 2.2.926 3.668.926zM2.984 29.984c0 .926.368 2.036 1.102 2.957 1.098 1.293 2.934 1.293 4.219 0 1.832-1.847 1.648-4.992-.367-6.656-.551-.555-1.286-.738-2.02-.555-1.832.188-3.117 1.852-2.934 4.254zm0 0" fill="#3c3"/></svg>