<svg height="64" width="67" xmlns="http://www.w3.org/2000/svg"><path d="M46.406 0c6.367 4.457 10.078 16.043 10.078 24.781 0 2.317-.351 4.457-.882 6.418-.532-5.172-3.008-9.629-6.895-12.48 2.121 2.851 3.36 6.418 3.36 10.34 0 9.625-7.782 17.468-17.329 17.468-3.89 0-5.836-.71-8.664-2.851 5.836 0 9.547-5.883 14.5-5.883 0 0-.71-2.852-4.422-2.852-3.715 0-1.945 2.852-8.664 2.852S17.41 33.695 17.41 30.484c0-3.207 4.774-5.527 5.836-4.457 1.059-1.07 0-2.851 0-2.851l8.664-5.883h-2.832c-12.906 0-5.48-9.094-2.828-11.59-4.598 0-7.426 4.281-8.664 5.883-.707-.356-5.832-.356-7.246 0-.707.18-1.594-1.066-2.3-2.492-1.06-1.961-1.946-4.637-1.946-6.242-3.711 3.746-3.004 9.27-1.59 11.41l-.176.18C1.676 19.253.262 24.601.262 30.483.262 49.024 15.113 64 33.5 64s33.238-13.547 33.238-32.09V29.06C66.563 11.766 55.602 2.852 46.406 0zm0 0" fill="#999"/></svg>