<svg xmlns="http://www.w3.org/2000/svg" width="83" height="55"><path style="fill-rule:nonzero;fill:#999;fill-opacity:1;stroke-width:1.5;stroke-linecap:butt;stroke-linejoin:miter;stroke:#999;stroke-opacity:1;stroke-miterlimit:10" d="M11.143 25.867c-.5 0-1.1-.2-1.502-.6l-8.298-8.4c-.8-.799-.8-2.1 0-3.001l8.398-8.4c.8-.798 2.101-.798 3.002 0 .8.801.8 2.1 0 3.001l-6.901 6.9 6.9 6.9c.8.8.8 2.098 0 3-.5.4-1.1.6-1.6.6zm25.101 0c-.503 0-1.102-.2-1.502-.6-.8-.8-.8-2.1 0-3l6.901-6.9-6.9-6.9c-.8-.8-.8-2.1 0-3 .8-.8 2.1-.8 2.998 0l8.4 8.399c.801.8.801 2.102 0 3l-8.4 8.4c-.4.4-.999.6-1.5.6zm-16.7 4.1c-.202 0-.403 0-.7-.1-1.102-.399-1.7-1.5-1.3-2.599l8.398-25.1c.402-1.101 1.5-1.702 2.6-1.302 1.1.4 1.7 1.502 1.3 2.6l-8.4 25.101c-.198.901-1.1 1.4-1.899 1.4zm0 0" transform="matrix(1.74792 0 0 1.75607 0 .53)"/></svg>