<svg height="64" width="69" xmlns="http://www.w3.org/2000/svg"><path d="M13.875 13.874h10.9v2.701h-10.9zm0 5.4h10.9v2.701h-10.9zm0 5.5h10.9v2.702h-10.9zm19-24.399H11.177c-3 0-5.402 2.4-5.402 5.4v24.4h-5.4c0 3 2.402 5.4 5.4 5.4h21.7c3 0 5.402-2.4 5.402-5.4v-21.7h5.4v-2.7c0-3-2.402-5.4-5.4-5.4zm-2.7 29.3c0 1.801-1.4 3.2-3.2 3.2h-19.9c1.3-.9 1.3-2.7 1.3-2.7v-24.4c0-1.5 1.2-2.7 2.7-2.7 1.501 0 2.7 1.2 2.7 2.7v2.7h16.3zm-13.6-23.9v-2.7h16.3c2.501 0 2.7 1.6 2.7 2.7zm0 0" fill="#999" stroke="#999" stroke-miterlimit="10" stroke-width=".75" transform="matrix(1.7717 0 0 1.78025 .262 0)"/></svg>