<svg width="157.331" height="75" xmlns="http://www.w3.org/2000/svg"><!--! Font Awesome Free 6.4.2 by @fontawesome - https://fontawesome.com License - https://fontawesome.com/license/free (Icons: CC BY 4.0, Fonts: SIL OFL 1.1, Code: MIT License) Copyright 2023 Fonticons, Inc.--><path d="M56.862 15.625a3.122 3.122 0 0 0-3.125-3.125 3.122 3.122 0 0 0-3.125 3.125v23.701l-7.168-7.168a3.13 3.13 0 0 0-4.424 0 3.13 3.13 0 0 0 0 4.424l12.5 12.5a3.13 3.13 0 0 0 4.424 0l12.5-12.5a3.13 3.13 0 0 0 0-4.424 3.13 3.13 0 0 0-4.424 0l-7.158 7.168zm-21.875 31.25a6.256 6.256 0 0 0-6.25 6.25v3.125a6.256 6.256 0 0 0 6.25 6.25h37.5a6.256 6.256 0 0 0 6.25-6.25v-3.125a6.256 6.256 0 0 0-6.25-6.25h-9.913l-4.423 4.424a6.248 6.248 0 0 1-8.838 0l-4.414-4.424zm35.937 10.156a2.338 2.338 0 0 1-2.344-2.343 2.338 2.338 0 0 1 2.344-2.344 2.338 2.338 0 0 1 2.344 2.344 2.338 2.338 0 0 1-2.344 2.343z" style="fill:#000;fill-opacity:1;stroke-width:.0976562"/><path d="M121.707 38.922c-.022-4.096 1.83-7.189 5.581-9.466-2.098-3.003-5.268-4.655-9.454-4.978-3.963-.313-8.294 2.31-9.88 2.31-1.674 0-5.514-2.199-8.528-2.199-6.229.1-12.848 4.968-12.848 14.87q0 4.386 1.607 9.063c1.43 4.097 6.586 14.143 11.967 13.976 2.813-.067 4.8-1.998 8.461-1.998 3.55 0 5.392 1.998 8.528 1.998 5.426-.078 10.092-9.21 11.453-13.317-7.278-3.427-6.887-10.047-6.887-10.259zm-6.318-18.329c3.047-3.617 2.768-6.91 2.679-8.093-2.69.156-5.805 1.83-7.58 3.896-1.953 2.21-3.103 4.945-2.857 8.026 2.913.223 5.57-1.273 7.758-3.829z" style="fill:#000;fill-opacity:1;stroke-width:.111627"/></svg>