<?xml version="1.0" encoding="UTF-8" standalone="no"?>
<svg
   viewBox="0 0 157.33104 75"
   version="1.1"
   id="svg1"
   width="157.33104"
   height="75"
   xmlns="http://www.w3.org/2000/svg"
   xmlns:svg="http://www.w3.org/2000/svg">
  <defs
     id="defs1" />
  <!--! Font Awesome Free 6.4.2 by @fontawesome - https://fontawesome.com License - https://fontawesome.com/license/free (Icons: CC BY 4.0, Fonts: SIL OFL 1.1, Code: MIT License) Copyright 2023 Fonticons, Inc. -->
  <path
     d="m 56.86155,15.62503 c 0,-1.72852 -1.39648,-3.125 -3.125,-3.125 -1.72852,0 -3.125,1.39648 -3.125,3.125 V 39.3262 l -7.16797,-7.16797 c -1.2207,-1.2207 -3.20312,-1.2207 -4.42383,0 -1.2207,1.22071 -1.2207,3.20313 0,4.42383 l 12.5,12.5 c 1.22071,1.2207 3.20313,1.2207 4.42383,0 l 12.5,-12.5 c 1.2207,-1.2207 1.2207,-3.20312 0,-4.42383 -1.2207,-1.2207 -3.20312,-1.2207 -4.42383,0 l -7.1582,7.16797 z m -21.875,31.25 c -3.44727,0 -6.25,2.80273 -6.25,6.25 v 3.125 c 0,3.44727 2.80273,6.25 6.25,6.25 h 37.5 c 3.44727,0 6.25,-2.80273 6.25,-6.25 v -3.125 c 0,-3.44727 -2.80273,-6.25 -6.25,-6.25 h -9.91211 l -4.42383,4.42383 c -2.4414,2.4414 -6.39648,2.4414 -8.83789,0 l -4.41406,-4.42383 z m 35.9375,10.15625 c -1.29883,0 -2.34375,-1.04492 -2.34375,-2.34375 0,-1.29883 1.04492,-2.34375 2.34375,-2.34375 1.29883,0 2.34375,1.04492 2.34375,2.34375 0,1.29883 -1.04492,2.34375 -2.34375,2.34375 z"
     id="path16323"
     style="fill:#000000;fill-opacity:1;stroke-width:0.0976562" />
  <path
     d="m 121.70706,38.92224 c -0.0223,-4.09673 1.83069,-7.18881 5.58138,-9.46601 -2.0986,-3.00277 -5.26882,-4.65486 -9.45485,-4.97858 -3.96277,-0.31256 -8.29392,2.31069 -9.87903,2.31069 -1.67441,0 -5.51439,-2.19906 -8.52833,-2.19906 -6.22882,0.10046 -12.84832,4.96742 -12.84832,14.86877 q 0,4.38696 1.60743,9.06415 c 1.42883,4.09673 6.58602,14.1432 11.96646,13.97576 2.81303,-0.067 4.79998,-1.99813 8.46136,-1.99813 3.54976,0 5.39161,1.99813 8.52834,1.99813 5.4251,-0.0781 10.09112,-9.20927 11.45298,-13.31716 -7.27811,-3.42696 -6.88742,-10.04647 -6.88742,-10.25856 z m -6.31811,-18.32922 c 3.04743,-3.61673 2.76836,-6.90974 2.67906,-8.09299 -2.69022,0.15627 -5.80463,1.83069 -7.5795,3.89579 -1.95348,2.21023 -3.10325,4.9451 -2.85767,8.02602 2.91348,0.22325 5.57021,-1.27256 7.75811,-3.82882 z"
     id="path5811"
     style="fill:#000000;fill-opacity:1;stroke-width:0.111627" />
</svg>
