<?xml version="1.0" encoding="UTF-8" standalone="no"?>
<svg
   viewBox="0 0 157.33104 75"
   version="1.1"
   id="svg1"
   width="157.33104"
   height="75"
   xmlns="http://www.w3.org/2000/svg"
   xmlns:svg="http://www.w3.org/2000/svg">
  <defs
     id="defs1" />
  <!--! Font Awesome Free 6.4.2 by @fontawesome - https://fontawesome.com License - https://fontawesome.com/license/free (Icons: CC BY 4.0, Fonts: SIL OFL 1.1, Code: MIT License) Copyright 2023 Fonticons, Inc. -->
  <path
     d="m 53.68516,15.625 c 0,-1.72852 -1.39648,-3.125 -3.125,-3.125 -1.72852,0 -3.125,1.39648 -3.125,3.125 V 39.32617 L 40.26719,32.1582 c -1.2207,-1.2207 -3.20312,-1.2207 -4.42383,0 -1.2207,1.22071 -1.2207,3.20313 0,4.42383 l 12.5,12.5 c 1.22071,1.2207 3.20313,1.2207 4.42383,0 l 12.5,-12.5 c 1.2207,-1.2207 1.2207,-3.20312 0,-4.42383 -1.2207,-1.2207 -3.20312,-1.2207 -4.42383,0 l -7.1582,7.16797 z m -21.875,31.25 c -3.44727,0 -6.25,2.80273 -6.25,6.25 v 3.125 c 0,3.44727 2.80273,6.25 6.25,6.25 h 37.5 c 3.44727,0 6.25,-2.80273 6.25,-6.25 v -3.125 c 0,-3.44727 -2.80273,-6.25 -6.25,-6.25 h -9.91211 l -4.42383,4.42383 c -2.4414,2.4414 -6.39648,2.4414 -8.83789,0 L 41.72227,46.875 Z m 35.9375,10.15625 c -1.29883,0 -2.34375,-1.04492 -2.34375,-2.34375 0,-1.29883 1.04492,-2.34375 2.34375,-2.34375 1.29883,0 2.34375,1.04492 2.34375,2.34375 0,1.29883 -1.04492,2.34375 -2.34375,2.34375 z"
     id="path16474"
     style="fill:#000000;fill-opacity:1;stroke-width:0.0976562" />
  <path
     d="m 121.74171,43.05624 c 0.95702,-0.65429 2.28513,-1.22069 2.28513,-1.22069 0,0 -3.77925,0.68359 -7.53897,0.99608 -4.59954,0.38086 -9.54088,0.45898 -12.02132,0.12695 -5.86906,-0.78124 3.22261,-2.93941 3.22261,-2.93941 0,0 -3.52534,-0.23437 -7.87099,1.85544 -5.12688,2.48044 12.69515,3.61324 21.92354,1.18163 z m -8.33973,-3.13473 c -1.85545,-4.16986 -8.11513,-7.83192 0,-14.23809 C 123.52489,17.69525 118.33355,12.5 118.33355,12.5 c 2.09959,8.25185 -7.38271,10.75181 -10.8104,15.8787 -2.33395,3.50581 1.14256,7.26553 5.87883,11.54281 z m 11.19126,-17.2068 c 0.01,0 -17.10915,4.27729 -8.93543,13.69123 2.41208,2.7734 -0.63476,5.27336 -0.63476,5.27336 0,0 6.12297,-3.16402 3.3105,-7.11904 -2.62691,-3.69136 -4.63861,-5.52727 6.25969,-11.84555 z m -0.5957,26.41567 a 1.190414,1.190414 0 0 1 -0.19531,0.2539 c 12.52914,-3.29097 7.91982,-11.61117 1.93357,-9.50183 a 1.6923604,1.6923604 0 0 0 -0.80077,0.61523 6.879792,6.879792 0 0 1 1.0742,-0.29297 c 3.02731,-0.63475 7.37296,4.05268 -2.01169,8.92567 z m 4.60541,6.0839 c 0,0 1.416,1.1621 -1.55272,2.07029 -5.65422,1.70896 -23.51531,2.22653 -28.47618,0.0684 -1.78709,-0.77147 1.56248,-1.85544 2.61715,-2.08005 1.09374,-0.23437 1.72849,-0.19531 1.72849,-0.19531 -1.98239,-1.39646 -12.82209,2.74411 -5.50773,3.92573 19.94504,3.24215 36.3667,-1.45506 31.19099,-3.78901 z m -21.83174,-4.04291 c -7.68545,2.1484 4.67767,6.58194 14.4627,2.39254 a 18.15308,18.15308 0 0 1 -2.75387,-1.34764 c -4.36518,0.83007 -6.38664,0.88866 -10.35143,0.43945 -3.27144,-0.37109 -1.3574,-1.48435 -1.3574,-1.48435 z m 17.55836,9.49206 c -7.68545,1.44529 -17.16774,1.27928 -22.7829,0.35156 0,-0.01 1.15232,0.94725 7.07022,1.3281 9.00378,0.57617 22.83173,-0.32226 23.15399,-4.58001 0,0 -0.62499,1.6113 -7.44131,2.90035 z M 120.07181,46.9722 c -5.78117,1.11327 -9.13074,1.08397 -13.3592,0.64453 -3.27144,-0.3418 -1.13279,-1.92381 -1.13279,-1.92381 -8.47645,2.81247 4.70696,5.99602 16.55251,2.52927 a 5.89543,5.89543 0 0 1 -2.06052,-1.24999 z"
     id="path5936"
     style="fill:#000000;fill-opacity:1;stroke-width:0.097655" />
</svg>
