<svg width="157.331" height="75" xmlns="http://www.w3.org/2000/svg"><!--! Font Awesome Free 6.4.2 by @fontawesome - https://fontawesome.com License - https://fontawesome.com/license/free (Icons: CC BY 4.0, Fonts: SIL OFL 1.1, Code: MIT License) Copyright 2023 Fonticons, Inc.--><path d="M53.685 15.625A3.122 3.122 0 0 0 50.56 12.5a3.122 3.122 0 0 0-3.125 3.125v23.701l-7.168-7.168a3.13 3.13 0 0 0-4.424 0 3.13 3.13 0 0 0 0 4.424l12.5 12.5a3.13 3.13 0 0 0 4.424 0l12.5-12.5a3.13 3.13 0 0 0 0-4.424 3.13 3.13 0 0 0-4.424 0l-7.158 7.168zM31.81 46.875a6.256 6.256 0 0 0-6.25 6.25v3.125a6.256 6.256 0 0 0 6.25 6.25h37.5a6.256 6.256 0 0 0 6.25-6.25v-3.125a6.256 6.256 0 0 0-6.25-6.25h-9.912l-4.424 4.424a6.248 6.248 0 0 1-8.838 0l-4.414-4.424Zm35.938 10.156a2.338 2.338 0 0 1-2.344-2.343 2.338 2.338 0 0 1 2.344-2.344 2.338 2.338 0 0 1 2.343 2.343 2.338 2.338 0 0 1-2.343 2.344z" style="fill:#000;fill-opacity:1;stroke-width:.0976562"/><path d="M121.742 43.056c.957-.654 2.285-1.22 2.285-1.22s-3.78.683-7.54.996c-4.599.38-9.54.459-12.02.127-5.87-.782 3.222-2.94 3.222-2.94s-3.525-.234-7.87 1.856c-5.128 2.48 12.694 3.613 21.923 1.181zm-8.34-3.134c-1.855-4.17-8.115-7.832 0-14.239 10.123-7.988 4.932-13.183 4.932-13.183 2.1 8.252-7.383 10.752-10.81 15.879-2.335 3.506 1.142 7.265 5.878 11.543zm11.191-17.207c.01 0-17.109 4.277-8.935 13.69 2.412 2.774-.635 5.274-.635 5.274s6.123-3.164 3.31-7.119c-2.626-3.691-4.638-5.527 6.26-11.845zm-.595 26.415a1.19 1.19 0 0 1-.196.254c12.53-3.29 7.92-11.61 1.934-9.502a1.692 1.692 0 0 0-.801.616 6.88 6.88 0 0 1 1.074-.293c3.028-.635 7.373 4.052-2.011 8.925zm4.605 6.084s1.416 1.162-1.553 2.07c-5.654 1.71-23.515 2.227-28.476.069-1.787-.772 1.563-1.855 2.617-2.08 1.094-.234 1.729-.195 1.729-.195-1.983-1.397-12.822 2.744-5.508 3.925 19.945 3.242 36.367-1.455 31.19-3.789zm-21.832-4.043c-7.685 2.149 4.678 6.582 14.463 2.393a18.153 18.153 0 0 1-2.754-1.348c-4.365.83-6.387.889-10.351.44-3.272-.371-1.358-1.485-1.358-1.485zm17.559 9.492c-7.686 1.446-17.168 1.28-22.783.352 0-.01 1.152.947 7.07 1.328 9.004.576 22.832-.322 23.154-4.58 0 0-.625 1.611-7.441 2.9zm-4.258-13.69c-5.781 1.112-9.13 1.083-13.36.644-3.27-.342-1.132-1.924-1.132-1.924-8.477 2.812 4.707 5.996 16.552 2.53a5.895 5.895 0 0 1-2.06-1.25z" style="fill:#000;fill-opacity:1;stroke-width:.097655"/></svg>