<svg width="157.331" height="75" xmlns="http://www.w3.org/2000/svg"><!--! Font Awesome Free 6.4.2 by @fontawesome - https://fontawesome.com License - https://fontawesome.com/license/free (Icons: CC BY 4.0, Fonts: SIL OFL 1.1, Code: MIT License) Copyright 2023 Fonticons, Inc.--><path d="M111.91 24.54c.098.049.176.166.293.166.108 0 .274-.04.284-.147.02-.136-.186-.224-.313-.283-.166-.068-.38-.097-.537-.01-.039.02-.078.069-.059.108.03.127.225.107.332.166zm-2.138.166c.117 0 .195-.117.293-.166.107-.059.303-.04.342-.156.02-.04-.02-.088-.059-.108-.156-.088-.371-.058-.537.01-.127.059-.332.147-.313.283.01.098.176.147.274.137zm21.59 27.224c-.352-.39-.518-1.132-.703-1.923-.176-.791-.381-1.64-1.025-2.188a2.639 2.639 0 0 0-.391-.283 2.167 2.167 0 0 0-.4-.195c.898-2.666.546-5.322-.362-7.724-1.113-2.94-3.056-5.508-4.54-7.265-1.67-2.1-3.291-4.092-3.262-7.03.049-4.483.498-12.812-7.402-12.822-9.999-.02-7.499 10.097-7.606 13.202-.166 2.285-.625 4.082-2.197 6.318-1.846 2.197-4.443 5.741-5.674 9.442-.586 1.748-.86 3.525-.605 5.205-.635.566-1.113 1.435-1.621 1.972-.41.42-1.006.577-1.66.811-.654.234-1.367.586-1.807 1.416-.205.38-.273.79-.273 1.21 0 .382.059.772.117 1.153.117.79.244 1.533.078 2.031-.508 1.406-.576 2.383-.215 3.095.371.713 1.114 1.026 1.963 1.202 1.69.351 3.984.263 5.79 1.22 1.934 1.016 3.897 1.377 5.46 1.016 1.132-.254 2.06-.938 2.528-1.973 1.22-.01 2.568-.527 4.717-.644 1.455-.117 3.28.517 5.38.4.059.225.137.45.244.654v.01c.81 1.631 2.324 2.373 3.935 2.246 1.621-.127 3.33-1.074 4.717-2.724 1.328-1.602 3.515-2.266 4.97-3.144.723-.44 1.309-.987 1.357-1.787.04-.801-.43-1.69-1.513-2.9zm-19.168-30.905c.957-2.168 3.34-2.13 4.296-.04.635 1.387.352 3.018-.42 3.945-.156-.078-.576-.253-1.23-.478.107-.117.303-.264.38-.45.47-1.151-.019-2.636-.888-2.665-.713-.049-1.357 1.055-1.152 2.246-.4-.195-.918-.342-1.27-.43a3.89 3.89 0 0 1 .284-2.128zm-3.975-1.123c.987 0 2.031 1.386 1.865 3.27a3.511 3.511 0 0 0-.996.45c.118-.869-.322-1.963-.937-1.914-.82.069-.957 2.07-.176 2.744.098.078.186-.02-.576.537-1.523-1.426-1.025-5.087.82-5.087zm-1.328 5.927c.606-.45 1.328-.977 1.377-1.025.46-.43 1.318-1.387 2.725-1.387.693 0 1.523.225 2.529.869.615.4 1.103.43 2.206.908.82.342 1.338.947 1.026 1.777-.254.694-1.074 1.406-2.217 1.768-1.084.351-1.933 1.562-3.73 1.455a2.722 2.722 0 0 1-.937-.205c-.782-.342-1.192-1.016-1.953-1.465-.84-.469-1.29-1.016-1.436-1.494-.137-.479 0-.879.41-1.201zm.323 32.614c-.264 3.428-4.287 3.36-7.353 1.758-2.92-1.543-6.699-.635-7.47-2.138-.235-.46-.235-1.24.253-2.578v-.02c.235-.742.059-1.562-.058-2.334-.117-.761-.176-1.464.088-1.953.341-.654.83-.888 1.445-1.103 1.006-.361 1.152-.332 1.914-.967.537-.556.927-1.26 1.396-1.757.498-.538.977-.791 1.729-.674.79.117 1.474.664 2.138 1.562l1.914 3.476c.928 1.944 4.209 4.727 4.004 6.728zm-.137-2.529c-.4-.644-.938-1.328-1.406-1.914.693 0 1.386-.214 1.63-.869.225-.605 0-1.455-.722-2.431-1.318-1.777-3.74-3.174-3.74-3.174-1.318-.82-2.06-1.826-2.402-2.92-.342-1.093-.293-2.275-.03-3.437.508-2.236 1.817-4.413 2.656-5.78.225-.166.079.312-.85 2.03-.83 1.573-2.382 5.205-.253 8.047.059-2.021.537-4.082 1.348-6.005 1.171-2.676 3.642-7.314 3.837-11.005.108.078.45.312.606.4.449.264.79.654 1.23 1.006 1.21.976 2.783.898 4.14.117.606-.342 1.094-.732 1.553-.879.967-.303 1.738-.84 2.177-1.465.752 2.969 2.51 7.256 3.633 9.345.596 1.113 1.787 3.467 2.304 6.308.323-.01.684.04 1.065.137 1.347-3.486-1.143-7.245-2.275-8.29-.46-.45-.479-.645-.254-.635 1.23 1.094 2.851 3.29 3.437 5.761.273 1.133.322 2.315.039 3.486 1.601.664 3.505 1.748 2.998 3.398-.215-.01-.313 0-.41 0 .312-.986-.381-1.718-2.227-2.548-1.914-.84-3.515-.84-3.74 1.22-1.181.41-1.787 1.436-2.09 2.666-.273 1.094-.35 2.412-.43 3.896-.048.752-.35 1.758-.663 2.832-3.135 2.236-7.49 3.213-11.161.703zm25.134-1.123c-.087 1.64-4.023 1.944-6.17 4.541-1.29 1.533-2.872 2.383-4.258 2.49-1.387.107-2.588-.469-3.291-1.885-.46-1.084-.234-2.255.107-3.544.362-1.387.899-2.813.967-3.965.078-1.484.166-2.783.41-3.779.254-1.006.645-1.68 1.338-2.06.03-.02.068-.03.098-.049.078 1.289.712 2.598 1.835 2.88 1.23.323 2.998-.732 3.75-1.591.879-.03 1.533-.088 2.207.498.967.83.693 2.959 1.67 4.062 1.035 1.133 1.367 1.904 1.337 2.402zm-24.939-27.77c.195.185.46.439.781.692.645.508 1.543 1.036 2.666 1.036 1.133 0 2.197-.577 3.105-1.055.479-.254 1.065-.684 1.446-1.016.38-.332.576-.615.302-.644-.273-.03-.254.254-.586.498-.43.312-.947.723-1.357.957-.723.41-1.904.996-2.92.996-1.015 0-1.826-.469-2.431-.947-.303-.244-.557-.489-.752-.674-.146-.137-.186-.45-.42-.479-.137-.01-.176.362.166.635z" style="fill:#000;fill-opacity:1;stroke-width:.097648"/><path d="M52.578 15.625a3.122 3.122 0 0 0-3.125-3.125 3.122 3.122 0 0 0-3.125 3.125v23.701l-7.168-7.168a3.13 3.13 0 0 0-4.423 0 3.13 3.13 0 0 0 0 4.424l12.5 12.5a3.13 3.13 0 0 0 4.423 0l12.5-12.5a3.13 3.13 0 0 0 0-4.424 3.13 3.13 0 0 0-4.423 0l-7.159 7.168zm-21.875 31.25a6.256 6.256 0 0 0-6.25 6.25v3.125a6.256 6.256 0 0 0 6.25 6.25h37.5a6.256 6.256 0 0 0 6.25-6.25v-3.125a6.256 6.256 0 0 0-6.25-6.25h-9.912l-4.424 4.424a6.248 6.248 0 0 1-8.837 0l-4.415-4.424zm35.938 10.156a2.338 2.338 0 0 1-2.344-2.343 2.338 2.338 0 0 1 2.344-2.344 2.338 2.338 0 0 1 2.344 2.344 2.338 2.338 0 0 1-2.344 2.343z" style="fill:#000;fill-opacity:1;stroke-width:.0976562"/></svg>