<?xml version="1.0" encoding="UTF-8" standalone="no"?>
<svg
   viewBox="0 0 157.33104 75"
   version="1.1"
   id="svg1"
   width="157.33104"
   height="75"
   xmlns="http://www.w3.org/2000/svg"
   xmlns:svg="http://www.w3.org/2000/svg">
  <defs
     id="defs1" />
  <!--! Font Awesome Free 6.4.2 by @fontawesome - https://fontawesome.com License - https://fontawesome.com/license/free (Icons: CC BY 4.0, Fonts: SIL OFL 1.1, Code: MIT License) Copyright 2023 Fonticons, Inc. -->
  <path
     d="m 111.9104,24.539926 c 0.0976,0.0488 0.17577,0.166 0.29295,0.166 0.10741,0 0.27341,-0.039 0.28318,-0.14647 0.0196,-0.13671 -0.18553,-0.22459 -0.31248,-0.28318 -0.166,-0.0684 -0.38082,-0.0976 -0.53706,-0.01 -0.039,0.0195 -0.0781,0.0684 -0.0586,0.10741 0.0293,0.12695 0.22459,0.10742 0.332,0.166 z m -2.13849,0.166 c 0.11718,0 0.1953,-0.11718 0.29294,-0.166 0.10742,-0.0586 0.30271,-0.039 0.34177,-0.15624 0.0195,-0.0391 -0.0195,-0.0879 -0.0586,-0.10741 -0.15623,-0.0879 -0.37106,-0.0586 -0.53706,0.01 -0.12694,0.0586 -0.33201,0.14647 -0.31248,0.28318 0.01,0.0976 0.17577,0.14647 0.27342,0.13671 z m 21.59,27.22431 c -0.35153,-0.3906 -0.51753,-1.13273 -0.70306,-1.92368 -0.17577,-0.79095 -0.38083,-1.64048 -1.02531,-2.18731 -0.12694,-0.10742 -0.25388,-0.20506 -0.39059,-0.28318 -0.12694,-0.0781 -0.26365,-0.14648 -0.40036,-0.1953 0.89836,-2.66579 0.54683,-5.32182 -0.3613,-7.72397 -1.11318,-2.9392 -3.05638,-5.50735 -4.54063,-7.26502 -1.66979,-2.09944 -3.29075,-4.09146 -3.26146,-7.03067 0.0488,-4.48205 0.49801,-12.81143 -7.40172,-12.8212 -9.99918,-0.0196 -7.49938,10.09682 -7.6068,13.20203 -0.166,2.28497 -0.62495,4.08169 -2.19708,6.31784 -1.84555,2.19708 -4.442986,5.74171 -5.673356,9.44257 -0.58588,1.7479 -0.8593,3.5251 -0.60541,5.20465 -0.63472,0.56636 -1.11319,1.43543 -1.62096,1.97249 -0.41012,0.41989 -1.00578,0.57612 -1.66002,0.81048 -0.65424,0.23436 -1.36708,0.58589 -1.8065,1.4159 -0.20506,0.38083 -0.27341,0.79095 -0.27341,1.21084 0,0.38083 0.0586,0.77142 0.11718,1.15225 0.11717,0.79095 0.24412,1.53307 0.0781,2.03108 -0.50777,1.40613 -0.57613,2.38261 -0.21483,3.09544 0.37106,0.71283 1.11319,1.02531 1.96273,1.20108 1.68931,0.35153 3.98405,0.26365 5.79054,1.2206 1.933426,1.01554 3.896156,1.37684 5.458526,1.01554 1.13271,-0.25389 2.06037,-0.93742 2.52908,-1.97249 1.22061,-0.01 2.56815,-0.5273 4.71641,-0.64448 1.45496,-0.11718 3.28098,0.51753 5.38041,0.40035 0.0586,0.2246 0.13671,0.44919 0.24412,0.65425 v 0.01 c 0.81048,1.63072 2.32403,2.37285 3.93522,2.2459 1.62097,-0.12694 3.32981,-1.07413 4.71641,-2.72438 1.32802,-1.60143 3.51533,-2.26544 4.97029,-3.14427 0.7226,-0.43941 1.30849,-0.98624 1.35731,-1.78696 0.039,-0.80071 -0.42965,-1.68931 -1.51355,-2.90015 z m -19.16833,-30.90565 c 0.95695,-2.16779 3.33957,-2.12873 4.29652,-0.0391 0.63471,1.38661 0.35153,3.01733 -0.41989,3.94499 -0.15623,-0.0781 -0.57612,-0.25388 -1.23036,-0.47847 0.10741,-0.11718 0.30271,-0.26365 0.38082,-0.44919 0.46872,-1.15224 -0.0195,-2.6365 -0.88859,-2.66579 -0.71284,-0.0488 -1.35731,1.0546 -1.15225,2.24591 -0.40036,-0.1953 -0.91789,-0.34177 -1.26943,-0.42965 -0.0976,-0.67378 -0.0293,-1.42567 0.28318,-2.12874 z m -3.97428,-1.12295 c 0.98625,0 2.03108,1.3866 1.86508,3.27122 -0.34177,0.0976 -0.6933,0.24412 -0.99601,0.44918 0.11718,-0.86907 -0.32224,-1.96274 -0.93742,-1.91391 -0.82025,0.0684 -0.95696,2.07014 -0.17577,2.74392 0.0977,0.0781 0.18553,-0.0195 -0.57613,0.53706 -1.52331,-1.42566 -1.0253,-5.08747 0.82025,-5.08747 z m -1.32802,5.92724 c 0.60542,-0.44918 1.32802,-0.97648 1.37685,-1.0253 0.45894,-0.42965 1.31825,-1.3866 2.72438,-1.3866 0.6933,0 1.52331,0.22459 2.52909,0.86906 0.61518,0.40036 1.10342,0.42966 2.20684,0.90813 0.82025,0.34177 1.33778,0.94719 1.02531,1.7772 -0.25389,0.6933 -1.07413,1.40613 -2.21661,1.76743 -1.0839,0.35153 -1.93344,1.56237 -3.73016,1.45496 -0.38083,-0.0196 -0.68354,-0.0977 -0.93742,-0.20507 -0.78119,-0.34176 -1.19131,-1.01554 -1.95297,-1.46472 -0.83977,-0.46871 -1.28896,-1.01554 -1.43543,-1.49401 -0.13671,-0.47848 0,-0.87884 0.41012,-1.20108 z m 0.32224,32.61449 c -0.26365,3.42745 -4.28675,3.35909 -7.352896,1.75766 -2.91968,-1.54284 -6.69866,-0.63471 -7.47009,-2.13849 -0.23435,-0.45895 -0.23435,-1.24013 0.25389,-2.57791 v -0.0195 c 0.23435,-0.74213 0.0586,-1.56237 -0.0586,-2.33379 -0.11718,-0.76166 -0.17577,-1.46472 0.0879,-1.95297 0.34177,-0.65424 0.83002,-0.8886 1.4452,-1.10342 1.00578,-0.3613 1.15225,-0.33201 1.9139,-0.96672 0.53707,-0.55659 0.92766,-1.25966 1.39637,-1.75766 0.49801,-0.53707 0.97648,-0.79095 1.72837,-0.67378 0.79095,0.11718 1.474486,0.66401 2.138496,1.56237 l 1.9139,3.47628 c 0.92766,1.9432 4.20863,4.72617 4.00357,6.72796 z m -0.1367,-2.52909 c -0.40036,-0.64448 -0.93743,-1.32801 -1.40614,-1.9139 0.6933,0 1.38661,-0.21483 1.63073,-0.86907 0.22459,-0.60542 0,-1.45496 -0.7226,-2.43144 -1.31825,-1.7772 -3.73992,-3.17357 -3.73992,-3.17357 -1.31825,-0.82024 -2.06038,-1.82602 -2.40215,-2.91968 -0.34176,-1.09366 -0.29294,-2.2752 -0.0293,-3.43721 0.50777,-2.23614 1.81626,-4.4137 2.65603,-5.78077 0.22459,-0.16601 0.0781,0.31247 -0.84954,2.03108 -0.83,1.57214 -2.382606,5.20465 -0.25388,8.04621 0.0586,-2.02132 0.53706,-4.08169 1.34754,-6.00536 1.17178,-2.67556 3.64228,-7.31385 3.83757,-11.00495 0.10742,0.0781 0.44919,0.31247 0.60543,0.40036 0.44918,0.26365 0.79095,0.65424 1.23036,1.00577 1.21084,0.97648 2.78298,0.89836 4.14028,0.11718 0.60542,-0.34177 1.09366,-0.73236 1.55261,-0.87883 0.96672,-0.30271 1.73814,-0.83978 2.17755,-1.46473 0.75189,2.96851 2.50956,7.25526 3.63251,9.34493 0.59566,1.11319 1.78697,3.46651 2.3045,6.30807 0.32224,-0.01 0.68354,0.039 1.06437,0.13671 1.34754,-3.48604 -1.14249,-7.24549 -2.27521,-8.29033 -0.45894,-0.44918 -0.47847,-0.64448 -0.25388,-0.63471 1.23037,1.09366 2.85133,3.29074 3.43722,5.76124 0.27341,1.13272 0.32223,2.31426 0.039,3.48604 1.60143,0.66401 3.50557,1.7479 2.9978,3.39815 -0.21483,-0.01 -0.31248,0 -0.41013,0 0.31248,-0.98624 -0.38082,-1.7186 -2.22637,-2.54861 -1.91391,-0.83978 -3.51534,-0.83978 -3.73993,1.2206 -1.18154,0.41012 -1.78696,1.43543 -2.08967,2.66579 -0.27341,1.09366 -0.35153,2.41191 -0.42965,3.89617 -0.0488,0.75189 -0.35154,1.75766 -0.66401,2.83179 -3.1345,2.23615 -7.48961,3.21263 -11.16118,0.70307 z m 25.13463,-1.12295 c -0.0879,1.64049 -4.0231,1.94319 -6.17136,4.54063 -1.28895,1.53308 -2.87085,2.38262 -4.25746,2.49003 -1.38661,0.10741 -2.58768,-0.46871 -3.29074,-1.88461 -0.45895,-1.08389 -0.23436,-2.25567 0.10741,-3.54462 0.3613,-1.38661 0.89836,-2.81227 0.96672,-3.96452 0.0781,-1.48425 0.166,-2.78297 0.41012,-3.77898 0.25388,-1.00578 0.64448,-1.67955 1.33778,-2.06038 0.0293,-0.0195 0.0684,-0.0293 0.0976,-0.0488 0.0781,1.28895 0.71284,2.59744 1.83579,2.88062 1.23037,0.32223 2.9978,-0.73237 3.74969,-1.59167 0.87884,-0.0293 1.53308,-0.0879 2.20685,0.49801 0.96672,0.83001 0.6933,2.95874 1.66978,4.06216 1.03507,1.13272 1.36708,1.90414 1.33778,2.40215 z m -24.93934,-27.77114 c 0.1953,0.18553 0.45895,0.43942 0.78119,0.6933 0.64448,0.50777 1.54284,1.03507 2.6658,1.03507 1.13271,0 2.19708,-0.57612 3.10521,-1.0546 0.47847,-0.25388 1.06436,-0.68353 1.44519,-1.01554 0.38083,-0.332 0.57612,-0.61518 0.30271,-0.64447 -0.27342,-0.0293 -0.25389,0.25388 -0.58589,0.498 -0.42965,0.31248 -0.94719,0.7226 -1.35731,0.95695 -0.7226,0.41012 -1.90414,0.99601 -2.91968,0.99601 -1.01554,0 -1.82602,-0.46871 -2.43144,-0.94718 -0.30271,-0.24412 -0.55659,-0.48824 -0.75189,-0.67378 -0.14647,-0.1367 -0.18553,-0.44918 -0.41989,-0.47847 -0.13671,-0.01 -0.17577,0.3613 0.166,0.63471 z"
     id="path6061"
     style="fill:#000000;fill-opacity:1;stroke-width:0.097648" />
  <path
     d="m 52.578354,15.625006 c 0,-1.72852 -1.39648,-3.125 -3.125,-3.125 -1.72852,0 -3.125,1.39648 -3.125,3.125 v 23.70117 l -7.16797,-7.16797 c -1.2207,-1.2207 -3.20312,-1.2207 -4.42383,0 -1.2207,1.22071 -1.2207,3.20313 0,4.42383 l 12.5,12.5 c 1.22071,1.2207 3.20313,1.2207 4.42383,0 l 12.5,-12.5 c 1.2207,-1.2207 1.2207,-3.20312 0,-4.42383 -1.2207,-1.2207 -3.20312,-1.2207 -4.42383,0 l -7.1582,7.16797 z m -21.875,31.25 c -3.44727,0 -6.25,2.80273 -6.25,6.25 v 3.125 c 0,3.44727 2.80273,6.25 6.25,6.25 h 37.5 c 3.44727,0 6.25,-2.80273 6.25,-6.25 v -3.125 c 0,-3.44727 -2.80273,-6.25 -6.25,-6.25 h -9.91211 l -4.42383,4.42383 c -2.4414,2.4414 -6.39648,2.4414 -8.83789,0 l -4.41406,-4.42383 z m 35.9375,10.15625 c -1.29883,0 -2.34375,-1.04492 -2.34375,-2.34375 0,-1.29883 1.04492,-2.34375 2.34375,-2.34375 1.29883,0 2.34375,1.04492 2.34375,2.34375 0,1.29883 -1.04492,2.34375 -2.34375,2.34375 z"
     id="path15448"
     style="fill:#000000;fill-opacity:1;stroke-width:0.0976562" />
</svg>
