<svg width="157.331" height="75" xmlns="http://www.w3.org/2000/svg"><!--! Font Awesome Free 6.4.2 by @fontawesome - https://fontawesome.com License - https://fontawesome.com/license/free (Icons: CC BY 4.0, Fonts: SIL OFL 1.1, Code: MIT License) Copyright 2023 Fonticons, Inc.--><path d="m83.666 19.386 20.49-2.823v19.799h-20.49Zm0 36.228 20.49 2.823V38.884h-20.49Zm22.745 3.125 27.255 3.761V38.884H106.41zm0-42.478v20.1h27.255V12.5Z" style="fill:#000;fill-opacity:1;stroke-width:.111607"/><path d="M51.79 15.625a3.122 3.122 0 0 0-3.124-3.125 3.122 3.122 0 0 0-3.125 3.125v23.701l-7.168-7.168a3.13 3.13 0 0 0-4.424 0 3.13 3.13 0 0 0 0 4.424l12.5 12.5a3.13 3.13 0 0 0 4.424 0l12.5-12.5a3.13 3.13 0 0 0 0-4.424 3.13 3.13 0 0 0-4.424 0l-7.158 7.168zm-21.874 31.25a6.256 6.256 0 0 0-6.25 6.25v3.125a6.256 6.256 0 0 0 6.25 6.25h37.5a6.256 6.256 0 0 0 6.25-6.25v-3.125a6.256 6.256 0 0 0-6.25-6.25h-9.913l-4.423 4.424a6.248 6.248 0 0 1-8.838 0l-4.414-4.424Zm35.937 10.156a2.338 2.338 0 0 1-2.344-2.343 2.338 2.338 0 0 1 2.344-2.344 2.338 2.338 0 0 1 2.344 2.343 2.338 2.338 0 0 1-2.344 2.344z" style="fill:#000;fill-opacity:1;stroke-width:.0976562"/></svg>