<?xml version="1.0" encoding="UTF-8" standalone="no"?>
<svg
   viewBox="0 0 157.33104 75"
   version="1.1"
   id="svg1"
   width="157.33104"
   height="75"
   xmlns="http://www.w3.org/2000/svg"
   xmlns:svg="http://www.w3.org/2000/svg">
  <defs
     id="defs1" />
  <!--! Font Awesome Free 6.4.2 by @fontawesome - https://fontawesome.com License - https://fontawesome.com/license/free (Icons: CC BY 4.0, Fonts: SIL OFL 1.1, Code: MIT License) Copyright 2023 Fonticons, Inc. -->
  <path
     d="M 83.66552,19.38616 104.15659,16.5625 V 36.36161 H 83.66552 Z m 0,36.22768 20.49107,2.82366 V 38.88393 H 83.66552 Z m 22.74554,3.125 L 133.66552,62.5 V 38.88393 h -27.25446 z m 0,-42.47768 v 20.10045 h 27.25446 V 12.5 Z"
     id="path6186"
     style="fill:#000000;fill-opacity:1;stroke-width:0.111607" />
  <path
     d="m 51.79052,15.625 c 0,-1.72852 -1.39648,-3.125 -3.125,-3.125 -1.72852,0 -3.125,1.39648 -3.125,3.125 V 39.32617 L 38.37255,32.1582 c -1.2207,-1.2207 -3.20312,-1.2207 -4.42383,0 -1.2207,1.22071 -1.2207,3.20313 0,4.42383 l 12.5,12.5 c 1.22071,1.2207 3.20313,1.2207 4.42383,0 l 12.5,-12.5 c 1.2207,-1.2207 1.2207,-3.20312 0,-4.42383 -1.2207,-1.2207 -3.20312,-1.2207 -4.42383,0 l -7.1582,7.16797 z m -21.875,31.25 c -3.44727,0 -6.25,2.80273 -6.25,6.25 v 3.125 c 0,3.44727 2.80273,6.25 6.25,6.25 h 37.5 c 3.44727,0 6.25,-2.80273 6.25,-6.25 v -3.125 c 0,-3.44727 -2.80273,-6.25 -6.25,-6.25 h -9.91211 l -4.42383,4.42383 c -2.4414,2.4414 -6.39648,2.4414 -8.83789,0 L 39.82763,46.875 Z m 35.9375,10.15625 c -1.29883,0 -2.34375,-1.04492 -2.34375,-2.34375 0,-1.29883 1.04492,-2.34375 2.34375,-2.34375 1.29883,0 2.34375,1.04492 2.34375,2.34375 0,1.29883 -1.04492,2.34375 -2.34375,2.34375 z"
     id="path16036"
     style="fill:#000000;fill-opacity:1;stroke-width:0.0976562" />
</svg>
