<?xml version="1.0" encoding="UTF-8" standalone="no"?>
<svg
   xmlns:dc="http://purl.org/dc/elements/1.1/"
   xmlns:cc="http://creativecommons.org/ns#"
   xmlns:rdf="http://www.w3.org/1999/02/22-rdf-syntax-ns#"
   xmlns:svg="http://www.w3.org/2000/svg"
   xmlns="http://www.w3.org/2000/svg"
   xmlns:sodipodi="http://sodipodi.sourceforge.net/DTD/sodipodi-0.dtd"
   xmlns:inkscape="http://www.inkscape.org/namespaces/inkscape"
   width="211.87125mm"
   height="56.576mm"
   viewBox="0 0 211.87125 56.576"
   version="1.1"
   id="svg8"
   inkscape:version="1.0 (4035a4fb49, 2020-05-01)"
   sodipodi:docname="traced-text.svg">
  <defs
     id="defs2" />
  <sodipodi:namedview
     id="base"
     pagecolor="#ffffff"
     bordercolor="#666666"
     borderopacity="1.0"
     inkscape:pageopacity="0.0"
     inkscape:pageshadow="2"
     inkscape:zoom="1.4142136"
     inkscape:cx="367.6429"
     inkscape:cy="129.23348"
     inkscape:document-units="mm"
     inkscape:current-layer="layer1"
     inkscape:document-rotation="0"
     showgrid="false"
     fit-margin-top="10"
     fit-margin-left="10"
     fit-margin-right="10"
     fit-margin-bottom="10" />
  <metadata
     id="metadata5">
    <rdf:RDF>
      <cc:Work
         rdf:about="">
        <dc:format>image/svg+xml</dc:format>
        <dc:type
           rdf:resource="http://purl.org/dc/dcmitype/StillImage" />
        <dc:title></dc:title>
      </cc:Work>
    </rdf:RDF>
  </metadata>
  <g
     inkscape:label="Layer 1"
     inkscape:groupmode="layer"
     id="layer1"
     transform="translate(-1.4263456,-106.05539)">
    <text
       xml:space="preserve"
       style="font-style:normal;font-variant:normal;font-weight:normal;font-stretch:normal;font-size:50.8px;line-height:1.25;font-family:'Alex Brush';-inkscape-font-specification:'Alex Brush, Normal';font-variant-ligatures:normal;font-variant-caps:normal;font-variant-numeric:normal;font-variant-east-asian:normal;letter-spacing:0px;word-spacing:0px;fill:#000000;fill-opacity:1;stroke:none;stroke-width:0.264583"
       x="12.289946"
       y="147.80539"
       id="text835"><tspan
         sodipodi:role="line"
         id="tspan833"
         x="12.289946"
         y="147.80539"
         style="font-style:normal;font-variant:normal;font-weight:normal;font-stretch:normal;font-size:50.8px;font-family:'Alex Brush';-inkscape-font-specification:'Alex Brush, Normal';font-variant-ligatures:normal;font-variant-caps:normal;font-variant-numeric:normal;font-variant-east-asian:normal;stroke-width:0.264583">Scrivenvar</tspan></text>
    <path
       sodipodi:nodetypes="cssssc"
       id="path859"
       d="m 47.37594,126.25759 c 5.878995,0.58684 8.108819,-2.8906 6.991897,-5.39049 -4.163299,-9.31827 -26.104298,-1.57165 -26.47428,4.67958 -0.290066,4.90098 4.329286,5.69691 9.138161,6.81221 4.75698,1.10326 9.980125,1.72503 10.138085,4.5281 0.511551,9.07772 -11.28247,13.50974 -21.577969,13.14767"
       style="opacity:1;vector-effect:none;fill:none;fill-opacity:1;stroke:#4eb059;stroke-width:0.132292;stroke-linecap:square;stroke-linejoin:miter;stroke-miterlimit:4;stroke-dasharray:none;stroke-dashoffset:0;stroke-opacity:1" />
    <path
       sodipodi:nodetypes="cssc"
       id="path861"
       d="m 61.538159,137.91416 c 8.229745,-12.05206 -9.227635,-1.22793 -10.272792,5.40306 -0.929347,5.89623 4.566953,5.63307 9.024721,2.11036 5.095939,-4.02702 8.706628,-8.11599 12.031905,-13.9409"
       style="opacity:1;vector-effect:none;fill:none;fill-opacity:1;stroke:#4eb059;stroke-width:0.132292;stroke-linecap:square;stroke-linejoin:miter;stroke-miterlimit:4;stroke-dasharray:none;stroke-dashoffset:0;stroke-opacity:1" />
    <path
       sodipodi:nodetypes="ccssc"
       id="path863"
       d="m 72.321991,131.48668 c 3.834665,-5.91801 -1.131419,0.83402 0.75311,2.48796 2.189872,1.94816 6.580549,-2.11016 5.400159,-0.72958 -0.854851,0.99983 -9.857527,10.41157 -5.126492,13.80621 2.461609,1.76627 8.936925,-2.58857 11.751532,-5.5313"
       style="fill:none;fill-opacity:0.8;stroke:#4eb059;stroke-width:0.132292;stroke-linejoin:bevel;stroke-miterlimit:4;stroke-dasharray:none;stroke-dashoffset:0;stroke-opacity:1" />
    <path
       sodipodi:nodetypes="csssc"
       id="path963"
       d="m 85.1003,141.51997 c 0,0 6.754775,-9.24626 6.743495,-8.01563 -0.01328,1.44899 -5.040946,6.68411 -6.63123,10.08427 -0.90584,1.93677 -0.626402,4.68995 2.447111,4.25184 1.468017,-0.20926 5.212094,-2.44913 10.029682,-7.66684"
       style="fill:none;fill-opacity:0.8;stroke:#4eb059;stroke-width:0.132292;stroke-linejoin:bevel;stroke-miterlimit:4;stroke-dasharray:none;stroke-dashoffset:0;stroke-opacity:1" />
    <path
       sodipodi:nodetypes="csccc"
       id="path965"
       d="m 97.689357,140.17361 c 0,0 3.797813,-8.42805 4.594353,-7.95573 0.58723,0.34822 -6.526154,13.32545 -5.477472,14.50806 2.435753,1.7862 19.064212,-11.51107 15.563042,-16.73913 -0.73409,-1.34256 -3.18033,-1.99148 -3.18033,-1.99148"
       style="fill:none;fill-opacity:0.8;stroke:#4eb059;stroke-width:0.132292;stroke-linejoin:bevel;stroke-miterlimit:4;stroke-dasharray:none;stroke-dashoffset:0;stroke-opacity:1" />
    <path
       sodipodi:nodetypes="csssc"
       d="m 113.37707,141.34636 c 4.23091,0.29831 11.94363,-4.90618 10.94354,-7.7799 -1.29105,-3.70978 -8.05529,1.78774 -9.69006,3.68511 -4.97668,5.77609 -4.11733,10.31478 -0.92228,10.61275 3.436,0.32045 8.83724,-3.13085 13.69698,-9.62574"
       style="fill:none;fill-opacity:0.8;stroke:#4eb059;stroke-width:0.132292;stroke-linejoin:bevel;stroke-miterlimit:4;stroke-dasharray:none;stroke-dashoffset:0;stroke-opacity:1"
       id="path967" />
    <path
       style="fill:none;fill-opacity:0.8;stroke:#4eb059;stroke-width:0.132292;stroke-linejoin:bevel;stroke-miterlimit:4;stroke-dasharray:none;stroke-dashoffset:0;stroke-opacity:1"
       d="m 146.49943,140.17361 c 0,0 3.79781,-8.42805 4.59435,-7.95573 0.58723,0.34822 -6.52616,13.32545 -5.47747,14.50806 2.43575,1.7862 19.06421,-11.51107 15.56304,-16.73913 -0.73409,-1.34256 -3.10123,-1.96263 -3.10123,-1.96263"
       id="path970"
       sodipodi:nodetypes="csccc" />
    <path
       style="fill:none;fill-opacity:0.8;stroke:#4eb059;stroke-width:0.132292;stroke-linejoin:bevel;stroke-miterlimit:4;stroke-dasharray:none;stroke-dashoffset:0;stroke-opacity:1"
       d="m 188.80833,131.36316 c 3.83466,-5.91801 -1.13142,0.83402 0.75311,2.48796 2.18987,1.94816 6.58055,-2.11016 5.40016,-0.72958 -0.85485,0.99983 -9.98962,10.60367 -5.12649,13.80621 2.8329,1.86556 9.63808,-2.25455 13.61435,-8.05051"
       id="path987"
       sodipodi:nodetypes="ccssc" />
    <path
       sodipodi:nodetypes="ccsssccc"
       d="m 127.40525,138.23858 c 1.53961,-1.23511 5.06979,-6.4876 5.94375,-5.82833 -1.7832,2.5949 -8.95273,13.68991 -7.1105,13.94503 1.19011,0.16482 7.25976,-8.00422 10.87675,-10.901 1.83151,-1.46682 4.35069,-3.49971 5.94917,-3.73267 1.66376,-0.24247 -1.93803,2.90472 -3.80099,5.77097 -1.36327,2.14988 -4.92421,8.02816 -2.69839,9.35481 3.0826,1.21137 7.35116,-4.27566 9.93439,-6.67382"
       style="fill:none;fill-opacity:0.8;stroke:#4eb059;stroke-width:0.132292;stroke-linejoin:bevel;stroke-miterlimit:4;stroke-dasharray:none;stroke-dashoffset:0;stroke-opacity:1"
       id="path989" />
    <path
       sodipodi:nodetypes="csscsc"
       id="path992"
       d="m 176.85645,132.78853 c -3.26879,-6.24001 -16.43513,7.99373 -16.14879,12.14556 0.1378,1.99804 2.16776,3.14653 3.8818,2.44798 4.44909,-1.8132 11.93103,-13.58278 13.4413,-14.18515 -6.97685,9.84354 -7.04537,13.29844 -4.02229,13.83262 2.49715,0.44125 8.94275,-6.11484 14.79986,-15.66638"
       style="fill:none;fill-opacity:0.8;stroke:#4eb059;stroke-width:0.132292;stroke-linejoin:bevel;stroke-miterlimit:4;stroke-dasharray:none;stroke-dashoffset:0;stroke-opacity:1" />
  </g>
</svg>
